<svg width="16" height="16" viewBox="0 0 16 16" fill="none" xmlns="http://www.w3.org/2000/svg">
<path d="M4.78331 14.6499C4.44998 14.6499 4.16664 14.5333 3.93331 14.2999C3.69998 14.0666 3.58331 13.7833 3.58331 13.4499C3.58331 13.1166 3.69998 12.8333 3.93331 12.5999C4.16664 12.3666 4.44998 12.2499 4.78331 12.2499C5.10553 12.2499 5.38609 12.3666 5.62498 12.5999C5.86386 12.8333 5.98331 13.1166 5.98331 13.4499C5.98331 13.7833 5.86664 14.0666 5.63331 14.2999C5.39998 14.5333 5.11664 14.6499 4.78331 14.6499ZM11.45 14.6499C11.1166 14.6499 10.8333 14.5333 10.6 14.2999C10.3666 14.0666 10.25 13.7833 10.25 13.4499C10.25 13.1166 10.3666 12.8333 10.6 12.5999C10.8333 12.3666 11.1166 12.2499 11.45 12.2499C11.7722 12.2499 12.0528 12.3666 12.2916 12.5999C12.5305 12.8333 12.65 13.1166 12.65 13.4499C12.65 13.7833 12.5333 14.0666 12.3 14.2999C12.0666 14.5333 11.7833 14.6499 11.45 14.6499ZM2.79998 11.1833L4.68331 7.69992L2.14998 2.33325H0.849976V1.33325H2.79998L3.41664 2.64992H14.4L11.1833 8.44992H5.39998L4.46664 10.1833H12.65V11.1833H2.79998Z" fill="url(#paint0_linear_299_27)"/>
<defs>
<linearGradient id="paint0_linear_299_27" x1="7.62498" y1="1.33325" x2="7.62498" y2="14.6499" gradientUnits="userSpaceOnUse">
<stop stop-color="#7DB324"/>
</linearGradient>
</defs>
</svg>
