<svg width="12" height="12" viewBox="0 0 12 12" fill="none" xmlns="http://www.w3.org/2000/svg">
<path d="M9.75008 6C9.75008 5.885 9.74508 5.775 9.73508 5.66L10.6651 4.955C10.8651 4.805 10.9201 4.525 10.7951 4.305L9.86008 2.69C9.73508 2.47 9.46508 2.38 9.23508 2.48L8.16008 2.935C7.97508 2.805 7.78008 2.69 7.57508 2.595L7.43008 1.44C7.40008 1.19 7.18508 1 6.93508 1H5.07008C4.81508 1 4.60008 1.19 4.57008 1.44L4.42508 2.595C4.22008 2.69 4.02508 2.805 3.84008 2.935L2.76508 2.48C2.53508 2.38 2.26508 2.47 2.14008 2.69L1.20508 4.31C1.08008 4.53 1.13508 4.805 1.33508 4.96L2.26508 5.665C2.25508 5.775 2.25008 5.885 2.25008 6C2.25008 6.115 2.25508 6.225 2.26508 6.34L1.33508 7.045C1.13508 7.195 1.08008 7.475 1.20508 7.695L2.14008 9.31C2.26508 9.53 2.53508 9.62 2.76508 9.52L3.84008 9.065C4.02508 9.195 4.22008 9.31 4.42508 9.405L4.57008 10.56C4.60008 10.81 4.81508 11 5.06508 11H6.93008C7.18008 11 7.39508 10.81 7.42508 10.56L7.57008 9.405C7.77508 9.31 7.97008 9.195 8.15508 9.065L9.23008 9.52C9.46008 9.62 9.73008 9.53 9.85508 9.31L10.7901 7.695C10.9151 7.475 10.8601 7.2 10.6601 7.045L9.73008 6.34C9.74508 6.225 9.75008 6.115 9.75008 6ZM6.02008 7.75C5.05508 7.75 4.27008 6.965 4.27008 6C4.27008 5.035 5.05508 4.25 6.02008 4.25C6.98508 4.25 7.77008 5.035 7.77008 6C7.77008 6.965 6.98508 7.75 6.02008 7.75Z" fill="url(#paint0_linear_36_513)"/>
<defs>
<linearGradient id="paint0_linear_36_513" x1="6.00008" y1="1" x2="6.00008" y2="11" gradientUnits="userSpaceOnUse">
<stop stop-color="#8E0AAF"/>
<stop offset="1" stop-color="#500064"/>
</linearGradient>
</defs>
</svg>
