<svg width="16" height="16" viewBox="0 0 16 16" fill="none" xmlns="http://www.w3.org/2000/svg">
<path d="M3.73329 13.3167C3.18885 13.3167 2.72496 13.1279 2.34163 12.7501C1.95829 12.3723 1.76663 11.9056 1.76663 11.3501H0.666626V2.66675H11.3166V5.45008H13.0666L15.3333 8.46675V11.3501H14.15C14.15 11.9056 13.9583 12.3723 13.575 12.7501C13.1916 13.1279 12.7277 13.3167 12.1833 13.3167C11.6388 13.3167 11.175 13.1279 10.7916 12.7501C10.4083 12.3723 10.2166 11.9056 10.2166 11.3501H5.69996C5.69996 11.9056 5.50829 12.3723 5.12496 12.7501C4.74163 13.1279 4.27774 13.3167 3.73329 13.3167ZM3.73329 12.3167C3.99996 12.3167 4.22774 12.2223 4.41663 12.0334C4.60551 11.8445 4.69996 11.6167 4.69996 11.3501C4.69996 11.0834 4.60551 10.8556 4.41663 10.6667C4.22774 10.4779 3.99996 10.3834 3.73329 10.3834C3.46663 10.3834 3.23885 10.4779 3.04996 10.6667C2.86107 10.8556 2.76663 11.0834 2.76663 11.3501C2.76663 11.6167 2.86107 11.8445 3.04996 12.0334C3.23885 12.2223 3.46663 12.3167 3.73329 12.3167ZM12.1833 12.3167C12.45 12.3167 12.6777 12.2223 12.8666 12.0334C13.0555 11.8445 13.15 11.6167 13.15 11.3501C13.15 11.0834 13.0555 10.8556 12.8666 10.6667C12.6777 10.4779 12.45 10.3834 12.1833 10.3834C11.9166 10.3834 11.6888 10.4779 11.5 10.6667C11.3111 10.8556 11.2166 11.0834 11.2166 11.3501C11.2166 11.6167 11.3111 11.8445 11.5 12.0334C11.6888 12.2223 11.9166 12.3167 12.1833 12.3167ZM11.3166 8.91675H14.4166L12.5666 6.45008H11.3166V8.91675Z" fill="url(#paint0_linear_299_29)"/>
<defs>
<linearGradient id="paint0_linear_299_29" x1="7.99996" y1="2.66675" x2="7.99996" y2="13.3167" gradientUnits="userSpaceOnUse">
<stop stop-color="#7DB324"/>
</linearGradient>
</defs>
</svg>
