<svg width="358" height="49" viewBox="0 0 358 49" fill="none" xmlns="http://www.w3.org/2000/svg">
<mask id="path-1-inside-1_53_216" fill="white">
<path d="M15.3672 49C14.1344 49 12.8591 48.9575 11.5413 48.8724C10.266 48.8299 8.94825 48.7448 7.58795 48.6172C6.27015 48.447 5.01612 48.2769 3.82586 48.1068C2.63559 47.8941 1.5516 47.6602 0.573878 47.4049V39.9401C1.84916 40.0677 3.29449 40.174 4.90985 40.2591C6.52521 40.3442 8.20434 40.408 9.94723 40.4505C11.6901 40.4931 13.348 40.5143 14.9208 40.5143C16.5362 40.5143 17.9178 40.3867 19.0655 40.1315C20.2558 39.8338 21.1697 39.3446 21.8074 38.6641C22.445 37.941 22.7638 36.9627 22.7638 35.7292V34.0065C22.7638 32.6029 22.3388 31.5395 21.4886 30.8164C20.6809 30.0508 19.5119 29.668 17.9815 29.668H13.9644C9.45837 29.668 5.99384 28.6897 3.5708 26.7331C1.19027 24.7339 0 21.3524 0 16.5885V14.2917C0 9.69792 1.31779 6.33767 3.95338 4.21094C6.58897 2.0842 10.3511 1.02083 15.2397 1.02083C16.9826 1.02083 18.7042 1.1059 20.4046 1.27604C22.1475 1.44618 23.8053 1.65885 25.3782 1.91406C26.9935 2.12673 28.3751 2.36068 29.5229 2.61589V10.0807C27.5674 9.95312 25.3782 9.82552 22.9551 9.69792C20.5746 9.57031 18.3641 9.50651 16.3237 9.50651C14.8783 9.50651 13.5818 9.65538 12.434 9.95313C11.3288 10.2083 10.4786 10.7188 9.88346 11.4844C9.28833 12.25 8.99076 13.3346 8.99076 14.7383V16.0143C8.99076 17.6732 9.45837 18.8641 10.3936 19.5872C11.3288 20.3103 12.7103 20.6719 14.5383 20.6719H19.193C22.0412 20.6719 24.3792 21.2036 26.2071 22.2669C28.0775 23.2878 29.4591 24.7127 30.3518 26.5417C31.287 28.3707 31.7546 30.4549 31.7546 32.7943V35.474C31.7546 39.1745 31.0532 42.003 29.6504 43.9596C28.2901 45.9162 26.3772 47.2561 23.9116 47.9792C21.4886 48.6597 18.6404 49 15.3672 49Z"/>
<path d="M45.5192 49C42.9261 49 40.8219 48.2344 39.2066 46.7031C37.5912 45.1719 36.7835 43.0451 36.7835 40.3229V37.2604C36.7835 34.6658 37.6975 32.5391 39.5254 30.8802C41.3533 29.1788 44.2014 28.3281 48.0698 28.3281H56.8055V25.9674C56.8055 24.9041 56.6142 24.0321 56.2316 23.3516C55.849 22.6285 55.1264 22.1181 54.0636 21.8203C53.0434 21.48 51.4706 21.3099 49.3451 21.3099H39.079V15.8229C40.7369 15.3125 42.6498 14.8659 44.8178 14.4831C47.0283 14.1003 49.6852 13.9089 52.7883 13.9089C55.6365 13.9089 58.0595 14.2491 60.0575 14.9297C62.0979 15.6102 63.6283 16.7799 64.6485 18.4388C65.7112 20.0977 66.2426 22.3945 66.2426 25.3294V48.6172H58.7822L57.2518 44.9805C56.9543 45.3207 56.4442 45.7036 55.7215 46.1289C54.9988 46.5543 54.1061 47.0009 53.0434 47.4688C52.0232 47.8941 50.8542 48.2556 49.5364 48.5534C48.2611 48.8511 46.922 49 45.5192 49ZM50.3015 42.4284C50.7266 42.4284 51.1942 42.3858 51.7044 42.3008C52.257 42.1732 52.8096 42.0456 53.3622 41.918C53.9574 41.7478 54.4887 41.599 54.9563 41.4714C55.4664 41.3012 55.8703 41.1523 56.1679 41.0247C56.5079 40.8971 56.7205 40.8121 56.8055 40.7695V32.7943L51.0667 33.1771C49.4088 33.3047 48.1761 33.73 47.3684 34.4531C46.6032 35.1762 46.2206 36.1545 46.2206 37.388V38.7917C46.2206 39.6424 46.3907 40.3442 46.7307 40.8971C47.1133 41.4501 47.6022 41.8542 48.1973 42.1094C48.835 42.322 49.5364 42.4284 50.3015 42.4284Z"/>
<path d="M73.308 48.6172V0H82.7451V17.8646C83.9779 16.8437 85.572 15.908 87.5274 15.0573C89.5254 14.2066 91.5658 13.7813 93.6488 13.7813C96.2419 13.7813 98.3036 14.2917 99.8339 15.3125C101.364 16.3333 102.47 17.7582 103.15 19.5872C103.83 21.4162 104.17 23.543 104.17 25.9674V48.6172H94.7328V27.1797C94.7328 26.0738 94.5202 25.1593 94.0951 24.4362C93.67 23.7131 93.0962 23.1814 92.3735 22.8411C91.6508 22.4583 90.8007 22.2669 89.8229 22.2669C88.9302 22.2669 88.0588 22.3945 87.2086 22.6497C86.4009 22.8624 85.6145 23.1602 84.8493 23.543C84.1267 23.9258 83.4253 24.3511 82.7451 24.819V48.6172H73.308Z"/>
<path d="M174.385 48.9362C171.409 48.9362 168.965 48.3832 167.052 47.2773C165.182 46.1289 163.715 44.5126 162.652 42.4284C161.589 40.3017 160.846 37.7708 160.42 34.8359C159.995 31.901 159.783 28.6259 159.783 25.0104C159.783 21.2248 160.017 17.8433 160.484 14.8659C160.994 11.8885 161.866 9.37891 163.099 7.33724C164.374 5.25304 166.138 3.67925 168.391 2.61589C170.686 1.50998 173.62 0.95703 177.19 0.95703C179.358 0.95703 181.335 1.0421 183.121 1.21224C184.948 1.38238 186.67 1.63759 188.285 1.97787C189.901 2.27561 191.516 2.63715 193.132 3.0625V10.3359C192.239 10.2083 191.049 10.0807 189.561 9.95313C188.073 9.82552 186.415 9.71918 184.587 9.63412C182.759 9.50651 180.868 9.44271 178.912 9.44271C176.234 9.44271 174.194 9.93186 172.791 10.9102C171.43 11.8459 170.495 13.4622 169.985 15.7591C169.475 18.0135 169.22 21.1185 169.22 25.0742C169.22 28.1367 169.347 30.6463 169.603 32.6029C169.9 34.5595 170.368 36.112 171.005 37.2604C171.643 38.3663 172.472 39.1532 173.492 39.6211C174.555 40.0464 175.851 40.2591 177.382 40.2591C179.125 40.2591 180.783 40.1102 182.355 39.8125C183.971 39.5148 185.267 39.217 186.245 38.9193V29.7318H177.764V22.2669C178.657 22.1393 179.72 22.033 180.953 21.9479C182.185 21.8628 183.461 21.799 184.778 21.7565C186.139 21.6714 187.435 21.6289 188.668 21.6289C190.028 21.6289 191.24 21.6502 192.303 21.6927C193.408 21.6927 194.407 21.7352 195.299 21.8203V48.6172H188.222L186.946 45.4271C185.714 46.1502 183.971 46.9158 181.718 47.724C179.465 48.5321 177.02 48.9362 174.385 48.9362Z"/>
<path d="M210.285 49C207.692 49 205.588 48.2344 203.972 46.7031C202.357 45.1719 201.549 43.0451 201.549 40.3229V37.2604C201.549 34.6658 202.463 32.5391 204.291 30.8802C206.119 29.1788 208.967 28.3281 212.836 28.3281H221.571V25.9674C221.571 24.9041 221.38 24.0321 220.997 23.3516C220.615 22.6285 219.892 22.1181 218.83 21.8203C217.809 21.48 216.236 21.3099 214.111 21.3099H203.845V15.8229C205.503 15.3125 207.416 14.8659 209.584 14.4831C211.794 14.1003 214.451 13.9089 217.554 13.9089C220.402 13.9089 222.825 14.2491 224.823 14.9297C226.864 15.6102 228.394 16.7799 229.414 18.4388C230.477 20.0977 231.008 22.3945 231.008 25.3294V48.6172H223.548L222.018 44.9805C221.72 45.3207 221.21 45.7036 220.487 46.1289C219.765 46.5543 218.872 47.0009 217.809 47.4688C216.789 47.8941 215.62 48.2556 214.302 48.5534C213.027 48.8511 211.688 49 210.285 49ZM215.067 42.4284C215.493 42.4284 215.96 42.3858 216.47 42.3008C217.023 42.1732 217.575 42.0456 218.128 41.918C218.723 41.7478 219.255 41.599 219.722 41.4714C220.232 41.3012 220.636 41.1523 220.934 41.0247C221.274 40.8971 221.486 40.8121 221.571 40.7695V32.7943L215.833 33.1771C214.175 33.3047 212.942 33.73 212.134 34.4531C211.369 35.1762 210.986 36.1545 210.986 37.388V38.7917C210.986 39.6424 211.157 40.3442 211.497 40.8971C211.879 41.4501 212.368 41.8542 212.963 42.1094C213.601 42.322 214.302 42.4284 215.067 42.4284Z"/>
<path d="M238.074 48.6172V14.3555H245.853L247.511 17.8646C248.999 16.7587 250.614 15.8017 252.357 14.9935C254.142 14.1853 256.332 13.7813 258.925 13.7813C261.093 13.7813 262.878 14.2279 264.281 15.1211C265.726 16.0143 266.81 17.184 267.533 18.6302C268.511 17.8646 269.637 17.1202 270.912 16.3971C272.23 15.674 273.633 15.0573 275.121 14.5469C276.609 14.0365 278.075 13.7813 279.521 13.7813C282.284 13.7813 284.452 14.3129 286.025 15.3763C287.64 16.3971 288.766 17.8646 289.404 19.7786C290.042 21.6502 290.361 23.862 290.361 26.4141V48.6172H280.923V27.2435C280.923 26.1376 280.711 25.2231 280.286 24.5C279.903 23.7769 279.351 23.224 278.628 22.8411C277.905 22.4583 277.034 22.2669 276.014 22.2669C274.738 22.2669 273.442 22.5434 272.124 23.0964C270.849 23.6068 269.701 24.2235 268.681 24.9466C268.766 25.372 268.829 25.7973 268.872 26.2227C268.915 26.6055 268.936 27.0095 268.936 27.4349V48.6172H259.499V27.2435C259.499 26.1376 259.286 25.2231 258.861 24.5C258.478 23.7769 257.926 23.224 257.203 22.8411C256.48 22.4583 255.609 22.2669 254.589 22.2669C253.696 22.2669 252.825 22.3733 251.974 22.5859C251.167 22.7986 250.38 23.0964 249.615 23.4792C248.893 23.862 248.191 24.3086 247.511 24.819V48.6172H238.074Z"/>
<path d="M311.828 48.9362C308.044 48.9362 305.026 48.447 302.773 47.4688C300.52 46.4479 298.884 44.6615 297.863 42.1094C296.886 39.5573 296.397 36.0269 296.397 31.5182C296.397 26.8819 296.864 23.2878 297.8 20.7357C298.735 18.1836 300.308 16.3971 302.518 15.3763C304.729 14.3555 307.726 13.8451 311.509 13.8451C314.91 13.8451 317.63 14.1853 319.671 14.8659C321.711 15.5464 323.178 16.7374 324.07 18.4388C325.006 20.1402 325.473 22.5434 325.473 25.6484C325.473 27.9453 325.006 29.7743 324.07 31.1354C323.178 32.454 321.902 33.411 320.245 34.0065C318.587 34.5595 316.631 34.8359 314.378 34.8359H305.77C305.855 36.5799 306.11 37.9835 306.535 39.0469C307.003 40.0677 307.832 40.8121 309.022 41.2799C310.255 41.7053 312.019 41.918 314.315 41.918H324.326V47.4688C322.668 47.809 320.84 48.1493 318.842 48.4896C316.886 48.7873 314.548 48.9362 311.828 48.9362ZM305.643 29.2214H313.422C314.697 29.2214 315.632 28.9661 316.227 28.4557C316.823 27.9453 317.12 27.0308 317.12 25.7122C317.12 24.4787 316.929 23.5004 316.546 22.7773C316.164 22.0117 315.569 21.48 314.761 21.1823C313.953 20.842 312.869 20.6719 311.509 20.6719C310.064 20.6719 308.916 20.9271 308.066 21.4375C307.215 21.9054 306.599 22.7561 306.216 23.9896C305.834 25.2231 305.643 26.967 305.643 29.2214Z"/>
<path d="M344.099 49C343.037 49 341.889 48.9575 340.656 48.8724C339.423 48.8299 338.191 48.7448 336.958 48.6172C335.725 48.4896 334.577 48.3407 333.515 48.1706C332.452 47.9579 331.559 47.724 330.836 47.4688V41.918H346.012C346.905 41.918 347.628 41.8542 348.18 41.7266C348.775 41.5564 349.201 41.2799 349.456 40.8971C349.753 40.4718 349.902 39.8763 349.902 39.1107V38.026C349.902 37.1753 349.626 36.5161 349.073 36.0482C348.52 35.5803 347.5 35.3464 346.012 35.3464H340.656C338.701 35.3464 336.937 35.0486 335.364 34.4531C333.791 33.8576 332.537 32.8793 331.602 31.5182C330.709 30.1571 330.263 28.3281 330.263 26.0312V24.0534C330.263 21.8841 330.688 20.0551 331.538 18.5664C332.388 17.0777 333.812 15.9505 335.81 15.1849C337.808 14.4193 340.55 14.0365 344.036 14.0365C345.438 14.0365 346.926 14.1215 348.499 14.2917C350.115 14.4193 351.624 14.6107 353.026 14.8659C354.472 15.0786 355.619 15.3338 356.47 15.6315V21.1823H342.123C340.89 21.1823 339.955 21.395 339.317 21.8203C338.679 22.2031 338.361 22.9475 338.361 24.0534V25.0742C338.361 25.8398 338.509 26.4141 338.807 26.7969C339.105 27.1372 339.551 27.3924 340.146 27.5625C340.784 27.6901 341.57 27.7539 342.505 27.7539H347.989C351.475 27.7539 354.004 28.5621 355.577 30.1784C357.192 31.7522 358 33.9427 358 36.75V39.8125C358 42.1094 357.447 43.9384 356.342 45.2995C355.279 46.6181 353.707 47.5751 351.624 48.1706C349.583 48.7235 347.075 49 344.099 49Z"/>
<path d="M118.617 11.7316C118.617 13.9339 116.833 15.7192 114.632 15.7192C112.431 15.7192 110.647 13.9339 110.647 11.7316C110.647 9.52931 112.431 7.74398 114.632 7.74398C116.833 7.74398 118.617 9.52931 118.617 11.7316Z"/>
<path d="M126.588 19.7069C126.588 21.9092 124.804 23.6945 122.603 23.6945C120.402 23.6945 118.617 21.9092 118.617 19.7069C118.617 17.5046 120.402 15.7192 122.603 15.7192C124.804 15.7192 126.588 17.5046 126.588 19.7069Z"/>
<path d="M142.529 35.6574C142.529 37.8597 140.745 39.645 138.544 39.645C136.343 39.645 134.559 37.8597 134.559 35.6574C134.559 33.4551 136.343 31.6698 138.544 31.6698C140.745 31.6698 142.529 33.4551 142.529 35.6574Z"/>
<path d="M150.5 43.6327C150.5 45.835 148.715 47.6203 146.514 47.6203C144.313 47.6203 142.529 45.835 142.529 43.6327C142.529 41.4303 144.313 39.645 146.514 39.645C148.715 39.645 150.5 41.4303 150.5 43.6327Z"/>
<path d="M150.5 11.7316C150.5 13.9339 148.715 15.7192 146.514 15.7192C144.313 15.7192 142.529 13.9339 142.529 11.7316C142.529 9.52931 144.313 7.74398 146.514 7.74398C148.715 7.74398 150.5 9.52931 150.5 11.7316Z"/>
<path d="M142.529 19.7069C142.529 21.9092 140.745 23.6945 138.544 23.6945C136.343 23.6945 134.559 21.9092 134.559 19.7069C134.559 17.5046 136.343 15.7192 138.544 15.7192C140.745 15.7192 142.529 17.5046 142.529 19.7069Z"/>
<path d="M126.588 35.6574C126.588 37.8597 124.804 39.645 122.603 39.645C120.402 39.645 118.617 37.8597 118.617 35.6574C118.617 33.4551 120.402 31.6698 122.603 31.6698C124.804 31.6698 126.588 33.4551 126.588 35.6574Z"/>
<path d="M118.617 43.6327C118.617 45.835 116.833 47.6203 114.632 47.6203C112.431 47.6203 110.647 45.835 110.647 43.6327C110.647 41.4303 112.431 39.645 114.632 39.645C116.833 39.645 118.617 41.4303 118.617 43.6327Z"/>
<path d="M134.559 27.6821C134.559 29.8844 132.774 31.6698 130.573 31.6698C128.372 31.6698 126.588 29.8844 126.588 27.6821C126.588 25.4798 128.372 23.6945 130.573 23.6945C132.774 23.6945 134.559 25.4798 134.559 27.6821Z"/>
</mask>
<path d="M15.3672 49C14.1344 49 12.8591 48.9575 11.5413 48.8724C10.266 48.8299 8.94825 48.7448 7.58795 48.6172C6.27015 48.447 5.01612 48.2769 3.82586 48.1068C2.63559 47.8941 1.5516 47.6602 0.573878 47.4049V39.9401C1.84916 40.0677 3.29449 40.174 4.90985 40.2591C6.52521 40.3442 8.20434 40.408 9.94723 40.4505C11.6901 40.4931 13.348 40.5143 14.9208 40.5143C16.5362 40.5143 17.9178 40.3867 19.0655 40.1315C20.2558 39.8338 21.1697 39.3446 21.8074 38.6641C22.445 37.941 22.7638 36.9627 22.7638 35.7292V34.0065C22.7638 32.6029 22.3388 31.5395 21.4886 30.8164C20.6809 30.0508 19.5119 29.668 17.9815 29.668H13.9644C9.45837 29.668 5.99384 28.6897 3.5708 26.7331C1.19027 24.7339 0 21.3524 0 16.5885V14.2917C0 9.69792 1.31779 6.33767 3.95338 4.21094C6.58897 2.0842 10.3511 1.02083 15.2397 1.02083C16.9826 1.02083 18.7042 1.1059 20.4046 1.27604C22.1475 1.44618 23.8053 1.65885 25.3782 1.91406C26.9935 2.12673 28.3751 2.36068 29.5229 2.61589V10.0807C27.5674 9.95312 25.3782 9.82552 22.9551 9.69792C20.5746 9.57031 18.3641 9.50651 16.3237 9.50651C14.8783 9.50651 13.5818 9.65538 12.434 9.95313C11.3288 10.2083 10.4786 10.7188 9.88346 11.4844C9.28833 12.25 8.99076 13.3346 8.99076 14.7383V16.0143C8.99076 17.6732 9.45837 18.8641 10.3936 19.5872C11.3288 20.3103 12.7103 20.6719 14.5383 20.6719H19.193C22.0412 20.6719 24.3792 21.2036 26.2071 22.2669C28.0775 23.2878 29.4591 24.7127 30.3518 26.5417C31.287 28.3707 31.7546 30.4549 31.7546 32.7943V35.474C31.7546 39.1745 31.0532 42.003 29.6504 43.9596C28.2901 45.9162 26.3772 47.2561 23.9116 47.9792C21.4886 48.6597 18.6404 49 15.3672 49Z" fill="white"/>
<path d="M45.5192 49C42.9261 49 40.8219 48.2344 39.2066 46.7031C37.5912 45.1719 36.7835 43.0451 36.7835 40.3229V37.2604C36.7835 34.6658 37.6975 32.5391 39.5254 30.8802C41.3533 29.1788 44.2014 28.3281 48.0698 28.3281H56.8055V25.9674C56.8055 24.9041 56.6142 24.0321 56.2316 23.3516C55.849 22.6285 55.1264 22.1181 54.0636 21.8203C53.0434 21.48 51.4706 21.3099 49.3451 21.3099H39.079V15.8229C40.7369 15.3125 42.6498 14.8659 44.8178 14.4831C47.0283 14.1003 49.6852 13.9089 52.7883 13.9089C55.6365 13.9089 58.0595 14.2491 60.0575 14.9297C62.0979 15.6102 63.6283 16.7799 64.6485 18.4388C65.7112 20.0977 66.2426 22.3945 66.2426 25.3294V48.6172H58.7822L57.2518 44.9805C56.9543 45.3207 56.4442 45.7036 55.7215 46.1289C54.9988 46.5543 54.1061 47.0009 53.0434 47.4688C52.0232 47.8941 50.8542 48.2556 49.5364 48.5534C48.2611 48.8511 46.922 49 45.5192 49ZM50.3015 42.4284C50.7266 42.4284 51.1942 42.3858 51.7044 42.3008C52.257 42.1732 52.8096 42.0456 53.3622 41.918C53.9574 41.7478 54.4887 41.599 54.9563 41.4714C55.4664 41.3012 55.8703 41.1523 56.1679 41.0247C56.5079 40.8971 56.7205 40.8121 56.8055 40.7695V32.7943L51.0667 33.1771C49.4088 33.3047 48.1761 33.73 47.3684 34.4531C46.6032 35.1762 46.2206 36.1545 46.2206 37.388V38.7917C46.2206 39.6424 46.3907 40.3442 46.7307 40.8971C47.1133 41.4501 47.6022 41.8542 48.1973 42.1094C48.835 42.322 49.5364 42.4284 50.3015 42.4284Z" fill="white"/>
<path d="M73.308 48.6172V0H82.7451V17.8646C83.9779 16.8437 85.572 15.908 87.5274 15.0573C89.5254 14.2066 91.5658 13.7813 93.6488 13.7813C96.2419 13.7813 98.3036 14.2917 99.8339 15.3125C101.364 16.3333 102.47 17.7582 103.15 19.5872C103.83 21.4162 104.17 23.543 104.17 25.9674V48.6172H94.7328V27.1797C94.7328 26.0738 94.5202 25.1593 94.0951 24.4362C93.67 23.7131 93.0962 23.1814 92.3735 22.8411C91.6508 22.4583 90.8007 22.2669 89.8229 22.2669C88.9302 22.2669 88.0588 22.3945 87.2086 22.6497C86.4009 22.8624 85.6145 23.1602 84.8493 23.543C84.1267 23.9258 83.4253 24.3511 82.7451 24.819V48.6172H73.308Z" fill="white"/>
<path d="M174.385 48.9362C171.409 48.9362 168.965 48.3832 167.052 47.2773C165.182 46.1289 163.715 44.5126 162.652 42.4284C161.589 40.3017 160.846 37.7708 160.42 34.8359C159.995 31.901 159.783 28.6259 159.783 25.0104C159.783 21.2248 160.017 17.8433 160.484 14.8659C160.994 11.8885 161.866 9.37891 163.099 7.33724C164.374 5.25304 166.138 3.67925 168.391 2.61589C170.686 1.50998 173.62 0.95703 177.19 0.95703C179.358 0.95703 181.335 1.0421 183.121 1.21224C184.948 1.38238 186.67 1.63759 188.285 1.97787C189.901 2.27561 191.516 2.63715 193.132 3.0625V10.3359C192.239 10.2083 191.049 10.0807 189.561 9.95313C188.073 9.82552 186.415 9.71918 184.587 9.63412C182.759 9.50651 180.868 9.44271 178.912 9.44271C176.234 9.44271 174.194 9.93186 172.791 10.9102C171.43 11.8459 170.495 13.4622 169.985 15.7591C169.475 18.0135 169.22 21.1185 169.22 25.0742C169.22 28.1367 169.347 30.6463 169.603 32.6029C169.9 34.5595 170.368 36.112 171.005 37.2604C171.643 38.3663 172.472 39.1532 173.492 39.6211C174.555 40.0464 175.851 40.2591 177.382 40.2591C179.125 40.2591 180.783 40.1102 182.355 39.8125C183.971 39.5148 185.267 39.217 186.245 38.9193V29.7318H177.764V22.2669C178.657 22.1393 179.72 22.033 180.953 21.9479C182.185 21.8628 183.461 21.799 184.778 21.7565C186.139 21.6714 187.435 21.6289 188.668 21.6289C190.028 21.6289 191.24 21.6502 192.303 21.6927C193.408 21.6927 194.407 21.7352 195.299 21.8203V48.6172H188.222L186.946 45.4271C185.714 46.1502 183.971 46.9158 181.718 47.724C179.465 48.5321 177.02 48.9362 174.385 48.9362Z" fill="white"/>
<path d="M210.285 49C207.692 49 205.588 48.2344 203.972 46.7031C202.357 45.1719 201.549 43.0451 201.549 40.3229V37.2604C201.549 34.6658 202.463 32.5391 204.291 30.8802C206.119 29.1788 208.967 28.3281 212.836 28.3281H221.571V25.9674C221.571 24.9041 221.38 24.0321 220.997 23.3516C220.615 22.6285 219.892 22.1181 218.83 21.8203C217.809 21.48 216.236 21.3099 214.111 21.3099H203.845V15.8229C205.503 15.3125 207.416 14.8659 209.584 14.4831C211.794 14.1003 214.451 13.9089 217.554 13.9089C220.402 13.9089 222.825 14.2491 224.823 14.9297C226.864 15.6102 228.394 16.7799 229.414 18.4388C230.477 20.0977 231.008 22.3945 231.008 25.3294V48.6172H223.548L222.018 44.9805C221.72 45.3207 221.21 45.7036 220.487 46.1289C219.765 46.5543 218.872 47.0009 217.809 47.4688C216.789 47.8941 215.62 48.2556 214.302 48.5534C213.027 48.8511 211.688 49 210.285 49ZM215.067 42.4284C215.493 42.4284 215.96 42.3858 216.47 42.3008C217.023 42.1732 217.575 42.0456 218.128 41.918C218.723 41.7478 219.255 41.599 219.722 41.4714C220.232 41.3012 220.636 41.1523 220.934 41.0247C221.274 40.8971 221.486 40.8121 221.571 40.7695V32.7943L215.833 33.1771C214.175 33.3047 212.942 33.73 212.134 34.4531C211.369 35.1762 210.986 36.1545 210.986 37.388V38.7917C210.986 39.6424 211.157 40.3442 211.497 40.8971C211.879 41.4501 212.368 41.8542 212.963 42.1094C213.601 42.322 214.302 42.4284 215.067 42.4284Z" fill="white"/>
<path d="M238.074 48.6172V14.3555H245.853L247.511 17.8646C248.999 16.7587 250.614 15.8017 252.357 14.9935C254.142 14.1853 256.332 13.7813 258.925 13.7813C261.093 13.7813 262.878 14.2279 264.281 15.1211C265.726 16.0143 266.81 17.184 267.533 18.6302C268.511 17.8646 269.637 17.1202 270.912 16.3971C272.23 15.674 273.633 15.0573 275.121 14.5469C276.609 14.0365 278.075 13.7813 279.521 13.7813C282.284 13.7813 284.452 14.3129 286.025 15.3763C287.64 16.3971 288.766 17.8646 289.404 19.7786C290.042 21.6502 290.361 23.862 290.361 26.4141V48.6172H280.923V27.2435C280.923 26.1376 280.711 25.2231 280.286 24.5C279.903 23.7769 279.351 23.224 278.628 22.8411C277.905 22.4583 277.034 22.2669 276.014 22.2669C274.738 22.2669 273.442 22.5434 272.124 23.0964C270.849 23.6068 269.701 24.2235 268.681 24.9466C268.766 25.372 268.829 25.7973 268.872 26.2227C268.915 26.6055 268.936 27.0095 268.936 27.4349V48.6172H259.499V27.2435C259.499 26.1376 259.286 25.2231 258.861 24.5C258.478 23.7769 257.926 23.224 257.203 22.8411C256.48 22.4583 255.609 22.2669 254.589 22.2669C253.696 22.2669 252.825 22.3733 251.974 22.5859C251.167 22.7986 250.38 23.0964 249.615 23.4792C248.893 23.862 248.191 24.3086 247.511 24.819V48.6172H238.074Z" fill="white"/>
<path d="M311.828 48.9362C308.044 48.9362 305.026 48.447 302.773 47.4688C300.52 46.4479 298.884 44.6615 297.863 42.1094C296.886 39.5573 296.397 36.0269 296.397 31.5182C296.397 26.8819 296.864 23.2878 297.8 20.7357C298.735 18.1836 300.308 16.3971 302.518 15.3763C304.729 14.3555 307.726 13.8451 311.509 13.8451C314.91 13.8451 317.63 14.1853 319.671 14.8659C321.711 15.5464 323.178 16.7374 324.07 18.4388C325.006 20.1402 325.473 22.5434 325.473 25.6484C325.473 27.9453 325.006 29.7743 324.07 31.1354C323.178 32.454 321.902 33.411 320.245 34.0065C318.587 34.5595 316.631 34.8359 314.378 34.8359H305.77C305.855 36.5799 306.11 37.9835 306.535 39.0469C307.003 40.0677 307.832 40.8121 309.022 41.2799C310.255 41.7053 312.019 41.918 314.315 41.918H324.326V47.4688C322.668 47.809 320.84 48.1493 318.842 48.4896C316.886 48.7873 314.548 48.9362 311.828 48.9362ZM305.643 29.2214H313.422C314.697 29.2214 315.632 28.9661 316.227 28.4557C316.823 27.9453 317.12 27.0308 317.12 25.7122C317.12 24.4787 316.929 23.5004 316.546 22.7773C316.164 22.0117 315.569 21.48 314.761 21.1823C313.953 20.842 312.869 20.6719 311.509 20.6719C310.064 20.6719 308.916 20.9271 308.066 21.4375C307.215 21.9054 306.599 22.7561 306.216 23.9896C305.834 25.2231 305.643 26.967 305.643 29.2214Z" fill="white"/>
<path d="M344.099 49C343.037 49 341.889 48.9575 340.656 48.8724C339.423 48.8299 338.191 48.7448 336.958 48.6172C335.725 48.4896 334.577 48.3407 333.515 48.1706C332.452 47.9579 331.559 47.724 330.836 47.4688V41.918H346.012C346.905 41.918 347.628 41.8542 348.18 41.7266C348.775 41.5564 349.201 41.2799 349.456 40.8971C349.753 40.4718 349.902 39.8763 349.902 39.1107V38.026C349.902 37.1753 349.626 36.5161 349.073 36.0482C348.52 35.5803 347.5 35.3464 346.012 35.3464H340.656C338.701 35.3464 336.937 35.0486 335.364 34.4531C333.791 33.8576 332.537 32.8793 331.602 31.5182C330.709 30.1571 330.263 28.3281 330.263 26.0312V24.0534C330.263 21.8841 330.688 20.0551 331.538 18.5664C332.388 17.0777 333.812 15.9505 335.81 15.1849C337.808 14.4193 340.55 14.0365 344.036 14.0365C345.438 14.0365 346.926 14.1215 348.499 14.2917C350.115 14.4193 351.624 14.6107 353.026 14.8659C354.472 15.0786 355.619 15.3338 356.47 15.6315V21.1823H342.123C340.89 21.1823 339.955 21.395 339.317 21.8203C338.679 22.2031 338.361 22.9475 338.361 24.0534V25.0742C338.361 25.8398 338.509 26.4141 338.807 26.7969C339.105 27.1372 339.551 27.3924 340.146 27.5625C340.784 27.6901 341.57 27.7539 342.505 27.7539H347.989C351.475 27.7539 354.004 28.5621 355.577 30.1784C357.192 31.7522 358 33.9427 358 36.75V39.8125C358 42.1094 357.447 43.9384 356.342 45.2995C355.279 46.6181 353.707 47.5751 351.624 48.1706C349.583 48.7235 347.075 49 344.099 49Z" fill="white"/>
<path d="M118.617 11.7316C118.617 13.9339 116.833 15.7192 114.632 15.7192C112.431 15.7192 110.647 13.9339 110.647 11.7316C110.647 9.52931 112.431 7.74398 114.632 7.74398C116.833 7.74398 118.617 9.52931 118.617 11.7316Z" fill="#8E0AAF"/>
<path d="M126.588 19.7069C126.588 21.9092 124.804 23.6945 122.603 23.6945C120.402 23.6945 118.617 21.9092 118.617 19.7069C118.617 17.5046 120.402 15.7192 122.603 15.7192C124.804 15.7192 126.588 17.5046 126.588 19.7069Z" fill="#8E0AAF"/>
<path d="M142.529 35.6574C142.529 37.8597 140.745 39.645 138.544 39.645C136.343 39.645 134.559 37.8597 134.559 35.6574C134.559 33.4551 136.343 31.6698 138.544 31.6698C140.745 31.6698 142.529 33.4551 142.529 35.6574Z" fill="#8E0AAF"/>
<path d="M150.5 43.6327C150.5 45.835 148.715 47.6203 146.514 47.6203C144.313 47.6203 142.529 45.835 142.529 43.6327C142.529 41.4303 144.313 39.645 146.514 39.645C148.715 39.645 150.5 41.4303 150.5 43.6327Z" fill="#8E0AAF"/>
<path d="M150.5 11.7316C150.5 13.9339 148.715 15.7192 146.514 15.7192C144.313 15.7192 142.529 13.9339 142.529 11.7316C142.529 9.52931 144.313 7.74398 146.514 7.74398C148.715 7.74398 150.5 9.52931 150.5 11.7316Z" fill="#8E0AAF"/>
<path d="M142.529 19.7069C142.529 21.9092 140.745 23.6945 138.544 23.6945C136.343 23.6945 134.559 21.9092 134.559 19.7069C134.559 17.5046 136.343 15.7192 138.544 15.7192C140.745 15.7192 142.529 17.5046 142.529 19.7069Z" fill="#8E0AAF"/>
<path d="M126.588 35.6574C126.588 37.8597 124.804 39.645 122.603 39.645C120.402 39.645 118.617 37.8597 118.617 35.6574C118.617 33.4551 120.402 31.6698 122.603 31.6698C124.804 31.6698 126.588 33.4551 126.588 35.6574Z" fill="#8E0AAF"/>
<path d="M118.617 43.6327C118.617 45.835 116.833 47.6203 114.632 47.6203C112.431 47.6203 110.647 45.835 110.647 43.6327C110.647 41.4303 112.431 39.645 114.632 39.645C116.833 39.645 118.617 41.4303 118.617 43.6327Z" fill="#8E0AAF"/>
<path d="M134.559 27.6821C134.559 29.8844 132.774 31.6698 130.573 31.6698C128.372 31.6698 126.588 29.8844 126.588 27.6821C126.588 25.4798 128.372 23.6945 130.573 23.6945C132.774 23.6945 134.559 25.4798 134.559 27.6821Z" fill="#8E0AAF"/>
<path d="M11.5413 48.8724L11.6058 47.8745L11.5902 47.8735L11.5747 47.873L11.5413 48.8724ZM7.58795 48.6172L7.4599 49.609L7.47719 49.6112L7.49455 49.6128L7.58795 48.6172ZM3.82586 48.1068L3.64996 49.0912L3.66711 49.0942L3.68435 49.0967L3.82586 48.1068ZM0.573878 47.4049H-0.426122V48.1774L0.321316 48.3725L0.573878 47.4049ZM0.573878 39.9401L0.673441 38.9451L-0.426122 38.8351V39.9401H0.573878ZM4.90985 40.2591L4.96244 39.2605H4.96244L4.90985 40.2591ZM9.94723 40.4505L9.92283 41.4502L9.94723 40.4505ZM19.0655 40.1315L19.2826 41.1077L19.2954 41.1048L19.3082 41.1016L19.0655 40.1315ZM21.8074 38.6641L22.5371 39.3478L22.5474 39.3368L22.5574 39.3255L21.8074 38.6641ZM21.4886 30.8164L20.8006 31.5422L20.8202 31.5607L20.8407 31.5782L21.4886 30.8164ZM3.5708 26.7331L2.9277 27.4989L2.93507 27.505L2.94255 27.5111L3.5708 26.7331ZM20.4046 1.27604L20.305 2.27107L20.3074 2.27131L20.4046 1.27604ZM25.3782 1.91406L25.218 2.90115L25.2328 2.90355L25.2477 2.9055L25.3782 1.91406ZM29.5229 2.61589H30.5229V1.81382L29.7399 1.63973L29.5229 2.61589ZM29.5229 10.0807L29.4577 11.0786L30.5229 11.1481V10.0807H29.5229ZM22.9551 9.69792L22.9016 10.6965L22.9025 10.6965L22.9551 9.69792ZM12.434 9.95313L12.659 10.9275L12.6721 10.9245L12.6851 10.9211L12.434 9.95313ZM10.3936 19.5872L9.7819 20.3783H9.7819L10.3936 19.5872ZM26.2071 22.2669L25.7043 23.1313L25.7161 23.1382L25.728 23.1447L26.2071 22.2669ZM30.3518 26.5417L29.4531 26.9803L29.4572 26.9886L29.4614 26.9969L30.3518 26.5417ZM29.6504 43.9596L28.8377 43.377L28.8335 43.3828L28.8293 43.3888L29.6504 43.9596ZM23.9116 47.9792L24.182 48.942L24.193 48.9388L23.9116 47.9792ZM39.2066 46.7031L39.8945 45.9774L39.2066 46.7031ZM39.5254 30.8802L40.1975 31.6208L40.2067 31.6122L39.5254 30.8802ZM56.8055 28.3281V29.3281H57.8055V28.3281H56.8055ZM56.2316 23.3516L55.3477 23.8192L55.3537 23.8305L55.3599 23.8416L56.2316 23.3516ZM54.0636 21.8203L53.7472 22.7689L53.7704 22.7767L53.7939 22.7832L54.0636 21.8203ZM39.079 21.3099H38.079V22.3099H39.079V21.3099ZM39.079 15.8229L38.7848 14.8672L38.079 15.0845V15.8229H39.079ZM44.8178 14.4831L44.6472 13.4977L44.6439 13.4983L44.8178 14.4831ZM60.0575 14.9297L59.735 15.8763L59.7411 15.8783L60.0575 14.9297ZM64.6485 18.4388L63.7967 18.9627L63.8015 18.9705L63.8065 18.9782L64.6485 18.4388ZM66.2426 48.6172V49.6172H67.2426V48.6172H66.2426ZM58.7822 48.6172L57.8605 49.0051L58.1181 49.6172H58.7822V48.6172ZM57.2518 44.9805L58.1736 44.5926L57.5527 43.1173L56.4991 44.3222L57.2518 44.9805ZM55.7215 46.1289L56.2287 46.9907L55.7215 46.1289ZM53.0434 47.4688L53.4282 48.3917L53.4373 48.388L53.4463 48.384L53.0434 47.4688ZM49.5364 48.5534L49.316 47.5779L49.309 47.5796L49.5364 48.5534ZM51.7044 42.3008L51.8689 43.2872L51.8993 43.2821L51.9293 43.2751L51.7044 42.3008ZM53.3622 41.918L53.5872 42.8923L53.6123 42.8865L53.6371 42.8794L53.3622 41.918ZM54.9563 41.4714L55.2196 42.4361L55.2464 42.4288L55.2727 42.42L54.9563 41.4714ZM56.1679 41.0247L55.8166 40.0885L55.7949 40.0966L55.7737 40.1057L56.1679 41.0247ZM56.8055 40.7695L57.2529 41.6639L57.8055 41.3874V40.7695H56.8055ZM56.8055 32.7943H57.8055V31.7253L56.7389 31.7965L56.8055 32.7943ZM51.0667 33.1771L51.0002 32.1792L50.99 32.18L51.0667 33.1771ZM47.3684 34.4531L46.7014 33.7081L46.6913 33.7171L46.6815 33.7263L47.3684 34.4531ZM46.7307 40.8971L45.8789 41.421L45.8931 41.444L45.9084 41.4661L46.7307 40.8971ZM48.1973 42.1094L47.8032 43.0284L47.8414 43.0448L47.8809 43.058L48.1973 42.1094ZM73.308 48.6172H72.308V49.6172H73.308V48.6172ZM73.308 0V-1H72.308V0H73.308ZM82.7451 0H83.7451V-1H82.7451V0ZM82.7451 17.8646H81.7451V19.991L83.3829 18.6348L82.7451 17.8646ZM87.5274 15.0573L87.1357 14.1372L87.1285 14.1403L87.5274 15.0573ZM99.8339 15.3125L100.389 14.4806V14.4806L99.8339 15.3125ZM103.15 19.5872L104.087 19.2387L103.15 19.5872ZM104.17 48.6172V49.6172H105.17V48.6172H104.17ZM94.7328 48.6172H93.7328V49.6172H94.7328V48.6172ZM94.0951 24.4362L93.2331 24.943L94.0951 24.4362ZM92.3735 22.8411L91.9054 23.7248L91.9262 23.7358L91.9475 23.7459L92.3735 22.8411ZM87.2086 22.6497L87.4632 23.6168L87.4797 23.6124L87.4961 23.6075L87.2086 22.6497ZM84.8493 23.543L84.4019 22.6486L84.3915 22.6539L84.3812 22.6593L84.8493 23.543ZM82.7451 24.819L82.1783 23.9951L81.7451 24.2932V24.819H82.7451ZM82.7451 48.6172V49.6172H83.7451V48.6172H82.7451ZM167.052 47.2773L166.529 48.1295L166.54 48.1365L166.551 48.1431L167.052 47.2773ZM162.652 42.4284L161.758 42.8754L161.761 42.8826L162.652 42.4284ZM160.42 34.8359L159.431 34.9793L160.42 34.8359ZM160.484 14.8659L159.498 14.697L159.496 14.7107L160.484 14.8659ZM163.099 7.33724L162.246 6.8153L162.242 6.82035L163.099 7.33724ZM168.391 2.61589L168.818 3.52025L168.825 3.51679L168.391 2.61589ZM183.121 1.21224L183.026 2.20773L183.028 2.20794L183.121 1.21224ZM188.285 1.97787L188.079 2.95639L188.092 2.959L188.104 2.9613L188.285 1.97787ZM193.132 3.0625H194.132V2.29173L193.386 2.09546L193.132 3.0625ZM193.132 10.3359L192.99 11.3259L194.132 11.489V10.3359H193.132ZM189.561 9.95313L189.475 10.9495L189.561 9.95313ZM184.587 9.63412L184.517 10.6317L184.529 10.6325L184.541 10.633L184.587 9.63412ZM172.791 10.9102L173.357 11.7341L173.363 11.7304L172.791 10.9102ZM169.985 15.7591L170.96 15.9798L170.961 15.9759L169.985 15.7591ZM169.603 32.6029L168.611 32.7321L168.612 32.7427L168.614 32.7532L169.603 32.6029ZM171.005 37.2604L170.131 37.7458L170.135 37.7529L170.139 37.7599L171.005 37.2604ZM173.492 39.6211L173.075 40.5301L173.098 40.5403L173.121 40.5495L173.492 39.6211ZM182.355 39.8125L182.174 38.8291L182.169 38.8299L182.355 39.8125ZM186.245 38.9193L186.536 39.8759L187.245 39.6601V38.9193H186.245ZM186.245 29.7318H187.245V28.7318H186.245V29.7318ZM177.764 29.7318H176.764V30.7318H177.764V29.7318ZM177.764 22.2669L177.623 21.277L176.764 21.3997V22.2669H177.764ZM180.953 21.9479L180.884 20.9503L180.953 21.9479ZM184.778 21.7565L184.811 22.756L184.826 22.7555L184.841 22.7546L184.778 21.7565ZM192.303 21.6927L192.263 22.6919L192.283 22.6927H192.303V21.6927ZM195.299 21.8203H196.299V20.9111L195.394 20.8248L195.299 21.8203ZM195.299 48.6172V49.6172H196.299V48.6172H195.299ZM188.222 48.6172L187.293 48.9884L187.544 49.6172H188.222V48.6172ZM186.946 45.4271L187.875 45.0559L187.443 43.9763L186.44 44.5645L186.946 45.4271ZM181.718 47.724L181.38 46.7827L181.718 47.724ZM203.972 46.7031L204.66 45.9774L203.972 46.7031ZM204.291 30.8802L204.963 31.6208L204.973 31.6122L204.291 30.8802ZM221.571 28.3281V29.3281H222.571V28.3281H221.571ZM220.997 23.3516L220.114 23.8192L220.12 23.8305L220.126 23.8416L220.997 23.3516ZM218.83 21.8203L218.513 22.7689L218.536 22.7767L218.56 22.7832L218.83 21.8203ZM203.845 21.3099H202.845V22.3099H203.845V21.3099ZM203.845 15.8229L203.551 14.8672L202.845 15.0845V15.8229H203.845ZM209.584 14.4831L209.413 13.4977L209.41 13.4983L209.584 14.4831ZM224.823 14.9297L224.501 15.8763L224.507 15.8783L224.823 14.9297ZM229.414 18.4388L228.563 18.9627L228.567 18.9705L228.572 18.9782L229.414 18.4388ZM231.008 48.6172V49.6172H232.008V48.6172H231.008ZM223.548 48.6172L222.626 49.0051L222.884 49.6172H223.548V48.6172ZM222.018 44.9805L222.939 44.5926L222.319 43.1173L221.265 44.3222L222.018 44.9805ZM220.487 46.1289L220.995 46.9907L220.487 46.1289ZM217.809 47.4688L218.194 48.3917L218.203 48.388L218.212 48.384L217.809 47.4688ZM214.302 48.5534L214.082 47.5779L214.075 47.5796L214.302 48.5534ZM216.47 42.3008L216.635 43.2872L216.665 43.2821L216.695 43.2751L216.47 42.3008ZM218.128 41.918L218.353 42.8923L218.378 42.8865L218.403 42.8794L218.128 41.918ZM219.722 41.4714L219.985 42.4361L220.012 42.4288L220.039 42.42L219.722 41.4714ZM220.934 41.0247L220.582 40.0885L220.561 40.0966L220.54 40.1057L220.934 41.0247ZM221.571 40.7695L222.019 41.6639L222.571 41.3874V40.7695H221.571ZM221.571 32.7943H222.571V31.7253L221.505 31.7965L221.571 32.7943ZM215.833 33.1771L215.766 32.1792L215.756 32.18L215.833 33.1771ZM212.134 34.4531L211.467 33.7081L211.457 33.7171L211.447 33.7263L212.134 34.4531ZM211.497 40.8971L210.645 41.421L210.659 41.444L210.674 41.4661L211.497 40.8971ZM212.963 42.1094L212.569 43.0284L212.607 43.0448L212.647 43.058L212.963 42.1094ZM238.074 48.6172H237.074V49.6172H238.074V48.6172ZM238.074 14.3555V13.3555H237.074V14.3555H238.074ZM245.853 14.3555L246.757 13.9283L246.487 13.3555H245.853V14.3555ZM247.511 17.8646L246.607 18.2918L247.128 19.3952L248.108 18.6672L247.511 17.8646ZM252.357 14.9935L251.945 14.0824L251.936 14.0863L252.357 14.9935ZM264.281 15.1211L263.744 15.9647L263.755 15.9718L264.281 15.1211ZM267.533 18.6302L266.638 19.0772L267.186 20.1723L268.15 19.4175L267.533 18.6302ZM270.912 16.3971L270.431 15.5204L270.419 15.5272L270.912 16.3971ZM275.121 14.5469L274.796 13.601V13.601L275.121 14.5469ZM286.025 15.3763L285.465 16.2047L285.477 16.2134L285.49 16.2216L286.025 15.3763ZM289.404 19.7786L288.455 20.0947L288.458 20.1011L289.404 19.7786ZM290.361 48.6172V49.6172H291.361V48.6172H290.361ZM280.923 48.6172H279.923V49.6172H280.923V48.6172ZM280.286 24.5L279.402 24.9677L279.412 24.9875L279.424 25.0068L280.286 24.5ZM278.628 22.8411L278.16 23.7248L278.628 22.8411ZM272.124 23.0964L272.496 24.0248L272.503 24.0217L272.511 24.0185L272.124 23.0964ZM268.681 24.9466L268.102 24.1308L267.573 24.5061L267.7 25.1426L268.681 24.9466ZM268.872 26.2227L267.877 26.3221L267.878 26.333L268.872 26.2227ZM268.936 48.6172V49.6172H269.936V48.6172H268.936ZM259.499 48.6172H258.499V49.6172H259.499V48.6172ZM258.861 24.5L257.977 24.9677L257.988 24.9875L257.999 25.0068L258.861 24.5ZM257.203 22.8411L257.671 21.9575V21.9575L257.203 22.8411ZM251.974 22.5859L251.732 21.6158L251.72 21.6189L251.974 22.5859ZM249.615 23.4792L249.168 22.5848L249.157 22.59L249.147 22.5955L249.615 23.4792ZM247.511 24.819L246.911 24.0192L246.511 24.3192V24.819H247.511ZM247.511 48.6172V49.6172H248.511V48.6172H247.511ZM302.773 47.4688L302.36 48.3796L302.368 48.3829L302.375 48.386L302.773 47.4688ZM297.863 42.1094L296.93 42.4671L296.932 42.4739L296.935 42.4806L297.863 42.1094ZM302.518 15.3763L302.099 14.4684V14.4684L302.518 15.3763ZM319.671 14.8659L319.987 13.9173V13.9173L319.671 14.8659ZM324.07 18.4388L323.185 18.9034L323.189 18.912L323.194 18.9205L324.07 18.4388ZM324.07 31.1354L323.246 30.5691L323.242 30.5748L324.07 31.1354ZM320.245 34.0065L320.561 34.9551L320.572 34.9515L320.583 34.9476L320.245 34.0065ZM305.77 34.8359V33.8359H304.72L304.771 34.8846L305.77 34.8359ZM306.535 39.0469L305.607 39.4181L305.616 39.4409L305.626 39.4633L306.535 39.0469ZM309.022 41.2799L308.656 42.2106L308.676 42.2184L308.696 42.2253L309.022 41.2799ZM324.326 41.918H325.326V40.918H324.326V41.918ZM324.326 47.4688L324.527 48.4483L325.326 48.2843V47.4688H324.326ZM318.842 48.4896L318.992 49.4782L319.001 49.4769L319.01 49.4754L318.842 48.4896ZM305.643 29.2214H304.643V30.2214H305.643V29.2214ZM316.546 22.7773L315.652 23.2243L315.657 23.2347L315.662 23.245L316.546 22.7773ZM314.761 21.1823L314.373 22.1038L314.394 22.1127L314.415 22.1206L314.761 21.1823ZM308.066 21.4375L308.548 22.3136L308.564 22.3045L308.58 22.2949L308.066 21.4375ZM306.216 23.9896L307.172 24.2858L306.216 23.9896ZM340.656 48.8724L340.725 47.8748L340.708 47.8736L340.691 47.873L340.656 48.8724ZM336.958 48.6172L336.855 49.6119L336.958 48.6172ZM333.515 48.1706L333.318 49.1511L333.337 49.1549L333.356 49.158L333.515 48.1706ZM330.836 47.4688H329.836V48.1761L330.503 48.4117L330.836 47.4688ZM330.836 41.918V40.918H329.836V41.918H330.836ZM348.18 41.7266L348.405 42.7009L348.43 42.6951L348.455 42.688L348.18 41.7266ZM349.456 40.8971L348.636 40.3239L348.63 40.3332L348.623 40.3427L349.456 40.8971ZM349.073 36.0482L349.719 35.285L349.073 36.0482ZM335.364 34.4531L335.718 33.5179L335.364 34.4531ZM331.602 31.5182L330.765 32.0667L330.771 32.0757L330.777 32.0845L331.602 31.5182ZM331.538 18.5664L332.406 19.0623V19.0623L331.538 18.5664ZM348.499 14.2917L348.392 15.2859L348.406 15.2874L348.42 15.2886L348.499 14.2917ZM353.026 14.8659L352.847 15.8497L352.864 15.8528L352.881 15.8552L353.026 14.8659ZM356.47 15.6315H357.47V14.9222L356.8 14.6877L356.47 15.6315ZM356.47 21.1823V22.1823H357.47V21.1823H356.47ZM339.317 21.8203L339.832 22.6777L339.852 22.6654L339.872 22.6522L339.317 21.8203ZM338.807 26.7969L338.017 27.4106L338.035 27.4334L338.054 27.4552L338.807 26.7969ZM340.146 27.5625L339.871 28.524L339.91 28.5351L339.95 28.5431L340.146 27.5625ZM355.577 30.1784L354.86 30.8758L354.87 30.8853L354.879 30.8947L355.577 30.1784ZM356.342 45.2995L355.566 44.6691L355.564 44.672L356.342 45.2995ZM351.624 48.1706L351.885 49.1359L351.898 49.1321L351.624 48.1706ZM15.3672 48C14.1574 48 12.9036 47.9583 11.6058 47.8745L11.4769 49.8703C12.8147 49.9567 14.1115 50 15.3672 50V48ZM11.5747 47.873C10.3208 47.8311 9.02306 47.7474 7.68134 47.6216L7.49455 49.6128C8.87345 49.7422 10.2113 49.8286 11.508 49.8718L11.5747 47.873ZM7.71599 47.6254C6.40223 47.4558 5.15271 47.2863 3.96736 47.1168L3.68435 49.0967C4.87954 49.2676 6.13808 49.4383 7.4599 49.609L7.71599 47.6254ZM4.00175 47.1224C2.83242 46.9134 1.7745 46.6848 0.826441 46.4374L0.321316 48.3725C1.3287 48.6355 2.43876 48.8748 3.64996 49.0912L4.00175 47.1224ZM1.57388 47.4049V39.9401H-0.426122V47.4049H1.57388ZM0.474316 40.9351C1.76864 41.0646 3.23006 41.172 4.85726 41.2577L4.96244 39.2605C3.35891 39.1761 1.92969 39.0708 0.673441 38.9451L0.474316 40.9351ZM4.85726 41.2577C6.4827 41.3433 8.17126 41.4075 9.92283 41.4502L9.97162 39.4508C8.23742 39.4085 6.56772 39.345 4.96244 39.2605L4.85726 41.2577ZM9.92283 41.4502C11.673 41.4929 13.339 41.5143 14.9208 41.5143V39.5143C13.3569 39.5143 11.7072 39.4932 9.97162 39.4508L9.92283 41.4502ZM14.9208 41.5143C16.5842 41.5143 18.0427 41.3834 19.2826 41.1077L18.8485 39.1553C17.7928 39.3901 16.4882 39.5143 14.9208 39.5143V41.5143ZM19.3082 41.1016C20.6272 40.7717 21.7325 40.2066 22.5371 39.3478L21.0776 37.9803C20.607 38.4827 19.8844 38.8959 18.8228 39.1614L19.3082 41.1016ZM22.5574 39.3255C23.3971 38.3732 23.7638 37.1362 23.7638 35.7292H21.7638C21.7638 36.7891 21.4929 37.5087 21.0573 38.0027L22.5574 39.3255ZM23.7638 35.7292V34.0065H21.7638V35.7292H23.7638ZM23.7638 34.0065C23.7638 32.3914 23.2656 31.015 22.1364 30.0547L20.8407 31.5782C21.4119 32.064 21.7638 32.8143 21.7638 34.0065H23.7638ZM22.1765 30.0907C21.1228 29.0918 19.6705 28.668 17.9815 28.668V30.668C19.3532 30.668 20.239 31.0098 20.8006 31.5422L22.1765 30.0907ZM17.9815 28.668H13.9644V30.668H17.9815V28.668ZM13.9644 28.668C9.58764 28.668 6.37982 27.716 4.19904 25.9551L2.94255 27.5111C5.60786 29.6633 9.3291 30.668 13.9644 30.668V28.668ZM4.21389 25.9673C2.15796 24.2407 1 21.2155 1 16.5885H-1C-1 21.4894 0.222576 25.2271 2.9277 27.4989L4.21389 25.9673ZM1 16.5885V14.2917H-1V16.5885H1ZM1 14.2917C1 9.88559 2.25772 6.86419 4.58136 4.98917L3.32541 3.43271C0.377872 5.81116 -1 9.51024 -1 14.2917H1ZM4.58136 4.98917C6.97511 3.05758 10.4809 2.02083 15.2397 2.02083V0.0208316C10.2212 0.0208316 6.20284 1.11082 3.32541 3.43271L4.58136 4.98917ZM15.2397 2.02083C16.95 2.02083 18.6384 2.10431 20.305 2.27107L20.5041 0.281009C18.77 0.107494 17.0151 0.0208316 15.2397 0.0208316V2.02083ZM20.3074 2.27131C22.0313 2.43959 23.668 2.64965 25.218 2.90115L25.5383 0.92697C23.9427 0.668057 22.2637 0.45277 20.5017 0.280771L20.3074 2.27131ZM25.2477 2.9055C26.8441 3.11569 28.1952 3.34509 29.3058 3.59205L29.7399 1.63973C28.555 1.37626 27.143 1.13778 25.5087 0.922616L25.2477 2.9055ZM28.5229 2.61589V10.0807H30.5229V2.61589H28.5229ZM29.588 9.08285C27.6275 8.95492 25.434 8.82707 23.0077 8.6993L22.9025 10.6965C25.3224 10.824 27.5073 10.9513 29.4577 11.0786L29.588 9.08285ZM23.0087 8.69935C20.6132 8.57094 18.3846 8.50651 16.3237 8.50651V10.5065C18.3436 10.5065 20.536 10.5697 22.9016 10.6965L23.0087 8.69935ZM16.3237 8.50651C14.8114 8.50651 13.4283 8.66211 12.1829 8.98517L12.6851 10.9211C13.7353 10.6487 14.9453 10.5065 16.3237 10.5065V8.50651ZM12.209 8.97876C10.9196 9.27651 9.85338 9.89364 9.09393 10.8707L10.673 12.0981C11.1038 11.5439 11.738 11.1402 12.659 10.9275L12.209 8.97876ZM9.09393 10.8707C8.3132 11.8751 7.99076 13.2086 7.99076 14.7383H9.99076C9.99076 13.4607 10.2635 12.6249 10.673 12.0981L9.09393 10.8707ZM7.99076 14.7383V16.0143H9.99076V14.7383H7.99076ZM7.99076 16.0143C7.99076 17.8506 8.51339 19.3976 9.7819 20.3783L11.0053 18.7961C10.4033 18.3307 9.99076 17.4957 9.99076 16.0143H7.99076ZM9.7819 20.3783C10.965 21.2931 12.6029 21.6719 14.5383 21.6719V19.6719C12.8178 19.6719 11.6926 19.3276 11.0053 18.7961L9.7819 20.3783ZM14.5383 21.6719H19.193V19.6719H14.5383V21.6719ZM19.193 21.6719C21.9236 21.6719 24.0731 22.1824 25.7043 23.1313L26.71 21.4025C24.6853 20.2247 22.1588 19.6719 19.193 19.6719V21.6719ZM25.728 23.1447C27.4255 24.0712 28.6558 25.3467 29.4531 26.9803L31.2505 26.103C30.2624 24.0786 28.7295 22.5044 26.6862 21.3892L25.728 23.1447ZM29.4614 26.9969C30.3151 28.6665 30.7546 30.591 30.7546 32.7943H32.7546C32.7546 30.3187 32.2589 28.0748 31.2422 26.0864L29.4614 26.9969ZM30.7546 32.7943V35.474H32.7546V32.7943H30.7546ZM30.7546 35.474C30.7546 39.0706 30.0692 41.6593 28.8377 43.377L30.4631 44.5423C32.0372 42.3467 32.7546 39.2784 32.7546 35.474H30.7546ZM28.8293 43.3888C27.6098 45.1429 25.8951 46.3553 23.6302 47.0196L24.193 48.9388C26.8592 48.1568 28.9704 46.6895 30.4715 44.5305L28.8293 43.3888ZM23.6412 47.0164C21.328 47.6661 18.5748 48 15.3672 48V50C18.706 50 21.6492 49.6533 24.182 48.9419L23.6412 47.0164ZM45.5192 48C43.1369 48 41.2937 47.3037 39.8945 45.9774L38.5186 47.4289C40.3502 49.1651 42.7154 50 45.5192 50V48ZM39.8945 45.9774C38.5215 44.6758 37.7835 42.8363 37.7835 40.3229H35.7835C35.7835 43.2539 36.6609 45.6679 38.5186 47.4289L39.8945 45.9774ZM37.7835 40.3229V37.2604H35.7835V40.3229H37.7835ZM37.7835 37.2604C37.7835 34.9315 38.5901 33.0794 40.1974 31.6207L38.8533 30.1397C36.8048 31.9988 35.7835 34.4 35.7835 37.2604H37.7835ZM40.2067 31.6122C41.7705 30.1566 44.3203 29.3281 48.0698 29.3281V27.3281C44.0826 27.3281 40.9361 28.201 38.8441 30.1482L40.2067 31.6122ZM48.0698 29.3281H56.8055V27.3281H48.0698V29.3281ZM57.8055 28.3281V25.9674H55.8055V28.3281H57.8055ZM57.8055 25.9674C57.8055 24.7919 57.595 23.7362 57.1033 22.8615L55.3599 23.8416C55.6334 24.328 55.8055 25.0162 55.8055 25.9674H57.8055ZM57.1155 22.8839C56.5648 21.8429 55.5645 21.2023 54.3334 20.8574L53.7939 22.7832C54.6882 23.0338 55.1333 23.414 55.3477 23.8192L57.1155 22.8839ZM54.38 20.8717C53.2008 20.4784 51.4945 20.3099 49.3451 20.3099V22.3099C51.4466 22.3099 52.886 22.4817 53.7472 22.7689L54.38 20.8717ZM49.3451 20.3099H39.079V22.3099H49.3451V20.3099ZM40.079 21.3099V15.8229H38.079V21.3099H40.079ZM39.3733 16.7786C40.9828 16.2831 42.8541 15.8453 44.9917 15.4678L44.6439 13.4983C42.4455 13.8865 40.491 14.3419 38.7848 14.8672L39.3733 16.7786ZM44.9885 15.4684C47.1258 15.0983 49.7224 14.9089 52.7883 14.9089V12.9089C49.6479 12.9089 46.9308 13.1023 44.6472 13.4977L44.9885 15.4684ZM52.7883 14.9089C55.5626 14.9089 57.8701 15.241 59.735 15.8763L60.3799 13.9831C58.249 13.2572 55.7104 12.9089 52.7883 12.9089V14.9089ZM59.7411 15.8783C61.5836 16.4929 62.9126 17.5252 63.7967 18.9627L65.5003 17.9149C64.3439 16.0347 62.6122 14.7276 60.3739 13.9811L59.7411 15.8783ZM63.8065 18.9782C64.7272 20.4154 65.2426 22.498 65.2426 25.3294H67.2426C67.2426 22.2911 66.6953 19.7799 65.4905 17.8994L63.8065 18.9782ZM65.2426 25.3294V48.6172H67.2426V25.3294H65.2426ZM66.2426 47.6172H58.7822V49.6172H66.2426V47.6172ZM59.7039 48.2293L58.1736 44.5926L56.3301 45.3683L57.8605 49.0051L59.7039 48.2293ZM56.4991 44.3222C56.3085 44.5402 55.9094 44.858 55.2143 45.2671L56.2287 46.9907C56.979 46.5491 57.6001 46.1013 58.0046 45.6388L56.4991 44.3222ZM55.2143 45.2671C54.5353 45.6667 53.6799 46.0959 52.6405 46.5535L53.4463 48.384C54.5324 47.9058 55.4624 47.4418 56.2287 46.9907L55.2143 45.2671ZM52.6586 46.5458C51.7017 46.9447 50.5894 47.2902 49.316 47.578L49.7568 49.5288C51.1189 49.221 52.3446 48.8435 53.4282 48.3917L52.6586 46.5458ZM49.309 47.5796C48.1133 47.8587 46.8509 48 45.5192 48V50C46.9932 50 48.4088 49.8435 49.7637 49.5272L49.309 47.5796ZM50.3015 43.4284C50.792 43.4284 51.3156 43.3794 51.8689 43.2872L51.5399 41.3144C51.0729 41.3923 50.6612 41.4284 50.3015 41.4284V43.4284ZM51.9293 43.2751C52.482 43.1475 53.0346 43.0199 53.5872 42.8923L53.1372 40.9436C52.5846 41.0712 52.032 41.1988 51.4794 41.3264L51.9293 43.2751ZM53.6371 42.8794C54.2294 42.7101 54.7568 42.5624 55.2196 42.4361L54.6931 40.5066C54.2207 40.6355 53.6854 40.7855 53.0874 40.9565L53.6371 42.8794ZM55.2727 42.42C55.7944 42.246 56.2278 42.0871 56.562 41.9438L55.7737 40.1057C55.5128 40.2176 55.1385 40.3565 54.6399 40.5227L55.2727 42.42ZM56.5192 41.961C56.8424 41.8397 57.1107 41.735 57.2529 41.6639L56.3581 39.8752C56.3623 39.8731 56.3535 39.8776 56.3237 39.8903C56.2963 39.9021 56.2591 39.9175 56.2107 39.9368C56.1139 39.9756 55.9832 40.0259 55.8166 40.0885L56.5192 41.961ZM57.8055 40.7695V32.7943H55.8055V40.7695H57.8055ZM56.7389 31.7965L51.0002 32.1793L51.1333 34.1749L56.8721 33.7921L56.7389 31.7965ZM50.99 32.18C49.2235 32.316 47.7396 32.7786 46.7014 33.7081L48.0354 35.1982C48.6125 34.6815 49.5942 34.2934 51.1435 34.1741L50.99 32.18ZM46.6815 33.7263C45.682 34.6709 45.2206 35.9309 45.2206 37.388H47.2206C47.2206 36.3782 47.5244 35.6815 48.0552 35.1799L46.6815 33.7263ZM45.2206 37.388V38.7917H47.2206V37.388H45.2206ZM45.2206 38.7917C45.2206 39.7712 45.4162 40.6687 45.8789 41.421L47.5825 40.3733C47.3651 40.0197 47.2206 39.5136 47.2206 38.7917H45.2206ZM45.9084 41.4661C46.3937 42.1675 47.0284 42.6962 47.8032 43.0284L48.5914 41.1903C48.176 41.0122 47.833 40.7327 47.5531 40.3282L45.9084 41.4661ZM47.8809 43.058C48.6336 43.309 49.4435 43.4284 50.3015 43.4284V41.4284C49.6293 41.4284 49.0363 41.3351 48.5137 41.1607L47.8809 43.058ZM74.308 48.6172V0H72.308V48.6172H74.308ZM73.308 1H82.7451V-1H73.308V1ZM81.7451 0V17.8646H83.7451V0H81.7451ZM83.3829 18.6348C84.5239 17.6899 86.0303 16.7991 87.9263 15.9743L87.1285 14.1403C85.1136 15.0169 83.4318 15.9976 82.1073 17.0944L83.3829 18.6348ZM87.9192 15.9774C89.7986 15.1771 91.7062 14.7813 93.6488 14.7813V12.7813C91.4255 12.7813 89.2521 13.2361 87.1357 14.1372L87.9192 15.9774ZM93.6488 14.7813C96.1221 14.7813 97.9675 15.2696 99.279 16.1444L100.389 14.4806C98.6397 13.3138 96.3617 12.7813 93.6488 12.7813V14.7813ZM99.279 16.1444C100.623 17.0411 101.601 18.2914 102.212 19.9358L104.087 19.2387C103.338 17.2251 102.105 15.6256 100.389 14.4806L99.279 16.1444ZM102.212 19.9358C102.842 21.6299 103.17 23.6342 103.17 25.9674H105.17C105.17 23.4518 104.817 21.2026 104.087 19.2387L102.212 19.9358ZM103.17 25.9674V48.6172H105.17V25.9674H103.17ZM104.17 47.6172H94.7328V49.6172H104.17V47.6172ZM95.7328 48.6172V27.1797H93.7328V48.6172H95.7328ZM95.7328 27.1797C95.7328 25.9507 95.497 24.8476 94.9572 23.9294L93.2331 24.943C93.5435 25.471 93.7328 26.1968 93.7328 27.1797H95.7328ZM94.9572 23.9294C94.4355 23.042 93.7137 22.3669 92.7995 21.9364L91.9475 23.7459C92.4787 23.996 92.9046 24.3842 93.2331 24.943L94.9572 23.9294ZM92.8416 21.9575C91.9491 21.4847 90.9321 21.2669 89.8229 21.2669V23.2669C90.6692 23.2669 91.3526 23.432 91.9054 23.7248L92.8416 21.9575ZM89.8229 21.2669C88.8334 21.2669 87.8651 21.4086 86.9211 21.692L87.4961 23.6075C88.2525 23.3805 89.0271 23.2669 89.8229 23.2669V21.2669ZM86.954 21.6827C86.0781 21.9133 85.2271 22.2358 84.4019 22.6486L85.2968 24.4373C86.0018 24.0845 86.7238 23.8115 87.4632 23.6168L86.954 21.6827ZM84.3812 22.6593C83.6242 23.0603 82.8899 23.5056 82.1783 23.9951L83.3119 25.6429C83.9606 25.1966 84.6291 24.7913 85.3174 24.4266L84.3812 22.6593ZM81.7451 24.819V48.6172H83.7451V24.819H81.7451ZM82.7451 47.6172H73.308V49.6172H82.7451V47.6172ZM174.385 47.9362C171.526 47.9362 169.269 47.4042 167.552 46.4116L166.551 48.1431C168.66 49.3623 171.292 49.9362 174.385 49.9362V47.9362ZM167.575 46.4252C165.872 45.3794 164.528 43.9056 163.543 41.9741L161.761 42.8826C162.902 45.1195 164.491 46.8784 166.529 48.1295L167.575 46.4252ZM163.547 41.9814C162.542 39.9704 161.824 37.5468 161.41 34.6926L159.431 34.9793C159.868 37.9948 160.637 40.6329 161.758 42.8754L163.547 41.9814ZM161.41 34.6926C160.993 31.8141 160.783 28.5879 160.783 25.0104H158.783C158.783 28.6639 158.998 31.988 159.431 34.9793L161.41 34.6926ZM160.783 25.0104C160.783 21.2643 161.014 17.9361 161.472 15.021L159.496 14.7107C159.019 17.7505 158.783 21.1854 158.783 25.0104H160.783ZM161.47 15.0347C161.964 12.1489 162.801 9.7646 163.955 7.85413L162.242 6.82035C160.931 8.99321 160.024 11.628 159.499 14.697L161.47 15.0347ZM163.952 7.85917C165.123 5.94468 166.737 4.50211 168.818 3.52022L167.964 1.71155C165.539 2.85639 163.625 4.5614 162.246 6.81531L163.952 7.85917ZM168.825 3.51679C170.942 2.49686 173.713 1.95703 177.19 1.95703V-0.0429697C173.526 -0.0429697 170.431 0.523108 167.957 1.71498L168.825 3.51679ZM177.19 1.95703C179.333 1.95703 181.277 2.04114 183.026 2.20773L183.215 0.216749C181.393 0.0430627 179.384 -0.0429697 177.19 -0.0429697V1.95703ZM183.028 2.20794C184.822 2.37491 186.505 2.62482 188.079 2.95639L188.492 0.999341C186.835 0.650355 185.075 0.389842 183.213 0.216543L183.028 2.20794ZM188.104 2.9613C189.694 3.25442 191.285 3.61046 192.877 4.02954L193.386 2.09546C191.747 1.66384 190.107 1.29679 188.467 0.994431L188.104 2.9613ZM192.132 3.0625V10.3359H194.132V3.0625H192.132ZM193.273 9.346C192.354 9.21458 191.142 9.0851 189.646 8.95678L189.475 10.9495C190.955 11.0764 192.124 11.2021 192.99 11.3259L193.273 9.346ZM189.646 8.95678C188.143 8.82785 186.472 8.72074 184.634 8.6352L184.541 10.633C186.358 10.7176 188.003 10.8232 189.475 10.9495L189.646 8.95678ZM184.657 8.63654C182.804 8.50722 180.889 8.44271 178.912 8.44271V10.4427C180.846 10.4427 182.714 10.5058 184.517 10.6317L184.657 8.63654ZM178.912 8.44271C176.137 8.44271 173.86 8.94541 172.219 10.0899L173.363 11.7304C174.527 10.9183 176.331 10.4427 178.912 10.4427V8.44271ZM172.224 10.0863C170.581 11.2163 169.551 13.1032 169.009 15.5423L170.961 15.9759C171.44 13.8213 172.28 12.4755 173.357 11.734L172.224 10.0863ZM169.01 15.5384C168.476 17.8985 168.22 21.0887 168.22 25.0742H170.22C170.22 21.1483 170.474 18.1284 170.96 15.9798L169.01 15.5384ZM168.22 25.0742C168.22 28.1592 168.348 30.7161 168.611 32.7321L170.594 32.4736C170.347 30.5765 170.22 28.1143 170.22 25.0742H168.22ZM168.614 32.7532C168.921 34.7738 169.414 36.4547 170.131 37.7458L171.88 36.775C171.321 35.7692 170.879 34.3451 170.591 32.4525L168.614 32.7532ZM170.139 37.7599C170.866 39.02 171.841 39.9641 173.075 40.5301L173.909 38.7121C173.103 38.3424 172.42 37.7126 171.872 36.7609L170.139 37.7599ZM173.121 40.5495C174.334 41.0351 175.765 41.2591 177.382 41.2591V39.2591C175.938 39.2591 174.776 39.0577 173.864 38.6927L173.121 40.5495ZM177.382 41.2591C179.182 41.2591 180.902 41.1054 182.541 40.7951L182.169 38.8299C180.663 39.1151 179.068 39.2591 177.382 39.2591V41.2591ZM182.537 40.7959C184.17 40.4949 185.508 40.1892 186.536 39.8759L185.954 37.9626C185.027 38.2448 183.772 38.5346 182.174 38.8291L182.537 40.7959ZM187.245 38.9193V29.7318H185.245V38.9193H187.245ZM186.245 28.7318H177.764V30.7318H186.245V28.7318ZM178.764 29.7318V22.2669H176.764V29.7318H178.764ZM177.906 23.2569C178.767 23.1337 179.805 23.0295 181.021 22.9455L180.884 20.9503C179.635 21.0365 178.547 21.1449 177.623 21.277L177.906 23.2569ZM181.021 22.9455C182.241 22.8614 183.504 22.7982 184.811 22.756L184.746 20.757C183.417 20.7999 182.129 20.8643 180.884 20.9503L181.021 22.9455ZM184.841 22.7546C186.182 22.6707 187.458 22.6289 188.668 22.6289V20.6289C187.412 20.6289 186.095 20.6722 184.716 20.7585L184.841 22.7546ZM188.668 22.6289C190.018 22.6289 191.216 22.65 192.263 22.6919L192.343 20.6935C191.263 20.6503 190.038 20.6289 188.668 20.6289V22.6289ZM192.303 22.6927C193.383 22.6927 194.35 22.7343 195.205 22.8158L195.394 20.8248C194.464 20.7362 193.433 20.6927 192.303 20.6927V22.6927ZM194.299 21.8203V48.6172H196.299V21.8203H194.299ZM195.299 47.6172H188.222V49.6172H195.299V47.6172ZM189.15 48.246L187.875 45.0559L186.018 45.7983L187.293 48.9884L189.15 48.246ZM186.44 44.5645C185.285 45.2423 183.608 45.9835 181.38 46.7827L182.055 48.6652C184.333 47.8481 186.142 47.0581 187.452 46.2896L186.44 44.5645ZM181.38 46.7827C179.246 47.5483 176.917 47.9362 174.385 47.9362V49.9362C177.124 49.9362 179.684 49.516 182.055 48.6652L181.38 46.7827ZM210.285 48C207.903 48 206.06 47.3037 204.66 45.9774L203.284 47.4289C205.116 49.1651 207.481 50 210.285 50V48ZM204.66 45.9774C203.287 44.6758 202.549 42.8363 202.549 40.3229H200.549C200.549 43.2539 201.427 45.6679 203.284 47.4289L204.66 45.9774ZM202.549 40.3229V37.2604H200.549V40.3229H202.549ZM202.549 37.2604C202.549 34.9315 203.356 33.0794 204.963 31.6207L203.619 30.1397C201.571 31.9988 200.549 34.4001 200.549 37.2604H202.549ZM204.973 31.6122C206.536 30.1566 209.086 29.3281 212.836 29.3281V27.3281C208.848 27.3281 205.702 28.201 203.61 30.1482L204.973 31.6122ZM212.836 29.3281H221.571V27.3281H212.836V29.3281ZM222.571 28.3281V25.9674H220.571V28.3281H222.571ZM222.571 25.9674C222.571 24.7919 222.361 23.7362 221.869 22.8615L220.126 23.8416C220.399 24.328 220.571 25.0162 220.571 25.9674H222.571ZM221.881 22.8839C221.331 21.8429 220.33 21.2023 219.099 20.8574L218.56 22.7832C219.454 23.0338 219.899 23.414 220.114 23.8192L221.881 22.8839ZM219.146 20.8717C217.967 20.4784 216.26 20.3099 214.111 20.3099V22.3099C216.213 22.3099 217.652 22.4817 218.513 22.7689L219.146 20.8717ZM214.111 20.3099H203.845V22.3099H214.111V20.3099ZM204.845 21.3099V15.8229H202.845V21.3099H204.845ZM204.139 16.7786C205.749 16.2831 207.62 15.8453 209.758 15.4678L209.41 13.4983C207.211 13.8865 205.257 14.3419 203.551 14.8672L204.139 16.7786ZM209.754 15.4684C211.892 15.0983 214.488 14.9089 217.554 14.9089V12.9089C214.414 12.9089 211.697 13.1023 209.413 13.4977L209.754 15.4684ZM217.554 14.9089C220.328 14.9089 222.636 15.241 224.501 15.8763L225.146 13.9831C223.015 13.2572 220.476 12.9089 217.554 12.9089V14.9089ZM224.507 15.8783C226.349 16.4929 227.678 17.5252 228.563 18.9627L230.266 17.9149C229.11 16.0347 227.378 14.7276 225.14 13.9811L224.507 15.8783ZM228.572 18.9782C229.493 20.4154 230.008 22.498 230.008 25.3294H232.008C232.008 22.2911 231.461 19.7799 230.256 17.8994L228.572 18.9782ZM230.008 25.3294V48.6172H232.008V25.3294H230.008ZM231.008 47.6172H223.548V49.6172H231.008V47.6172ZM224.47 48.2293L222.939 44.5926L221.096 45.3683L222.626 49.0051L224.47 48.2293ZM221.265 44.3222C221.074 44.5402 220.675 44.858 219.98 45.2671L220.995 46.9907C221.745 46.5491 222.366 46.1013 222.77 45.6388L221.265 44.3222ZM219.98 45.2671C219.301 45.6667 218.446 46.0959 217.406 46.5535L218.212 48.384C219.298 47.9058 220.228 47.4418 220.995 46.9907L219.98 45.2671ZM217.424 46.5458C216.468 46.9447 215.355 47.2902 214.082 47.578L214.523 49.5288C215.885 49.221 217.111 48.8435 218.194 48.3917L217.424 46.5458ZM214.075 47.5796C212.879 47.8587 211.617 48 210.285 48V50C211.759 50 213.175 49.8435 214.53 49.5272L214.075 47.5796ZM215.067 43.4284C215.558 43.4284 216.081 43.3794 216.635 43.2872L216.306 41.3144C215.839 41.3923 215.427 41.4284 215.067 41.4284V43.4284ZM216.695 43.2751C217.248 43.1475 217.8 43.0199 218.353 42.8923L217.903 40.9436C217.35 41.0712 216.798 41.1988 216.245 41.3264L216.695 43.2751ZM218.403 42.8794C218.995 42.7101 219.523 42.5624 219.985 42.4361L219.459 40.5066C218.987 40.6355 218.451 40.7855 217.853 40.9565L218.403 42.8794ZM220.039 42.42C220.56 42.246 220.994 42.0871 221.328 41.9438L220.54 40.1057C220.279 40.2176 219.904 40.3565 219.406 40.5227L220.039 42.42ZM221.285 41.961C221.608 41.8397 221.877 41.735 222.019 41.6639L221.124 39.8752C221.128 39.8731 221.119 39.8776 221.09 39.8903C221.062 39.9021 221.025 39.9175 220.977 39.9368C220.88 39.9756 220.749 40.0259 220.582 40.0885L221.285 41.961ZM222.571 40.7695V32.7943H220.571V40.7695H222.571ZM221.505 31.7965L215.766 32.1793L215.899 34.1749L221.638 33.7921L221.505 31.7965ZM215.756 32.18C213.989 32.316 212.505 32.7786 211.467 33.7081L212.801 35.1982C213.378 34.6815 214.36 34.2934 215.909 34.1741L215.756 32.18ZM211.447 33.7263C210.448 34.6709 209.986 35.9309 209.986 37.388H211.986C211.986 36.3782 212.29 35.6815 212.821 35.1799L211.447 33.7263ZM209.986 37.388V38.7917H211.986V37.388H209.986ZM209.986 38.7917C209.986 39.7712 210.182 40.6687 210.645 41.421L212.348 40.3733C212.131 40.0197 211.986 39.5136 211.986 38.7917H209.986ZM210.674 41.4661C211.16 42.1675 211.794 42.6962 212.569 43.0284L213.357 41.1903C212.942 41.0122 212.599 40.7327 212.319 40.3282L210.674 41.4661ZM212.647 43.058C213.399 43.309 214.209 43.4284 215.067 43.4284V41.4284C214.395 41.4284 213.802 41.3351 213.28 41.1607L212.647 43.058ZM239.074 48.6172V14.3555H237.074V48.6172H239.074ZM238.074 15.3555H245.853V13.3555H238.074V15.3555ZM244.949 14.7826L246.607 18.2918L248.415 17.4374L246.757 13.9283L244.949 14.7826ZM248.108 18.6672C249.539 17.6035 251.095 16.6811 252.778 15.9007L251.936 14.0863C250.134 14.9222 248.459 15.9138 246.914 17.062L248.108 18.6672ZM252.769 15.9045C254.391 15.1707 256.43 14.7813 258.925 14.7813V12.7813C256.233 12.7813 253.894 13.2 251.945 14.0825L252.769 15.9045ZM258.925 14.7813C260.959 14.7813 262.544 15.2003 263.744 15.9646L264.818 14.2776C263.213 13.2554 261.226 12.7813 258.925 12.7813V14.7813ZM263.755 15.9718C265.051 16.7725 266.003 17.8059 266.638 19.0772L268.427 18.1832C267.617 16.5622 266.402 15.2561 264.807 14.2704L263.755 15.9718ZM268.15 19.4175C269.082 18.6873 270.166 17.9699 271.406 17.267L270.419 15.5272C269.108 16.2705 267.939 17.0418 266.916 17.8429L268.15 19.4175ZM271.394 17.2738C272.659 16.5795 274.009 15.9855 275.445 15.4928L274.796 13.601C273.257 14.1291 271.802 14.7686 270.431 15.5204L271.394 17.2738ZM275.445 15.4928C276.838 15.015 278.195 14.7813 279.521 14.7813V12.7813C277.956 12.7813 276.379 13.0579 274.796 13.601L275.445 15.4928ZM279.521 14.7813C282.171 14.7813 284.116 15.2934 285.465 16.2047L286.585 14.5479C284.787 13.3325 282.397 12.7813 279.521 12.7813V14.7813ZM285.49 16.2216C286.899 17.112 287.886 18.3864 288.455 20.0947L290.353 19.4626C289.647 17.3427 288.381 15.6823 286.559 14.531L285.49 16.2216ZM288.458 20.1011C289.051 21.8436 289.361 23.9415 289.361 26.4141H291.361C291.361 23.7825 291.032 21.4567 290.351 19.4561L288.458 20.1011ZM289.361 26.4141V48.6172H291.361V26.4141H289.361ZM290.361 47.6172H280.923V49.6172H290.361V47.6172ZM281.923 48.6172V27.2435H279.923V48.6172H281.923ZM281.923 27.2435C281.923 26.0145 281.688 24.9114 281.148 23.9932L279.424 25.0068C279.734 25.5348 279.923 26.2606 279.923 27.2435H281.923ZM281.17 24.0323C280.693 23.1321 279.996 22.4342 279.096 21.9575L278.16 23.7248C278.705 24.0137 279.113 24.4217 279.402 24.9677L281.17 24.0323ZM279.096 21.9575C278.198 21.4816 277.157 21.2669 276.014 21.2669V23.2669C276.91 23.2669 277.613 23.435 278.16 23.7248L279.096 21.9575ZM276.014 21.2669C274.59 21.2669 273.163 21.5761 271.737 22.1742L272.511 24.0185C273.721 23.5107 274.886 23.2669 276.014 23.2669V21.2669ZM271.752 22.168C270.411 22.7048 269.193 23.3579 268.102 24.1308L269.259 25.7625C270.209 25.0891 271.286 24.5088 272.496 24.0248L271.752 22.168ZM267.7 25.1426C267.779 25.5365 267.838 25.9296 267.877 26.3221L269.867 26.1232C269.821 25.665 269.753 25.2074 269.661 24.7506L267.7 25.1426ZM267.878 26.333C267.916 26.6756 267.936 27.0427 267.936 27.4349H269.936C269.936 26.9764 269.913 26.5353 269.866 26.1123L267.878 26.333ZM267.936 27.4349V48.6172H269.936V27.4349H267.936ZM268.936 47.6172H259.499V49.6172H268.936V47.6172ZM260.499 48.6172V27.2435H258.499V48.6172H260.499ZM260.499 27.2435C260.499 26.0145 260.263 24.9114 259.723 23.9932L257.999 25.0068C258.309 25.5348 258.499 26.2606 258.499 27.2435H260.499ZM259.745 24.0323C259.269 23.1321 258.571 22.4342 257.671 21.9575L256.735 23.7248C257.28 24.0137 257.688 24.4217 257.977 24.9677L259.745 24.0323ZM257.671 21.9575C256.773 21.4816 255.733 21.2669 254.589 21.2669V23.2669C255.486 23.2669 256.188 23.435 256.735 23.7248L257.671 21.9575ZM254.589 21.2669C253.616 21.2669 252.663 21.3829 251.732 21.6158L252.217 23.556C252.987 23.3636 253.776 23.2669 254.589 23.2669V21.2669ZM251.72 21.6189C250.844 21.8495 249.993 22.172 249.168 22.5848L250.063 24.3735C250.768 24.0207 251.49 23.7477 252.229 23.553L251.72 21.6189ZM249.147 22.5955C248.376 23.0037 247.631 23.4787 246.911 24.0192L248.111 25.6188C248.751 25.1385 249.409 24.7202 250.083 24.3628L249.147 22.5955ZM246.511 24.819V48.6172H248.511V24.819H246.511ZM247.511 47.6172H238.074V49.6172H247.511V47.6172ZM311.828 47.9362C308.115 47.9362 305.249 47.4538 303.171 46.5515L302.375 48.386C304.803 49.4403 307.974 49.9362 311.828 49.9362V47.9362ZM303.186 46.5579C301.195 45.6558 299.728 44.0795 298.792 41.7382L296.935 42.4806C298.039 45.2434 299.845 47.24 302.36 48.3796L303.186 46.5579ZM298.797 41.7516C297.882 39.3641 297.397 35.9736 297.397 31.5182H295.397C295.397 36.0802 295.889 39.7505 296.93 42.4671L298.797 41.7516ZM297.397 31.5182C297.397 26.9286 297.862 23.4705 298.739 21.0798L296.861 20.3916C295.866 23.105 295.397 26.8353 295.397 31.5182H297.397ZM298.739 21.0798C299.594 18.7454 300.997 17.1802 302.937 16.2842L302.099 14.4684C299.618 15.6141 297.876 17.6218 296.861 20.3916L298.739 21.0798ZM302.937 16.2842C304.964 15.3483 307.798 14.8451 311.509 14.8451V12.8451C307.653 12.8451 304.493 13.3626 302.099 14.4684L302.937 16.2842ZM311.509 14.8451C314.857 14.8451 317.457 15.1818 319.354 15.8145L319.987 13.9173C317.803 13.1888 314.962 12.8451 311.509 12.8451V14.8451ZM319.354 15.8145C321.181 16.4239 322.427 17.4589 323.185 18.9034L324.956 17.9742C323.928 16.0159 322.241 14.669 319.987 13.9173L319.354 15.8145ZM323.194 18.9205C324.014 20.4112 324.473 22.6211 324.473 25.6484H326.473C326.473 22.4657 325.998 19.8691 324.947 17.9571L323.194 18.9205ZM324.473 25.6484C324.473 27.8196 324.03 29.4282 323.246 30.5691L324.895 31.7017C325.981 30.1204 326.473 28.071 326.473 25.6484H324.473ZM323.242 30.5748C322.481 31.6992 321.387 32.5336 319.907 33.0654L320.583 34.9476C322.418 34.2885 323.874 33.2088 324.899 31.696L323.242 30.5748ZM319.928 33.0579C318.397 33.5686 316.553 33.8359 314.378 33.8359V35.8359C316.709 35.8359 318.776 35.5503 320.561 34.9551L319.928 33.0579ZM314.378 33.8359H305.77V35.8359H314.378V33.8359ZM304.771 34.8846C304.859 36.6874 305.125 38.2127 305.607 39.4181L307.464 38.6757C307.095 37.7543 306.851 36.4723 306.769 34.7872L304.771 34.8846ZM305.626 39.4633C306.217 40.7525 307.261 41.6623 308.656 42.2106L309.388 40.3493C308.402 39.9618 307.789 39.3829 307.444 38.6304L305.626 39.4633ZM308.696 42.2253C310.084 42.7044 311.979 42.918 314.315 42.918V40.918C312.059 40.918 310.425 40.7062 309.348 40.3346L308.696 42.2253ZM314.315 42.918H324.326V40.918H314.315V42.918ZM323.326 41.918V47.4688H325.326V41.918H323.326ZM324.124 46.4892C322.479 46.8268 320.663 47.165 318.674 47.5038L319.01 49.4754C321.017 49.1336 322.856 48.7913 324.527 48.4483L324.124 46.4892ZM318.691 47.501C316.8 47.7889 314.515 47.9362 311.828 47.9362V49.9362C314.581 49.9362 316.973 49.7857 318.992 49.4782L318.691 47.501ZM305.643 30.2214H313.422V28.2214H305.643V30.2214ZM313.422 30.2214C314.796 30.2214 316.018 29.9524 316.878 29.2148L315.576 27.6967C315.246 27.9799 314.598 28.2214 313.422 28.2214V30.2214ZM316.878 29.2148C317.808 28.4175 318.12 27.1307 318.12 25.7122H316.12C316.12 26.9309 315.837 27.4731 315.576 27.6967L316.878 29.2148ZM318.12 25.7122C318.12 24.3916 317.918 23.2316 317.43 22.3097L315.662 23.245C315.94 23.7692 316.12 24.5658 316.12 25.7122H318.12ZM317.441 22.3303C316.944 21.3357 316.152 20.6292 315.107 20.244L314.415 22.1206C314.985 22.3309 315.384 22.6878 315.652 23.2243L317.441 22.3303ZM315.149 20.2607C314.17 19.8481 312.937 19.6719 311.509 19.6719V21.6719C312.802 21.6719 313.737 21.8359 314.373 22.1038L315.149 20.2607ZM311.509 19.6719C309.96 19.6719 308.612 19.9431 307.551 20.5801L308.58 22.2949C309.22 21.9111 310.167 21.6719 311.509 21.6719V19.6719ZM307.583 20.5614C306.44 21.1909 305.695 22.2967 305.261 23.6933L307.172 24.2858C307.504 23.2154 307.991 22.6199 308.548 22.3136L307.583 20.5614ZM305.261 23.6933C304.835 25.0685 304.643 26.9295 304.643 29.2214H306.643C306.643 27.0045 306.833 25.3776 307.172 24.2858L305.261 23.6933ZM344.099 48C343.063 48 341.938 47.9585 340.725 47.8748L340.587 49.87C341.839 49.9564 343.01 50 344.099 50V48ZM340.691 47.873C339.481 47.8312 338.271 47.7478 337.061 47.6225L336.855 49.6119C338.11 49.7418 339.366 49.8285 340.622 49.8718L340.691 47.873ZM337.061 47.6225C335.844 47.4965 334.715 47.35 333.673 47.1831L333.356 49.158C334.44 49.3315 335.606 49.4826 336.855 49.6119L337.061 47.6225ZM333.711 47.19C332.677 46.9832 331.833 46.7603 331.169 46.5258L330.503 48.4117C331.285 48.6876 332.227 48.9326 333.318 49.1511L333.711 47.19ZM331.836 47.4688V41.918H329.836V47.4688H331.836ZM330.836 42.918H346.012V40.918H330.836V42.918ZM346.012 42.918C346.943 42.918 347.749 42.8524 348.405 42.7009L347.955 40.7522C347.506 40.856 346.867 40.918 346.012 40.918V42.918ZM348.455 42.688C349.199 42.4753 349.862 42.0912 350.288 41.4516L348.623 40.3427C348.539 40.4687 348.352 40.6375 347.905 40.7651L348.455 42.688ZM350.275 41.4704C350.734 40.8145 350.902 39.9889 350.902 39.1107H348.902C348.902 39.7637 348.772 40.1291 348.636 40.3239L350.275 41.4704ZM350.902 39.1107V38.026H348.902V39.1107H350.902ZM350.902 38.026C350.902 36.9382 350.536 35.9768 349.719 35.285L348.427 36.8114C348.715 37.0553 348.902 37.4125 348.902 38.026H350.902ZM349.719 35.285C348.873 34.5688 347.528 34.3464 346.012 34.3464V36.3464C347.472 36.3464 348.167 36.5918 348.427 36.8114L349.719 35.285ZM346.012 34.3464H340.656V36.3464H346.012V34.3464ZM340.656 34.3464C338.802 34.3464 337.161 34.0642 335.718 33.5179L335.01 35.3883C336.712 36.033 338.599 36.3464 340.656 36.3464V34.3464ZM335.718 33.5179C334.332 32.9932 333.243 32.1418 332.426 30.9519L330.777 32.0845C331.83 33.6169 333.25 34.7221 335.01 35.3883L335.718 33.5179ZM332.438 30.9698C331.688 29.8258 331.263 28.2101 331.263 26.0312H329.263C329.263 28.4462 329.73 30.4885 330.765 32.0667L332.438 30.9698ZM331.263 26.0312V24.0534H329.263V26.0312H331.263ZM331.263 24.0534C331.263 22.0127 331.662 20.3649 332.406 19.0623L330.669 18.0705C329.713 19.7453 329.263 21.7556 329.263 24.0534H331.263ZM332.406 19.0623C333.116 17.8199 334.331 16.8227 336.168 16.1187L335.452 14.2511C333.294 15.0783 331.66 16.3355 330.669 18.0705L332.406 19.0623ZM336.168 16.1187C338.002 15.4157 340.605 15.0365 344.036 15.0365V13.0365C340.495 13.0365 337.614 13.4228 335.452 14.2511L336.168 16.1187ZM344.036 15.0365C345.398 15.0365 346.85 15.1191 348.392 15.2859L348.607 13.2975C347.003 13.1239 345.479 13.0365 344.036 13.0365V15.0365ZM348.42 15.2886C350.007 15.4139 351.482 15.6013 352.847 15.8497L353.205 13.882C351.765 13.62 350.222 13.4247 348.578 13.2948L348.42 15.2886ZM352.881 15.8552C354.297 16.0636 355.374 16.3074 356.139 16.5753L356.8 14.6877C355.865 14.3601 354.647 14.0935 353.172 13.8765L352.881 15.8552ZM355.47 15.6315V21.1823H357.47V15.6315H355.47ZM356.47 20.1823H342.123V22.1823H356.47V20.1823ZM342.123 20.1823C340.802 20.1823 339.636 20.4053 338.762 20.9884L339.872 22.6522C340.273 22.3846 340.978 22.1823 342.123 22.1823V20.1823ZM338.802 20.963C337.733 21.6049 337.361 22.7816 337.361 24.0534H339.361C339.361 23.1134 339.626 22.8013 339.832 22.6777L338.802 20.963ZM337.361 24.0534V25.0742H339.361V24.0534H337.361ZM337.361 25.0742C337.361 25.9418 337.525 26.7764 338.017 27.4106L339.596 26.1832C339.494 26.0517 339.361 25.7379 339.361 25.0742H337.361ZM338.054 27.4552C338.517 27.9847 339.157 28.3198 339.871 28.524L340.421 26.601C339.945 26.4649 339.692 26.2896 339.56 26.1386L338.054 27.4552ZM339.95 28.5431C340.673 28.6879 341.53 28.7539 342.505 28.7539V26.7539C341.61 26.7539 340.894 26.6924 340.342 26.5819L339.95 28.5431ZM342.505 28.7539H347.989V26.7539H342.505V28.7539ZM347.989 28.7539C351.349 28.7539 353.557 29.5364 354.86 30.8758L356.294 29.481C354.451 27.5877 351.6 26.7539 347.989 26.7539V28.7539ZM354.879 30.8947C356.256 32.2363 357 34.1423 357 36.75H359C359 33.7431 358.128 31.268 356.275 29.4621L354.879 30.8947ZM357 36.75V39.8125H359V36.75H357ZM357 39.8125C357 41.9516 356.487 43.535 355.566 44.6691L357.118 45.9298C358.408 44.3418 359 42.2671 359 39.8125H357ZM355.564 44.672C354.662 45.7902 353.289 46.6545 351.349 47.2091L351.898 49.1321C354.124 48.4957 355.897 47.4459 357.121 45.927L355.564 44.672ZM351.362 47.2054C349.434 47.728 347.02 48 344.099 48V50C347.131 50 349.733 49.7191 351.885 49.1358L351.362 47.2054ZM117.617 11.7316C117.617 13.3822 116.28 14.7192 114.632 14.7192V16.7192C117.386 16.7192 119.617 14.4856 119.617 11.7316H117.617ZM114.632 14.7192C112.984 14.7192 111.647 13.3822 111.647 11.7316H109.647C109.647 14.4856 111.878 16.7192 114.632 16.7192V14.7192ZM111.647 11.7316C111.647 10.081 112.984 8.74398 114.632 8.74398V6.74398C111.878 6.74398 109.647 8.97758 109.647 11.7316H111.647ZM114.632 8.74398C116.28 8.74398 117.617 10.081 117.617 11.7316H119.617C119.617 8.97758 117.386 6.74398 114.632 6.74398V8.74398ZM125.588 19.7069C125.588 21.3575 124.251 22.6945 122.603 22.6945V24.6945C125.357 24.6945 127.588 22.4609 127.588 19.7069H125.588ZM122.603 22.6945C120.955 22.6945 119.617 21.3575 119.617 19.7069H117.617C117.617 22.4609 119.849 24.6945 122.603 24.6945V22.6945ZM119.617 19.7069C119.617 18.0563 120.955 16.7192 122.603 16.7192V14.7192C119.849 14.7192 117.617 16.9528 117.617 19.7069H119.617ZM122.603 16.7192C124.251 16.7192 125.588 18.0563 125.588 19.7069H127.588C127.588 16.9528 125.357 14.7192 122.603 14.7192V16.7192ZM141.529 35.6574C141.529 37.308 140.192 38.645 138.544 38.645V40.645C141.298 40.645 143.529 38.4114 143.529 35.6574H141.529ZM138.544 38.645C136.896 38.645 135.559 37.308 135.559 35.6574H133.559C133.559 38.4114 135.79 40.645 138.544 40.645V38.645ZM135.559 35.6574C135.559 34.0068 136.896 32.6698 138.544 32.6698V30.6698C135.79 30.6698 133.559 32.9034 133.559 35.6574H135.559ZM138.544 32.6698C140.192 32.6698 141.529 34.0068 141.529 35.6574H143.529C143.529 32.9034 141.298 30.6698 138.544 30.6698V32.6698ZM149.5 43.6327C149.5 45.2832 148.163 46.6203 146.514 46.6203V48.6203C149.268 48.6203 151.5 46.3867 151.5 43.6327H149.5ZM146.514 46.6203C144.866 46.6203 143.529 45.2832 143.529 43.6327H141.529C141.529 46.3867 143.76 48.6203 146.514 48.6203V46.6203ZM143.529 43.6327C143.529 41.9821 144.866 40.645 146.514 40.645V38.645C143.76 38.645 141.529 40.8786 141.529 43.6327H143.529ZM146.514 40.645C148.163 40.645 149.5 41.9821 149.5 43.6327H151.5C151.5 40.8786 149.268 38.645 146.514 38.645V40.645ZM149.5 11.7316C149.5 13.3822 148.163 14.7192 146.514 14.7192V16.7192C149.268 16.7192 151.5 14.4856 151.5 11.7316H149.5ZM146.514 14.7192C144.866 14.7192 143.529 13.3822 143.529 11.7316H141.529C141.529 14.4856 143.76 16.7192 146.514 16.7192V14.7192ZM143.529 11.7316C143.529 10.081 144.866 8.74398 146.514 8.74398V6.74398C143.76 6.74398 141.529 8.97758 141.529 11.7316H143.529ZM146.514 8.74398C148.163 8.74398 149.5 10.081 149.5 11.7316H151.5C151.5 8.97758 149.268 6.74398 146.514 6.74398V8.74398ZM141.529 19.7069C141.529 21.3575 140.192 22.6945 138.544 22.6945V24.6945C141.298 24.6945 143.529 22.4609 143.529 19.7069H141.529ZM138.544 22.6945C136.896 22.6945 135.559 21.3575 135.559 19.7069H133.559C133.559 22.4609 135.79 24.6945 138.544 24.6945V22.6945ZM135.559 19.7069C135.559 18.0563 136.896 16.7192 138.544 16.7192V14.7192C135.79 14.7192 133.559 16.9528 133.559 19.7069H135.559ZM138.544 16.7192C140.192 16.7192 141.529 18.0563 141.529 19.7069H143.529C143.529 16.9528 141.298 14.7192 138.544 14.7192V16.7192ZM125.588 35.6574C125.588 37.308 124.251 38.645 122.603 38.645V40.645C125.357 40.645 127.588 38.4114 127.588 35.6574H125.588ZM122.603 38.645C120.955 38.645 119.617 37.308 119.617 35.6574H117.617C117.617 38.4114 119.849 40.645 122.603 40.645V38.645ZM119.617 35.6574C119.617 34.0068 120.955 32.6698 122.603 32.6698V30.6698C119.849 30.6698 117.617 32.9034 117.617 35.6574H119.617ZM122.603 32.6698C124.251 32.6698 125.588 34.0068 125.588 35.6574H127.588C127.588 32.9034 125.357 30.6698 122.603 30.6698V32.6698ZM117.617 43.6327C117.617 45.2832 116.28 46.6203 114.632 46.6203V48.6203C117.386 48.6203 119.617 46.3867 119.617 43.6327H117.617ZM114.632 46.6203C112.984 46.6203 111.647 45.2832 111.647 43.6327H109.647C109.647 46.3867 111.878 48.6203 114.632 48.6203V46.6203ZM111.647 43.6327C111.647 41.9821 112.984 40.645 114.632 40.645V38.645C111.878 38.645 109.647 40.8786 109.647 43.6327H111.647ZM114.632 40.645C116.28 40.645 117.617 41.9821 117.617 43.6327H119.617C119.617 40.8786 117.386 38.645 114.632 38.645V40.645ZM133.559 27.6821C133.559 29.3327 132.221 30.6698 130.573 30.6698V32.6698C133.327 32.6698 135.559 30.4362 135.559 27.6821H133.559ZM130.573 30.6698C128.925 30.6698 127.588 29.3327 127.588 27.6821H125.588C125.588 30.4362 127.819 32.6698 130.573 32.6698V30.6698ZM127.588 27.6821C127.588 26.0316 128.925 24.6945 130.573 24.6945V22.6945C127.819 22.6945 125.588 24.9281 125.588 27.6821H127.588ZM130.573 24.6945C132.221 24.6945 133.559 26.0316 133.559 27.6821H135.559C135.559 24.9281 133.327 22.6945 130.573 22.6945V24.6945Z" fill="#420152" mask="url(#path-1-inside-1_53_216)"/>
</svg>
