<svg width="361" height="50" viewBox="0 0 361 50" fill="none" xmlns="http://www.w3.org/2000/svg">
<mask id="path-1-inside-1_52_154" fill="black">
<path d="M16.368 49.3839C15.1306 49.3839 13.8506 49.3413 12.528 49.2559C11.248 49.2133 9.9253 49.1279 8.55997 48.9999C7.2373 48.8293 5.97864 48.6586 4.78397 48.4879C3.5893 48.2746 2.5013 48.0399 1.51997 47.7839V40.2959C2.79997 40.4239 4.25064 40.5306 5.87197 40.6159C7.4933 40.7013 9.17864 40.7653 10.928 40.8079C12.6773 40.8506 14.3413 40.8719 15.92 40.8719C17.5413 40.8719 18.928 40.7439 20.08 40.4879C21.2746 40.1893 22.192 39.6986 22.832 39.0159C23.472 38.2906 23.792 37.3093 23.792 36.0719V34.3439C23.792 32.9359 23.3653 31.8693 22.512 31.1439C21.7013 30.3759 20.528 29.9919 18.992 29.9919H14.96C10.4373 29.9919 6.95997 29.0106 4.52797 27.0479C2.13864 25.0426 0.94397 21.6506 0.94397 16.8719V14.5679C0.94397 9.95993 2.26664 6.58927 4.91197 4.45593C7.5573 2.3226 11.3333 1.25593 16.24 1.25593C17.9893 1.25593 19.7173 1.34127 21.424 1.51193C23.1733 1.6826 24.8373 1.89593 26.416 2.15193C28.0373 2.36526 29.424 2.59993 30.576 2.85593V10.3439C28.6133 10.2159 26.416 10.0879 23.984 9.95993C21.5946 9.83193 19.376 9.76793 17.328 9.76793C15.8773 9.76793 14.576 9.91727 13.424 10.2159C12.3146 10.4719 11.4613 10.9839 10.864 11.7519C10.2666 12.5199 9.96797 13.6079 9.96797 15.0159V16.2959C9.96797 17.9599 10.4373 19.1546 11.376 19.8799C12.3146 20.6053 13.7013 20.9679 15.536 20.9679H20.208C23.0666 20.9679 25.4133 21.5013 27.248 22.5679C29.1253 23.5919 30.512 25.0213 31.408 26.8559C32.3466 28.6906 32.816 30.7813 32.816 33.1279V35.8159C32.816 39.5279 32.112 42.3653 30.704 44.3279C29.3386 46.2906 27.4186 47.6346 24.944 48.3599C22.512 49.0426 19.6533 49.3839 16.368 49.3839Z"/>
<path d="M46.6315 49.3839C44.0288 49.3839 41.9168 48.6159 40.2955 47.0799C38.6741 45.5439 37.8635 43.4106 37.8635 40.6799V37.6079C37.8635 35.0053 38.7808 32.8719 40.6155 31.2079C42.4501 29.5013 45.3088 28.6479 49.1915 28.6479H57.9595V26.2799C57.9595 25.2133 57.7675 24.3386 57.3835 23.6559C56.9995 22.9306 56.2741 22.4186 55.2075 22.1199C54.1835 21.7786 52.6048 21.6079 50.4715 21.6079H40.1675V16.1039C41.8315 15.5919 43.7515 15.1439 45.9275 14.7599C48.1461 14.3759 50.8128 14.1839 53.9275 14.1839C56.7861 14.1839 59.2181 14.5253 61.2235 15.2079C63.2715 15.8906 64.8075 17.0639 65.8315 18.7279C66.8981 20.3919 67.4315 22.6959 67.4315 25.6399V48.9999H59.9435L58.4075 45.3519C58.1088 45.6933 57.5968 46.0773 56.8715 46.5039C56.1461 46.9306 55.2501 47.3786 54.1835 47.8479C53.1595 48.2746 51.9861 48.6373 50.6635 48.9359C49.3835 49.2346 48.0395 49.3839 46.6315 49.3839ZM51.4315 42.7919C51.8581 42.7919 52.3275 42.7493 52.8395 42.6639C53.3941 42.5359 53.9488 42.4079 54.5035 42.2799C55.1008 42.1093 55.6341 41.9599 56.1035 41.8319C56.6155 41.6613 57.0208 41.5119 57.3195 41.3839C57.6608 41.2559 57.8741 41.1706 57.9595 41.1279V33.1279L52.1995 33.5119C50.5355 33.6399 49.2981 34.0666 48.4875 34.7919C47.7195 35.5173 47.3355 36.4986 47.3355 37.7359V39.1439C47.3355 39.9973 47.5061 40.7013 47.8475 41.2559C48.2315 41.8106 48.7221 42.2159 49.3195 42.4719C49.9595 42.6853 50.6635 42.7919 51.4315 42.7919Z"/>
<path d="M74.523 48.9999V0.231934H83.995V18.1519C85.2323 17.1279 86.8323 16.1893 88.795 15.3359C90.8003 14.4826 92.8483 14.0559 94.939 14.0559C97.5416 14.0559 99.611 14.5679 101.147 15.5919C102.683 16.6159 103.792 18.0453 104.475 19.8799C105.158 21.7146 105.499 23.8479 105.499 26.2799V48.9999H96.027V27.4959C96.027 26.3866 95.8136 25.4693 95.387 24.7439C94.9603 24.0186 94.3843 23.4853 93.659 23.1439C92.9336 22.7599 92.0803 22.5679 91.099 22.5679C90.203 22.5679 89.3283 22.6959 88.475 22.9519C87.6643 23.1653 86.875 23.4639 86.107 23.8479C85.3816 24.2319 84.6776 24.6586 83.995 25.1279V48.9999H74.523Z"/>
<path d="M175.973 49.3199C172.987 49.3199 170.533 48.7653 168.613 47.6559C166.736 46.5039 165.264 44.8826 164.197 42.7919C163.131 40.6586 162.384 38.1199 161.957 35.1759C161.531 32.2319 161.317 28.9466 161.317 25.3199C161.317 21.5226 161.552 18.1306 162.021 15.1439C162.533 12.1573 163.408 9.63993 164.645 7.59193C165.925 5.50127 167.696 3.9226 169.957 2.85593C172.261 1.7466 175.205 1.19193 178.789 1.19193C180.965 1.19193 182.949 1.27727 184.741 1.44793C186.576 1.6186 188.304 1.8746 189.925 2.21593C191.547 2.5146 193.168 2.87727 194.789 3.30393V10.5999C193.893 10.4719 192.699 10.3439 191.205 10.2159C189.712 10.0879 188.048 9.98127 186.213 9.89594C184.379 9.76793 182.48 9.70393 180.517 9.70393C177.829 9.70393 175.781 10.1946 174.373 11.1759C173.008 12.1146 172.069 13.7359 171.557 16.0399C171.045 18.3013 170.789 21.4159 170.789 25.3839C170.789 28.4559 170.917 30.9733 171.173 32.9359C171.472 34.8986 171.941 36.4559 172.581 37.6079C173.221 38.7173 174.053 39.5066 175.077 39.9759C176.144 40.4026 177.445 40.6159 178.981 40.6159C180.731 40.6159 182.395 40.4666 183.973 40.1679C185.595 39.8693 186.896 39.5706 187.877 39.2719V30.0559H179.365V22.5679C180.261 22.4399 181.328 22.3333 182.565 22.2479C183.803 22.1626 185.083 22.0986 186.405 22.0559C187.771 21.9706 189.072 21.9279 190.309 21.9279C191.675 21.9279 192.891 21.9493 193.957 21.9919C195.067 21.9919 196.069 22.0346 196.965 22.1199V48.9999H189.861L188.581 45.7999C187.344 46.5253 185.595 47.2933 183.333 48.1039C181.072 48.9146 178.619 49.3199 175.973 49.3199Z"/>
<path d="M212.006 49.3839C209.404 49.3839 207.292 48.6159 205.67 47.0799C204.049 45.5439 203.238 43.4106 203.238 40.6799V37.6079C203.238 35.0053 204.156 32.8719 205.99 31.2079C207.825 29.5013 210.684 28.6479 214.566 28.6479H223.334V26.2799C223.334 25.2133 223.142 24.3386 222.758 23.6559C222.374 22.9306 221.649 22.4186 220.582 22.1199C219.558 21.7786 217.98 21.6079 215.846 21.6079H205.542V16.1039C207.206 15.5919 209.126 15.1439 211.302 14.7599C213.521 14.3759 216.188 14.1839 219.302 14.1839C222.161 14.1839 224.593 14.5253 226.598 15.2079C228.646 15.8906 230.182 17.0639 231.206 18.7279C232.273 20.3919 232.806 22.6959 232.806 25.6399V48.9999H225.318L223.782 45.3519C223.484 45.6933 222.972 46.0773 222.246 46.5039C221.521 46.9306 220.625 47.3786 219.558 47.8479C218.534 48.2746 217.361 48.6373 216.038 48.9359C214.758 49.2346 213.414 49.3839 212.006 49.3839ZM216.806 42.7919C217.233 42.7919 217.702 42.7493 218.214 42.6639C218.769 42.5359 219.324 42.4079 219.878 42.2799C220.476 42.1093 221.009 41.9599 221.478 41.8319C221.99 41.6613 222.396 41.5119 222.694 41.3839C223.036 41.2559 223.249 41.1706 223.334 41.1279V33.1279L217.574 33.5119C215.91 33.6399 214.673 34.0666 213.862 34.7919C213.094 35.5173 212.71 36.4986 212.71 37.7359V39.1439C212.71 39.9973 212.881 40.7013 213.222 41.2559C213.606 41.8106 214.097 42.2159 214.694 42.4719C215.334 42.6853 216.038 42.7919 216.806 42.7919Z"/>
<path d="M239.898 48.9999V14.6319H247.706L249.37 18.1519C250.863 17.0426 252.485 16.0826 254.234 15.2719C256.026 14.4613 258.223 14.0559 260.826 14.0559C263.002 14.0559 264.794 14.5039 266.202 15.3999C267.653 16.2959 268.741 17.4693 269.466 18.9199C270.447 18.1519 271.578 17.4053 272.858 16.6799C274.181 15.9546 275.589 15.3359 277.082 14.8239C278.575 14.3119 280.047 14.0559 281.498 14.0559C284.271 14.0559 286.447 14.5893 288.026 15.6559C289.647 16.6799 290.778 18.1519 291.418 20.0719C292.058 21.9493 292.378 24.1679 292.378 26.7279V48.9999H282.906V27.5599C282.906 26.4506 282.693 25.5333 282.266 24.8079C281.882 24.0826 281.327 23.5279 280.602 23.1439C279.877 22.7599 279.002 22.5679 277.978 22.5679C276.698 22.5679 275.397 22.8453 274.074 23.3999C272.794 23.9119 271.642 24.5306 270.618 25.2559C270.703 25.6826 270.767 26.1093 270.81 26.5359C270.853 26.9199 270.874 27.3253 270.874 27.7519V48.9999H261.402V27.5599C261.402 26.4506 261.189 25.5333 260.762 24.8079C260.378 24.0826 259.823 23.5279 259.098 23.1439C258.373 22.7599 257.498 22.5679 256.474 22.5679C255.578 22.5679 254.703 22.6746 253.85 22.8879C253.039 23.1013 252.25 23.3999 251.482 23.7839C250.757 24.1679 250.053 24.6159 249.37 25.1279V48.9999H239.898Z"/>
<path d="M313.924 49.3199C310.127 49.3199 307.098 48.8293 304.836 47.8479C302.575 46.8239 300.932 45.0319 299.908 42.4719C298.927 39.9119 298.436 36.3706 298.436 31.8479C298.436 27.1973 298.906 23.5919 299.844 21.0319C300.783 18.4719 302.362 16.6799 304.58 15.6559C306.799 14.6319 309.807 14.1199 313.604 14.1199C317.018 14.1199 319.748 14.4613 321.796 15.1439C323.844 15.8266 325.316 17.0213 326.212 18.7279C327.151 20.4346 327.62 22.8453 327.62 25.9599C327.62 28.2639 327.151 30.0986 326.212 31.4639C325.316 32.7866 324.036 33.7466 322.372 34.3439C320.708 34.8986 318.746 35.1759 316.484 35.1759H307.844C307.93 36.9253 308.186 38.3333 308.612 39.3999C309.082 40.4239 309.914 41.1706 311.108 41.6399C312.346 42.0666 314.116 42.2799 316.42 42.2799H326.468V47.8479C324.804 48.1893 322.97 48.5306 320.964 48.8719C319.002 49.1706 316.655 49.3199 313.924 49.3199ZM307.716 29.5439H315.524C316.804 29.5439 317.743 29.2879 318.34 28.7759C318.938 28.2639 319.236 27.3466 319.236 26.0239C319.236 24.7866 319.044 23.8053 318.66 23.0799C318.276 22.3119 317.679 21.7786 316.868 21.4799C316.058 21.1386 314.97 20.9679 313.604 20.9679C312.154 20.9679 311.002 21.2239 310.148 21.7359C309.295 22.2053 308.676 23.0586 308.292 24.2959C307.908 25.5333 307.716 27.2826 307.716 29.5439Z"/>
<path d="M346.315 49.3839C345.249 49.3839 344.097 49.3413 342.859 49.2559C341.622 49.2133 340.385 49.1279 339.147 48.9999C337.91 48.8719 336.758 48.7226 335.691 48.5519C334.625 48.3386 333.729 48.1039 333.003 47.8479V42.2799H348.235C349.131 42.2799 349.857 42.2159 350.411 42.0879C351.009 41.9173 351.435 41.6399 351.691 41.2559C351.99 40.8293 352.139 40.2319 352.139 39.4639V38.3759C352.139 37.5226 351.862 36.8613 351.307 36.3919C350.753 35.9226 349.729 35.6879 348.235 35.6879H342.859C340.897 35.6879 339.126 35.3893 337.547 34.7919C335.969 34.1946 334.71 33.2133 333.771 31.8479C332.875 30.4826 332.427 28.6479 332.427 26.3439V24.3599C332.427 22.1839 332.854 20.3493 333.707 18.8559C334.561 17.3626 335.99 16.2319 337.995 15.4639C340.001 14.6959 342.753 14.3119 346.251 14.3119C347.659 14.3119 349.153 14.3973 350.731 14.5679C352.353 14.6959 353.867 14.8879 355.275 15.1439C356.726 15.3573 357.878 15.6133 358.731 15.9119V21.4799H344.331C343.094 21.4799 342.155 21.6933 341.515 22.1199C340.875 22.5039 340.555 23.2506 340.555 24.3599V25.3839C340.555 26.1519 340.705 26.7279 341.003 27.1119C341.302 27.4533 341.75 27.7093 342.347 27.8799C342.987 28.0079 343.777 28.0719 344.715 28.0719H350.219C353.718 28.0719 356.257 28.8826 357.835 30.5039C359.457 32.0826 360.267 34.2799 360.267 37.0959V40.1679C360.267 42.4719 359.713 44.3066 358.603 45.6719C357.537 46.9946 355.958 47.9546 353.867 48.5519C351.819 49.1066 349.302 49.3839 346.315 49.3839Z"/>
<path d="M120 11.9999C120 14.2091 118.209 15.9999 116 15.9999C113.791 15.9999 112 14.2091 112 11.9999C112 9.7908 113.791 7.99994 116 7.99994C118.209 7.99994 120 9.7908 120 11.9999Z"/>
<path d="M128 19.9999C128 22.2091 126.209 23.9999 124 23.9999C121.791 23.9999 120 22.2091 120 19.9999C120 17.7908 121.791 15.9999 124 15.9999C126.209 15.9999 128 17.7908 128 19.9999Z"/>
<path d="M144 35.9999C144 38.2091 142.209 39.9999 140 39.9999C137.791 39.9999 136 38.2091 136 35.9999C136 33.7908 137.791 31.9999 140 31.9999C142.209 31.9999 144 33.7908 144 35.9999Z"/>
<path d="M152 43.9999C152 46.2091 150.209 47.9999 148 47.9999C145.791 47.9999 144 46.2091 144 43.9999C144 41.7908 145.791 39.9999 148 39.9999C150.209 39.9999 152 41.7908 152 43.9999Z"/>
<path d="M152 11.9999C152 14.2091 150.209 15.9999 148 15.9999C145.791 15.9999 144 14.2091 144 11.9999C144 9.7908 145.791 7.99994 148 7.99994C150.209 7.99994 152 9.7908 152 11.9999Z"/>
<path d="M144 19.9999C144 22.2091 142.209 23.9999 140 23.9999C137.791 23.9999 136 22.2091 136 19.9999C136 17.7908 137.791 15.9999 140 15.9999C142.209 15.9999 144 17.7908 144 19.9999Z"/>
<path d="M128 35.9999C128 38.2091 126.209 39.9999 124 39.9999C121.791 39.9999 120 38.2091 120 35.9999C120 33.7908 121.791 31.9999 124 31.9999C126.209 31.9999 128 33.7908 128 35.9999Z"/>
<path d="M120 43.9999C120 46.2091 118.209 47.9999 116 47.9999C113.791 47.9999 112 46.2091 112 43.9999C112 41.7908 113.791 39.9999 116 39.9999C118.209 39.9999 120 41.7908 120 43.9999Z"/>
<path d="M136 27.9999C136 30.2091 134.209 31.9999 132 31.9999C129.791 31.9999 128 30.2091 128 27.9999C128 25.7908 129.791 23.9999 132 23.9999C134.209 23.9999 136 25.7908 136 27.9999Z"/>
</mask>
<path d="M16.368 49.3839C15.1306 49.3839 13.8506 49.3413 12.528 49.2559C11.248 49.2133 9.9253 49.1279 8.55997 48.9999C7.2373 48.8293 5.97864 48.6586 4.78397 48.4879C3.5893 48.2746 2.5013 48.0399 1.51997 47.7839V40.2959C2.79997 40.4239 4.25064 40.5306 5.87197 40.6159C7.4933 40.7013 9.17864 40.7653 10.928 40.8079C12.6773 40.8506 14.3413 40.8719 15.92 40.8719C17.5413 40.8719 18.928 40.7439 20.08 40.4879C21.2746 40.1893 22.192 39.6986 22.832 39.0159C23.472 38.2906 23.792 37.3093 23.792 36.0719V34.3439C23.792 32.9359 23.3653 31.8693 22.512 31.1439C21.7013 30.3759 20.528 29.9919 18.992 29.9919H14.96C10.4373 29.9919 6.95997 29.0106 4.52797 27.0479C2.13864 25.0426 0.94397 21.6506 0.94397 16.8719V14.5679C0.94397 9.95993 2.26664 6.58927 4.91197 4.45593C7.5573 2.3226 11.3333 1.25593 16.24 1.25593C17.9893 1.25593 19.7173 1.34127 21.424 1.51193C23.1733 1.6826 24.8373 1.89593 26.416 2.15193C28.0373 2.36526 29.424 2.59993 30.576 2.85593V10.3439C28.6133 10.2159 26.416 10.0879 23.984 9.95993C21.5946 9.83193 19.376 9.76793 17.328 9.76793C15.8773 9.76793 14.576 9.91727 13.424 10.2159C12.3146 10.4719 11.4613 10.9839 10.864 11.7519C10.2666 12.5199 9.96797 13.6079 9.96797 15.0159V16.2959C9.96797 17.9599 10.4373 19.1546 11.376 19.8799C12.3146 20.6053 13.7013 20.9679 15.536 20.9679H20.208C23.0666 20.9679 25.4133 21.5013 27.248 22.5679C29.1253 23.5919 30.512 25.0213 31.408 26.8559C32.3466 28.6906 32.816 30.7813 32.816 33.1279V35.8159C32.816 39.5279 32.112 42.3653 30.704 44.3279C29.3386 46.2906 27.4186 47.6346 24.944 48.3599C22.512 49.0426 19.6533 49.3839 16.368 49.3839Z" fill="black"/>
<path d="M46.6315 49.3839C44.0288 49.3839 41.9168 48.6159 40.2955 47.0799C38.6741 45.5439 37.8635 43.4106 37.8635 40.6799V37.6079C37.8635 35.0053 38.7808 32.8719 40.6155 31.2079C42.4501 29.5013 45.3088 28.6479 49.1915 28.6479H57.9595V26.2799C57.9595 25.2133 57.7675 24.3386 57.3835 23.6559C56.9995 22.9306 56.2741 22.4186 55.2075 22.1199C54.1835 21.7786 52.6048 21.6079 50.4715 21.6079H40.1675V16.1039C41.8315 15.5919 43.7515 15.1439 45.9275 14.7599C48.1461 14.3759 50.8128 14.1839 53.9275 14.1839C56.7861 14.1839 59.2181 14.5253 61.2235 15.2079C63.2715 15.8906 64.8075 17.0639 65.8315 18.7279C66.8981 20.3919 67.4315 22.6959 67.4315 25.6399V48.9999H59.9435L58.4075 45.3519C58.1088 45.6933 57.5968 46.0773 56.8715 46.5039C56.1461 46.9306 55.2501 47.3786 54.1835 47.8479C53.1595 48.2746 51.9861 48.6373 50.6635 48.9359C49.3835 49.2346 48.0395 49.3839 46.6315 49.3839ZM51.4315 42.7919C51.8581 42.7919 52.3275 42.7493 52.8395 42.6639C53.3941 42.5359 53.9488 42.4079 54.5035 42.2799C55.1008 42.1093 55.6341 41.9599 56.1035 41.8319C56.6155 41.6613 57.0208 41.5119 57.3195 41.3839C57.6608 41.2559 57.8741 41.1706 57.9595 41.1279V33.1279L52.1995 33.5119C50.5355 33.6399 49.2981 34.0666 48.4875 34.7919C47.7195 35.5173 47.3355 36.4986 47.3355 37.7359V39.1439C47.3355 39.9973 47.5061 40.7013 47.8475 41.2559C48.2315 41.8106 48.7221 42.2159 49.3195 42.4719C49.9595 42.6853 50.6635 42.7919 51.4315 42.7919Z" fill="black"/>
<path d="M74.523 48.9999V0.231934H83.995V18.1519C85.2323 17.1279 86.8323 16.1893 88.795 15.3359C90.8003 14.4826 92.8483 14.0559 94.939 14.0559C97.5416 14.0559 99.611 14.5679 101.147 15.5919C102.683 16.6159 103.792 18.0453 104.475 19.8799C105.158 21.7146 105.499 23.8479 105.499 26.2799V48.9999H96.027V27.4959C96.027 26.3866 95.8136 25.4693 95.387 24.7439C94.9603 24.0186 94.3843 23.4853 93.659 23.1439C92.9336 22.7599 92.0803 22.5679 91.099 22.5679C90.203 22.5679 89.3283 22.6959 88.475 22.9519C87.6643 23.1653 86.875 23.4639 86.107 23.8479C85.3816 24.2319 84.6776 24.6586 83.995 25.1279V48.9999H74.523Z" fill="black"/>
<path d="M175.973 49.3199C172.987 49.3199 170.533 48.7653 168.613 47.6559C166.736 46.5039 165.264 44.8826 164.197 42.7919C163.131 40.6586 162.384 38.1199 161.957 35.1759C161.531 32.2319 161.317 28.9466 161.317 25.3199C161.317 21.5226 161.552 18.1306 162.021 15.1439C162.533 12.1573 163.408 9.63993 164.645 7.59193C165.925 5.50127 167.696 3.9226 169.957 2.85593C172.261 1.7466 175.205 1.19193 178.789 1.19193C180.965 1.19193 182.949 1.27727 184.741 1.44793C186.576 1.6186 188.304 1.8746 189.925 2.21593C191.547 2.5146 193.168 2.87727 194.789 3.30393V10.5999C193.893 10.4719 192.699 10.3439 191.205 10.2159C189.712 10.0879 188.048 9.98127 186.213 9.89594C184.379 9.76793 182.48 9.70393 180.517 9.70393C177.829 9.70393 175.781 10.1946 174.373 11.1759C173.008 12.1146 172.069 13.7359 171.557 16.0399C171.045 18.3013 170.789 21.4159 170.789 25.3839C170.789 28.4559 170.917 30.9733 171.173 32.9359C171.472 34.8986 171.941 36.4559 172.581 37.6079C173.221 38.7173 174.053 39.5066 175.077 39.9759C176.144 40.4026 177.445 40.6159 178.981 40.6159C180.731 40.6159 182.395 40.4666 183.973 40.1679C185.595 39.8693 186.896 39.5706 187.877 39.2719V30.0559H179.365V22.5679C180.261 22.4399 181.328 22.3333 182.565 22.2479C183.803 22.1626 185.083 22.0986 186.405 22.0559C187.771 21.9706 189.072 21.9279 190.309 21.9279C191.675 21.9279 192.891 21.9493 193.957 21.9919C195.067 21.9919 196.069 22.0346 196.965 22.1199V48.9999H189.861L188.581 45.7999C187.344 46.5253 185.595 47.2933 183.333 48.1039C181.072 48.9146 178.619 49.3199 175.973 49.3199Z" fill="black"/>
<path d="M212.006 49.3839C209.404 49.3839 207.292 48.6159 205.67 47.0799C204.049 45.5439 203.238 43.4106 203.238 40.6799V37.6079C203.238 35.0053 204.156 32.8719 205.99 31.2079C207.825 29.5013 210.684 28.6479 214.566 28.6479H223.334V26.2799C223.334 25.2133 223.142 24.3386 222.758 23.6559C222.374 22.9306 221.649 22.4186 220.582 22.1199C219.558 21.7786 217.98 21.6079 215.846 21.6079H205.542V16.1039C207.206 15.5919 209.126 15.1439 211.302 14.7599C213.521 14.3759 216.188 14.1839 219.302 14.1839C222.161 14.1839 224.593 14.5253 226.598 15.2079C228.646 15.8906 230.182 17.0639 231.206 18.7279C232.273 20.3919 232.806 22.6959 232.806 25.6399V48.9999H225.318L223.782 45.3519C223.484 45.6933 222.972 46.0773 222.246 46.5039C221.521 46.9306 220.625 47.3786 219.558 47.8479C218.534 48.2746 217.361 48.6373 216.038 48.9359C214.758 49.2346 213.414 49.3839 212.006 49.3839ZM216.806 42.7919C217.233 42.7919 217.702 42.7493 218.214 42.6639C218.769 42.5359 219.324 42.4079 219.878 42.2799C220.476 42.1093 221.009 41.9599 221.478 41.8319C221.99 41.6613 222.396 41.5119 222.694 41.3839C223.036 41.2559 223.249 41.1706 223.334 41.1279V33.1279L217.574 33.5119C215.91 33.6399 214.673 34.0666 213.862 34.7919C213.094 35.5173 212.71 36.4986 212.71 37.7359V39.1439C212.71 39.9973 212.881 40.7013 213.222 41.2559C213.606 41.8106 214.097 42.2159 214.694 42.4719C215.334 42.6853 216.038 42.7919 216.806 42.7919Z" fill="black"/>
<path d="M239.898 48.9999V14.6319H247.706L249.37 18.1519C250.863 17.0426 252.485 16.0826 254.234 15.2719C256.026 14.4613 258.223 14.0559 260.826 14.0559C263.002 14.0559 264.794 14.5039 266.202 15.3999C267.653 16.2959 268.741 17.4693 269.466 18.9199C270.447 18.1519 271.578 17.4053 272.858 16.6799C274.181 15.9546 275.589 15.3359 277.082 14.8239C278.575 14.3119 280.047 14.0559 281.498 14.0559C284.271 14.0559 286.447 14.5893 288.026 15.6559C289.647 16.6799 290.778 18.1519 291.418 20.0719C292.058 21.9493 292.378 24.1679 292.378 26.7279V48.9999H282.906V27.5599C282.906 26.4506 282.693 25.5333 282.266 24.8079C281.882 24.0826 281.327 23.5279 280.602 23.1439C279.877 22.7599 279.002 22.5679 277.978 22.5679C276.698 22.5679 275.397 22.8453 274.074 23.3999C272.794 23.9119 271.642 24.5306 270.618 25.2559C270.703 25.6826 270.767 26.1093 270.81 26.5359C270.853 26.9199 270.874 27.3253 270.874 27.7519V48.9999H261.402V27.5599C261.402 26.4506 261.189 25.5333 260.762 24.8079C260.378 24.0826 259.823 23.5279 259.098 23.1439C258.373 22.7599 257.498 22.5679 256.474 22.5679C255.578 22.5679 254.703 22.6746 253.85 22.8879C253.039 23.1013 252.25 23.3999 251.482 23.7839C250.757 24.1679 250.053 24.6159 249.37 25.1279V48.9999H239.898Z" fill="black"/>
<path d="M313.924 49.3199C310.127 49.3199 307.098 48.8293 304.836 47.8479C302.575 46.8239 300.932 45.0319 299.908 42.4719C298.927 39.9119 298.436 36.3706 298.436 31.8479C298.436 27.1973 298.906 23.5919 299.844 21.0319C300.783 18.4719 302.362 16.6799 304.58 15.6559C306.799 14.6319 309.807 14.1199 313.604 14.1199C317.018 14.1199 319.748 14.4613 321.796 15.1439C323.844 15.8266 325.316 17.0213 326.212 18.7279C327.151 20.4346 327.62 22.8453 327.62 25.9599C327.62 28.2639 327.151 30.0986 326.212 31.4639C325.316 32.7866 324.036 33.7466 322.372 34.3439C320.708 34.8986 318.746 35.1759 316.484 35.1759H307.844C307.93 36.9253 308.186 38.3333 308.612 39.3999C309.082 40.4239 309.914 41.1706 311.108 41.6399C312.346 42.0666 314.116 42.2799 316.42 42.2799H326.468V47.8479C324.804 48.1893 322.97 48.5306 320.964 48.8719C319.002 49.1706 316.655 49.3199 313.924 49.3199ZM307.716 29.5439H315.524C316.804 29.5439 317.743 29.2879 318.34 28.7759C318.938 28.2639 319.236 27.3466 319.236 26.0239C319.236 24.7866 319.044 23.8053 318.66 23.0799C318.276 22.3119 317.679 21.7786 316.868 21.4799C316.058 21.1386 314.97 20.9679 313.604 20.9679C312.154 20.9679 311.002 21.2239 310.148 21.7359C309.295 22.2053 308.676 23.0586 308.292 24.2959C307.908 25.5333 307.716 27.2826 307.716 29.5439Z" fill="black"/>
<path d="M346.315 49.3839C345.249 49.3839 344.097 49.3413 342.859 49.2559C341.622 49.2133 340.385 49.1279 339.147 48.9999C337.91 48.8719 336.758 48.7226 335.691 48.5519C334.625 48.3386 333.729 48.1039 333.003 47.8479V42.2799H348.235C349.131 42.2799 349.857 42.2159 350.411 42.0879C351.009 41.9173 351.435 41.6399 351.691 41.2559C351.99 40.8293 352.139 40.2319 352.139 39.4639V38.3759C352.139 37.5226 351.862 36.8613 351.307 36.3919C350.753 35.9226 349.729 35.6879 348.235 35.6879H342.859C340.897 35.6879 339.126 35.3893 337.547 34.7919C335.969 34.1946 334.71 33.2133 333.771 31.8479C332.875 30.4826 332.427 28.6479 332.427 26.3439V24.3599C332.427 22.1839 332.854 20.3493 333.707 18.8559C334.561 17.3626 335.99 16.2319 337.995 15.4639C340.001 14.6959 342.753 14.3119 346.251 14.3119C347.659 14.3119 349.153 14.3973 350.731 14.5679C352.353 14.6959 353.867 14.8879 355.275 15.1439C356.726 15.3573 357.878 15.6133 358.731 15.9119V21.4799H344.331C343.094 21.4799 342.155 21.6933 341.515 22.1199C340.875 22.5039 340.555 23.2506 340.555 24.3599V25.3839C340.555 26.1519 340.705 26.7279 341.003 27.1119C341.302 27.4533 341.75 27.7093 342.347 27.8799C342.987 28.0079 343.777 28.0719 344.715 28.0719H350.219C353.718 28.0719 356.257 28.8826 357.835 30.5039C359.457 32.0826 360.267 34.2799 360.267 37.0959V40.1679C360.267 42.4719 359.713 44.3066 358.603 45.6719C357.537 46.9946 355.958 47.9546 353.867 48.5519C351.819 49.1066 349.302 49.3839 346.315 49.3839Z" fill="black"/>
<path d="M120 11.9999C120 14.2091 118.209 15.9999 116 15.9999C113.791 15.9999 112 14.2091 112 11.9999C112 9.7908 113.791 7.99994 116 7.99994C118.209 7.99994 120 9.7908 120 11.9999Z" fill="#8E0AAF"/>
<path d="M128 19.9999C128 22.2091 126.209 23.9999 124 23.9999C121.791 23.9999 120 22.2091 120 19.9999C120 17.7908 121.791 15.9999 124 15.9999C126.209 15.9999 128 17.7908 128 19.9999Z" fill="#8E0AAF"/>
<path d="M144 35.9999C144 38.2091 142.209 39.9999 140 39.9999C137.791 39.9999 136 38.2091 136 35.9999C136 33.7908 137.791 31.9999 140 31.9999C142.209 31.9999 144 33.7908 144 35.9999Z" fill="#8E0AAF"/>
<path d="M152 43.9999C152 46.2091 150.209 47.9999 148 47.9999C145.791 47.9999 144 46.2091 144 43.9999C144 41.7908 145.791 39.9999 148 39.9999C150.209 39.9999 152 41.7908 152 43.9999Z" fill="#8E0AAF"/>
<path d="M152 11.9999C152 14.2091 150.209 15.9999 148 15.9999C145.791 15.9999 144 14.2091 144 11.9999C144 9.7908 145.791 7.99994 148 7.99994C150.209 7.99994 152 9.7908 152 11.9999Z" fill="#8E0AAF"/>
<path d="M144 19.9999C144 22.2091 142.209 23.9999 140 23.9999C137.791 23.9999 136 22.2091 136 19.9999C136 17.7908 137.791 15.9999 140 15.9999C142.209 15.9999 144 17.7908 144 19.9999Z" fill="#8E0AAF"/>
<path d="M128 35.9999C128 38.2091 126.209 39.9999 124 39.9999C121.791 39.9999 120 38.2091 120 35.9999C120 33.7908 121.791 31.9999 124 31.9999C126.209 31.9999 128 33.7908 128 35.9999Z" fill="#8E0AAF"/>
<path d="M120 43.9999C120 46.2091 118.209 47.9999 116 47.9999C113.791 47.9999 112 46.2091 112 43.9999C112 41.7908 113.791 39.9999 116 39.9999C118.209 39.9999 120 41.7908 120 43.9999Z" fill="#8E0AAF"/>
<path d="M136 27.9999C136 30.2091 134.209 31.9999 132 31.9999C129.791 31.9999 128 30.2091 128 27.9999C128 25.7908 129.791 23.9999 132 23.9999C134.209 23.9999 136 25.7908 136 27.9999Z" fill="#8E0AAF"/>
<path d="M12.528 49.2559L12.5924 48.258L12.5768 48.257L12.5613 48.2565L12.528 49.2559ZM8.55997 48.9999L8.432 49.9917L8.44928 49.9939L8.46663 49.9956L8.55997 48.9999ZM4.78397 48.4879L4.60818 49.4724L4.62532 49.4754L4.64255 49.4779L4.78397 48.4879ZM1.51997 47.7839H0.51997V48.5565L1.26755 48.7516L1.51997 47.7839ZM1.51997 40.2959L1.61947 39.3009L0.51997 39.1909V40.2959H1.51997ZM5.87197 40.6159L5.92453 39.6173H5.92453L5.87197 40.6159ZM10.928 40.8079L10.9036 41.8076L10.928 40.8079ZM20.08 40.4879L20.2969 41.4641L20.3097 41.4613L20.3225 41.4581L20.08 40.4879ZM22.832 39.0159L23.5615 39.6999L23.5718 39.6889L23.5818 39.6776L22.832 39.0159ZM22.512 31.1439L21.8242 31.8699L21.8438 31.8884L21.8643 31.9059L22.512 31.1439ZM4.52797 27.0479L3.8851 27.8139L3.89247 27.8201L3.89995 27.8261L4.52797 27.0479ZM21.424 1.51193L21.3245 2.50697L21.3269 2.50721L21.424 1.51193ZM26.416 2.15193L26.2559 3.13904L26.2707 3.14143L26.2855 3.14339L26.416 2.15193ZM30.576 2.85593H31.576V2.05376L30.7929 1.87975L30.576 2.85593ZM30.576 10.3439L30.5109 11.3418L31.576 11.4113V10.3439H30.576ZM23.984 9.95993L23.9305 10.9585L23.9314 10.9586L23.984 9.95993ZM13.424 10.2159L13.6488 11.1903L13.6619 11.1873L13.6749 11.1839L13.424 10.2159ZM11.376 19.8799L10.7645 20.6712H10.7645L11.376 19.8799ZM27.248 22.5679L26.7453 23.4324L26.7571 23.4393L26.7691 23.4458L27.248 22.5679ZM31.408 26.8559L30.5094 27.2948L30.5135 27.3031L30.5177 27.3114L31.408 26.8559ZM30.704 44.3279L29.8914 43.745L29.8872 43.7509L29.8831 43.7569L30.704 44.3279ZM24.944 48.3599L25.2142 49.3228L25.2252 49.3196L24.944 48.3599ZM40.2955 47.0799L40.9832 46.354L40.2955 47.0799ZM40.6155 31.2079L41.2873 31.9487L41.2966 31.9401L40.6155 31.2079ZM57.9595 28.6479V29.6479H58.9595V28.6479H57.9595ZM57.3835 23.6559L56.4997 24.1238L56.5056 24.1351L56.5119 24.1462L57.3835 23.6559ZM55.2075 22.1199L54.8912 23.0686L54.9144 23.0763L54.9378 23.0829L55.2075 22.1199ZM40.1675 21.6079H39.1675V22.6079H40.1675V21.6079ZM40.1675 16.1039L39.8734 15.1482L39.1675 15.3654V16.1039H40.1675ZM45.9275 14.7599L45.7569 13.7746L45.7537 13.7752L45.9275 14.7599ZM61.2235 15.2079L60.9012 16.1546L60.9072 16.1566L61.2235 15.2079ZM65.8315 18.7279L64.9798 19.252L64.9846 19.2599L64.9896 19.2676L65.8315 18.7279ZM67.4315 48.9999V49.9999H68.4315V48.9999H67.4315ZM59.9435 48.9999L59.0218 49.388L59.2795 49.9999H59.9435V48.9999ZM58.4075 45.3519L59.3291 44.9639L58.7083 43.4895L57.6549 44.6934L58.4075 45.3519ZM56.8715 46.5039L57.3785 47.3659L56.8715 46.5039ZM54.1835 47.8479L54.5681 48.771L54.5772 48.7672L54.5862 48.7632L54.1835 47.8479ZM50.6635 48.9359L50.4432 47.9605L50.4362 47.9621L50.6635 48.9359ZM52.8395 42.6639L53.0039 43.6503L53.0343 43.6453L53.0643 43.6383L52.8395 42.6639ZM54.5035 42.2799L54.7283 43.2543L54.7534 43.2485L54.7782 43.2415L54.5035 42.2799ZM56.1035 41.8319L56.3666 42.7967L56.3934 42.7894L56.4197 42.7806L56.1035 41.8319ZM57.3195 41.3839L56.9683 40.4476L56.9468 40.4557L56.9256 40.4648L57.3195 41.3839ZM57.9595 41.1279L58.4067 42.0224L58.9595 41.746V41.1279H57.9595ZM57.9595 33.1279H58.9595V32.059L57.893 32.1301L57.9595 33.1279ZM52.1995 33.5119L52.1329 32.5141L52.1228 32.5149L52.1995 33.5119ZM48.4875 34.7919L47.8207 34.0467L47.8106 34.0557L47.8008 34.0649L48.4875 34.7919ZM47.8475 41.2559L46.9958 41.78L47.0099 41.803L47.0253 41.8251L47.8475 41.2559ZM49.3195 42.4719L48.9255 43.3911L48.9638 43.4075L49.0032 43.4206L49.3195 42.4719ZM74.523 48.9999H73.523V49.9999H74.523V48.9999ZM74.523 0.231934V-0.768066H73.523V0.231934H74.523ZM83.995 0.231934H84.995V-0.768066H83.995V0.231934ZM83.995 18.1519H82.995V20.2776L84.6325 18.9223L83.995 18.1519ZM88.795 15.3359L88.4034 14.4158L88.3962 14.4189L88.795 15.3359ZM101.147 15.5919L101.702 14.7599L101.147 15.5919ZM104.475 19.8799L105.412 19.5312L104.475 19.8799ZM105.499 48.9999V49.9999H106.499V48.9999H105.499ZM96.027 48.9999H95.027V49.9999H96.027V48.9999ZM95.387 24.7439L94.525 25.251H94.525L95.387 24.7439ZM93.659 23.1439L93.1911 24.0277L93.2119 24.0387L93.2332 24.0488L93.659 23.1439ZM88.475 22.9519L88.7295 23.919L88.746 23.9147L88.7623 23.9098L88.475 22.9519ZM86.107 23.8479L85.6598 22.9535L85.6494 22.9587L85.6391 22.9641L86.107 23.8479ZM83.995 25.1279L83.4284 24.3039L82.995 24.6019V25.1279H83.995ZM83.995 48.9999V49.9999H84.995V48.9999H83.995ZM168.613 47.6559L168.09 48.5083L168.102 48.5152L168.113 48.5218L168.613 47.6559ZM164.197 42.7919L163.303 43.2392L163.307 43.2464L164.197 42.7919ZM161.957 35.1759L160.968 35.3194L161.957 35.1759ZM162.021 15.1439L161.036 14.975L161.034 14.9887L162.021 15.1439ZM164.645 7.59193L163.793 7.06977L163.79 7.07482L164.645 7.59193ZM169.957 2.85593L170.384 3.76039L170.391 3.75694L169.957 2.85593ZM184.741 1.44793L184.647 2.44343L184.649 2.44363L184.741 1.44793ZM189.925 2.21593L189.719 3.19448L189.732 3.19709L189.744 3.19939L189.925 2.21593ZM194.789 3.30393H195.789V2.53304L195.044 2.33686L194.789 3.30393ZM194.789 10.5999L194.648 11.5899L195.789 11.7529V10.5999H194.789ZM191.205 10.2159L191.12 11.2123L191.205 10.2159ZM186.213 9.89594L186.144 10.8935L186.155 10.8943L186.167 10.8949L186.213 9.89594ZM174.373 11.1759L174.94 12L174.945 11.9963L174.373 11.1759ZM171.557 16.0399L172.533 16.2608L172.534 16.2569L171.557 16.0399ZM171.173 32.9359L170.182 33.0653L170.183 33.0758L170.185 33.0864L171.173 32.9359ZM172.581 37.6079L171.707 38.0936L171.711 38.1006L171.715 38.1077L172.581 37.6079ZM175.077 39.9759L174.661 40.885L174.683 40.8953L174.706 40.9044L175.077 39.9759ZM183.973 40.1679L183.792 39.1845L183.788 39.1854L183.973 40.1679ZM187.877 39.2719L188.169 40.2286L188.877 40.0129V39.2719H187.877ZM187.877 30.0559H188.877V29.0559H187.877V30.0559ZM179.365 30.0559H178.365V31.0559H179.365V30.0559ZM179.365 22.5679L179.224 21.578L178.365 21.7006V22.5679H179.365ZM182.565 22.2479L182.497 21.2503L182.565 22.2479ZM186.405 22.0559L186.438 23.0554L186.453 23.0549L186.468 23.054L186.405 22.0559ZM193.957 21.9919L193.918 22.9911L193.937 22.9919H193.957V21.9919ZM196.965 22.1199H197.965V21.2106L197.06 21.1244L196.965 22.1199ZM196.965 48.9999V49.9999H197.965V48.9999H196.965ZM189.861 48.9999L188.933 49.3713L189.184 49.9999H189.861V48.9999ZM188.581 45.7999L189.51 45.4285L189.078 44.3495L188.076 44.9372L188.581 45.7999ZM183.333 48.1039L182.996 47.1626L183.333 48.1039ZM205.67 47.0799L206.358 46.354L205.67 47.0799ZM205.99 31.2079L206.662 31.9487L206.672 31.9401L205.99 31.2079ZM223.334 28.6479V29.6479H224.334V28.6479H223.334ZM222.758 23.6559L221.875 24.1238L221.881 24.1351L221.887 24.1462L222.758 23.6559ZM220.582 22.1199L220.266 23.0686L220.289 23.0763L220.313 23.0829L220.582 22.1199ZM205.542 21.6079H204.542V22.6079H205.542V21.6079ZM205.542 16.1039L205.248 15.1482L204.542 15.3654V16.1039H205.542ZM211.302 14.7599L211.132 13.7746L211.129 13.7752L211.302 14.7599ZM226.598 15.2079L226.276 16.1546L226.282 16.1566L226.598 15.2079ZM231.206 18.7279L230.355 19.252L230.36 19.2599L230.365 19.2676L231.206 18.7279ZM232.806 48.9999V49.9999H233.806V48.9999H232.806ZM225.318 48.9999L224.397 49.388L224.654 49.9999H225.318V48.9999ZM223.782 45.3519L224.704 44.9639L224.083 43.4895L223.03 44.6934L223.782 45.3519ZM222.246 46.5039L222.753 47.3659L222.246 46.5039ZM219.558 47.8479L219.943 48.771L219.952 48.7672L219.961 48.7632L219.558 47.8479ZM216.038 48.9359L215.818 47.9605L215.811 47.9621L216.038 48.9359ZM218.214 42.6639L218.379 43.6503L218.409 43.6453L218.439 43.6383L218.214 42.6639ZM219.878 42.2799L220.103 43.2543L220.128 43.2485L220.153 43.2415L219.878 42.2799ZM221.478 41.8319L221.742 42.7967L221.768 42.7894L221.795 42.7806L221.478 41.8319ZM222.694 41.3839L222.343 40.4476L222.322 40.4557L222.301 40.4648L222.694 41.3839ZM223.334 41.1279L223.782 42.0224L224.334 41.746V41.1279H223.334ZM223.334 33.1279H224.334V32.059L223.268 32.1301L223.334 33.1279ZM217.574 33.5119L217.508 32.5141L217.498 32.5149L217.574 33.5119ZM213.862 34.7919L213.196 34.0467L213.186 34.0557L213.176 34.0649L213.862 34.7919ZM213.222 41.2559L212.371 41.78L212.385 41.803L212.4 41.8251L213.222 41.2559ZM214.694 42.4719L214.301 43.3911L214.339 43.4075L214.378 43.4206L214.694 42.4719ZM239.898 48.9999H238.898V49.9999H239.898V48.9999ZM239.898 14.6319V13.6319H238.898V14.6319H239.898ZM247.706 14.6319L248.61 14.2046L248.339 13.6319H247.706V14.6319ZM249.37 18.1519L248.466 18.5793L248.987 19.682L249.966 18.9547L249.37 18.1519ZM254.234 15.2719L253.822 14.3608L253.814 14.3646L254.234 15.2719ZM266.202 15.3999L265.665 16.2437L265.676 16.2507L266.202 15.3999ZM269.466 18.9199L268.572 19.3671L269.119 20.4615L270.082 19.7074L269.466 18.9199ZM272.858 16.6799L272.377 15.803L272.365 15.8099L272.858 16.6799ZM277.082 14.8239L276.758 13.878V13.878L277.082 14.8239ZM288.026 15.6559L287.466 16.4845L287.479 16.4932L287.492 16.5014L288.026 15.6559ZM291.418 20.0719L290.469 20.3882L290.471 20.3946L291.418 20.0719ZM292.378 48.9999V49.9999H293.378V48.9999H292.378ZM282.906 48.9999H281.906V49.9999H282.906V48.9999ZM282.266 24.8079L281.382 25.2758L281.393 25.2956L281.404 25.315L282.266 24.8079ZM280.602 23.1439L280.134 24.0277L280.602 23.1439ZM274.074 23.3999L274.445 24.3284L274.453 24.3253L274.461 24.3221L274.074 23.3999ZM270.618 25.2559L270.04 24.4399L269.51 24.8153L269.637 25.4521L270.618 25.2559ZM270.81 26.5359L269.815 26.6354L269.816 26.6464L270.81 26.5359ZM270.874 48.9999V49.9999H271.874V48.9999H270.874ZM261.402 48.9999H260.402V49.9999H261.402V48.9999ZM260.762 24.8079L259.878 25.2758L259.889 25.2956L259.9 25.315L260.762 24.8079ZM259.098 23.1439L259.566 22.2601L259.098 23.1439ZM253.85 22.8879L253.607 21.9177L253.595 21.9209L253.85 22.8879ZM251.482 23.7839L251.035 22.8895L251.024 22.8947L251.014 22.9001L251.482 23.7839ZM249.37 25.1279L248.77 24.3279L248.37 24.6279V25.1279H249.37ZM249.37 48.9999V49.9999H250.37V48.9999H249.37ZM304.836 47.8479L304.424 48.7589L304.431 48.7621L304.438 48.7653L304.836 47.8479ZM299.908 42.4719L298.975 42.8299L298.977 42.8366L298.98 42.8433L299.908 42.4719ZM304.58 15.6559L304.161 14.748L304.58 15.6559ZM321.796 15.1439L322.113 14.1952V14.1952L321.796 15.1439ZM326.212 18.7279L325.327 19.1928L325.332 19.2014L325.336 19.2099L326.212 18.7279ZM326.212 31.4639L325.388 30.8974L325.385 30.9031L326.212 31.4639ZM322.372 34.3439L322.689 35.2926L322.7 35.289L322.71 35.2851L322.372 34.3439ZM307.844 35.1759V34.1759H306.795L306.846 35.2247L307.844 35.1759ZM308.612 39.3999L307.684 39.7713L307.693 39.7942L307.703 39.8166L308.612 39.3999ZM311.108 41.6399L310.743 42.5707L310.762 42.5784L310.782 42.5853L311.108 41.6399ZM326.468 42.2799H327.468V41.2799H326.468V42.2799ZM326.468 47.8479L326.669 48.8275L327.468 48.6636V47.8479H326.468ZM320.964 48.8719L321.115 49.8606L321.124 49.8592L321.132 49.8578L320.964 48.8719ZM307.716 29.5439H306.716V30.5439H307.716V29.5439ZM318.66 23.0799L317.766 23.5271L317.771 23.5375L317.777 23.5478L318.66 23.0799ZM316.868 21.4799L316.48 22.4016L316.501 22.4104L316.523 22.4183L316.868 21.4799ZM310.148 21.7359L310.63 22.6121L310.647 22.6031L310.663 22.5934L310.148 21.7359ZM308.292 24.2959L309.248 24.5923L308.292 24.2959ZM342.859 49.2559L342.928 48.2583L342.911 48.2571L342.894 48.2565L342.859 49.2559ZM339.147 48.9999L339.045 49.9946L339.147 48.9999ZM335.691 48.5519L335.495 49.5325L335.514 49.5363L335.533 49.5394L335.691 48.5519ZM333.003 47.8479H332.003V48.5555L332.671 48.7909L333.003 47.8479ZM333.003 42.2799V41.2799H332.003V42.2799H333.003ZM350.411 42.0879L350.636 43.0623L350.661 43.0565L350.686 43.0495L350.411 42.0879ZM351.691 41.2559L350.872 40.6825L350.866 40.6918L350.859 40.7012L351.691 41.2559ZM351.307 36.3919L351.953 35.6285L351.307 36.3919ZM337.547 34.7919L337.901 33.8566L337.547 34.7919ZM333.771 31.8479L332.935 32.3966L332.941 32.4056L332.947 32.4145L333.771 31.8479ZM333.707 18.8559L334.576 19.3521L333.707 18.8559ZM350.731 14.5679L350.624 15.5621L350.638 15.5637L350.653 15.5648L350.731 14.5679ZM355.275 15.1439L355.097 16.1278L355.113 16.1308L355.13 16.1333L355.275 15.1439ZM358.731 15.9119H359.731V15.2025L359.062 14.9681L358.731 15.9119ZM358.731 21.4799V22.4799H359.731V21.4799H358.731ZM341.515 22.1199L342.03 22.9774L342.05 22.9652L342.07 22.952L341.515 22.1199ZM341.003 27.1119L340.214 27.7259L340.232 27.7487L340.251 27.7704L341.003 27.1119ZM342.347 27.8799L342.073 28.8415L342.112 28.8526L342.151 28.8605L342.347 27.8799ZM357.835 30.5039L357.119 31.2016L357.128 31.2111L357.138 31.2204L357.835 30.5039ZM358.603 45.6719L357.827 45.0413L357.825 45.0442L358.603 45.6719ZM353.867 48.5519L354.129 49.5173L354.142 49.5135L353.867 48.5519ZM16.368 48.3839C15.1536 48.3839 13.8951 48.3421 12.5924 48.258L12.4636 50.2539C13.8062 50.3405 15.1077 50.3839 16.368 50.3839V48.3839ZM12.5613 48.2565C11.3027 48.2145 10.0001 48.1306 8.65331 48.0043L8.46663 49.9956C9.85054 50.1253 11.1933 50.212 12.4947 50.2554L12.5613 48.2565ZM8.68794 48.0082C7.3693 47.838 6.11514 47.6679 4.92539 47.498L4.64255 49.4779C5.84213 49.6493 7.1053 49.8205 8.432 49.9917L8.68794 48.0082ZM4.95976 47.5035C3.78602 47.2939 2.72408 47.0646 1.77239 46.8163L1.26755 48.7516C2.27853 49.0153 3.39258 49.2553 4.60818 49.4724L4.95976 47.5035ZM2.51997 47.7839V40.2959H0.51997V47.7839H2.51997ZM1.42047 41.291C2.7195 41.4209 4.18625 41.5286 5.81941 41.6146L5.92453 39.6173C4.31502 39.5326 2.88044 39.427 1.61947 39.3009L1.42047 41.291ZM5.81941 41.6146C7.45082 41.7004 9.14558 41.7648 10.9036 41.8076L10.9524 39.8082C9.2117 39.7658 7.53579 39.7021 5.92453 39.6173L5.81941 41.6146ZM10.9036 41.8076C12.6602 41.8505 14.3324 41.8719 15.92 41.8719V39.8719C14.3502 39.8719 12.6944 39.8507 10.9524 39.8082L10.9036 41.8076ZM15.92 41.8719C17.5893 41.8719 19.0528 41.7406 20.2969 41.4641L19.863 39.5117C18.8031 39.7473 17.4934 39.8719 15.92 39.8719V41.8719ZM20.3225 41.4581C21.6458 41.1272 22.7545 40.5607 23.5615 39.6999L22.1024 38.332C21.6294 38.8365 20.9035 39.2513 19.8374 39.5178L20.3225 41.4581ZM23.5818 39.6776C24.424 38.7231 24.792 37.4829 24.792 36.0719H22.792C22.792 37.1356 22.52 37.8581 22.0821 38.3543L23.5818 39.6776ZM24.792 36.0719V34.3439H22.792V36.0719H24.792ZM24.792 34.3439C24.792 32.7243 24.292 31.3445 23.1596 30.382L21.8643 31.9059C22.4386 32.394 22.792 33.1476 22.792 34.3439H24.792ZM23.1997 30.418C22.143 29.4169 20.6865 28.9919 18.992 28.9919V30.9919C20.3695 30.9919 21.2596 31.335 21.8242 31.8699L23.1997 30.418ZM18.992 28.9919H14.96V30.9919H18.992V28.9919ZM14.96 28.9919C10.5665 28.9919 7.34574 28.0369 5.15599 26.2697L3.89995 27.8261C6.5742 29.9843 10.3081 30.9919 14.96 30.9919V28.9919ZM5.17084 26.282C3.10624 24.5492 1.94397 21.5135 1.94397 16.8719H-0.0560303C-0.0560303 21.7877 1.17104 25.536 3.8851 27.8139L5.17084 26.282ZM1.94397 16.8719V14.5679H-0.0560303V16.8719H1.94397ZM1.94397 14.5679C1.94397 10.1478 3.20644 7.11603 5.53972 5.23435L4.28422 3.67752C1.32683 6.06251 -0.0560303 9.77206 -0.0560303 14.5679H1.94397ZM5.53972 5.23435C7.94323 3.29604 11.4631 2.25593 16.24 2.25593V0.255932C11.2036 0.255932 7.17138 1.34916 4.28422 3.67752L5.53972 5.23435ZM16.24 2.25593C17.9567 2.25593 19.6515 2.33967 21.3245 2.50697L21.5235 0.516895C19.7831 0.342857 18.0219 0.255932 16.24 0.255932V2.25593ZM21.3269 2.50721C23.0572 2.67602 24.7001 2.88674 26.2559 3.13904L26.576 1.16483C24.9746 0.905126 23.2894 0.689182 21.5211 0.516658L21.3269 2.50721ZM26.2855 3.14339C27.888 3.35424 29.2441 3.58436 30.359 3.83212L30.7929 1.87975C29.6038 1.6155 28.1866 1.37629 26.5464 1.16048L26.2855 3.14339ZM29.576 2.85593V10.3439H31.576V2.85593H29.576ZM30.641 9.34605C28.6734 9.21772 26.4718 9.08949 24.0365 8.96132L23.9314 10.9586C26.3602 11.0864 28.5532 11.2141 30.5109 11.3418L30.641 9.34605ZM24.0375 8.96137C21.6332 8.83256 19.3965 8.76793 17.328 8.76793V10.7679C19.3555 10.7679 21.5561 10.8313 23.9305 10.9585L24.0375 8.96137ZM17.328 8.76793C15.8104 8.76793 14.4225 8.92399 13.173 9.24794L13.6749 11.1839C14.7294 10.9105 15.9442 10.7679 17.328 10.7679V8.76793ZM13.1991 9.24154C11.9057 9.54003 10.8363 10.1586 10.0746 11.138L11.6533 12.3659C12.0863 11.8092 12.7236 11.4038 13.6488 11.1903L13.1991 9.24154ZM10.0746 11.138C9.29155 12.1448 8.96797 13.4818 8.96797 15.0159H10.968C10.968 13.7341 11.2417 12.8951 11.6533 12.3659L10.0746 11.138ZM8.96797 15.0159V16.2959H10.968V15.0159H8.96797ZM8.96797 16.2959C8.96797 18.1376 9.49245 19.6883 10.7645 20.6712L11.9874 19.0886C11.3822 18.6209 10.968 17.7823 10.968 16.2959H8.96797ZM10.7645 20.6712C11.951 21.5881 13.594 21.9679 15.536 21.9679V19.9679C13.8086 19.9679 12.6782 19.6225 11.9874 19.0886L10.7645 20.6712ZM15.536 21.9679H20.208V19.9679H15.536V21.9679ZM20.208 21.9679C22.9491 21.9679 25.1074 22.4801 26.7453 23.4324L27.7506 21.7034C25.7193 20.5224 23.1841 19.9679 20.208 19.9679V21.9679ZM26.7691 23.4458C28.4736 24.3755 29.7089 25.6556 30.5094 27.2948L32.3065 26.4171C31.3151 24.3869 29.777 22.8083 27.7268 21.69L26.7691 23.4458ZM30.5177 27.3114C31.3748 28.9866 31.816 30.9175 31.816 33.1279H33.816C33.816 30.645 33.3185 28.3946 32.2982 26.4005L30.5177 27.3114ZM31.816 33.1279V35.8159H33.816V33.1279H31.816ZM31.816 35.8159C31.816 39.4239 31.128 42.0214 29.8914 43.745L31.5165 44.9108C33.096 42.7092 33.816 39.6319 33.816 35.8159H31.816ZM29.8831 43.7569C28.6586 45.5171 26.9369 46.7337 24.6627 47.4003L25.2252 49.3196C27.9004 48.5355 30.0187 47.0641 31.5249 44.899L29.8831 43.7569ZM24.6737 47.3971C22.3515 48.049 19.5877 48.3839 16.368 48.3839V50.3839C19.7189 50.3839 22.6725 50.0362 25.2142 49.3227L24.6737 47.3971ZM46.6315 48.3839C44.2394 48.3839 42.3883 47.6851 40.9832 46.354L39.6077 47.8059C41.4453 49.5467 43.8183 50.3839 46.6315 50.3839V48.3839ZM40.9832 46.354C39.6043 45.0476 38.8635 43.2016 38.8635 40.6799H36.8635C36.8635 43.6196 37.744 46.0402 39.6077 47.8059L40.9832 46.354ZM38.8635 40.6799V37.6079H36.8635V40.6799H38.8635ZM38.8635 37.6079C38.8635 35.2712 39.6733 33.4125 41.2873 31.9487L39.9437 30.4672C37.8883 32.3314 36.8635 34.7393 36.8635 37.6079H38.8635ZM41.2966 31.9401C42.8671 30.4791 45.4275 29.6479 49.1915 29.6479V27.6479C45.1901 27.6479 42.0331 28.5234 39.9344 30.4757L41.2966 31.9401ZM49.1915 29.6479H57.9595V27.6479H49.1915V29.6479ZM58.9595 28.6479V26.2799H56.9595V28.6479H58.9595ZM58.9595 26.2799C58.9595 25.101 58.7483 24.0425 58.255 23.1657L56.5119 24.1462C56.7867 24.6347 56.9595 25.3255 56.9595 26.2799H58.9595ZM58.2673 23.188C57.715 22.1448 56.712 21.5027 55.4771 21.157L54.9378 23.0829C55.8363 23.3345 56.284 23.7164 56.4997 24.1238L58.2673 23.188ZM55.5237 21.1713C54.3408 20.7769 52.6287 20.6079 50.4715 20.6079V22.6079C52.5809 22.6079 54.0262 22.7803 54.8912 23.0686L55.5237 21.1713ZM50.4715 20.6079H40.1675V22.6079H50.4715V20.6079ZM41.1675 21.6079V16.1039H39.1675V21.6079H41.1675ZM40.4616 17.0597C42.0773 16.5626 43.9557 16.1234 46.1013 15.7447L45.7537 13.7752C43.5473 14.1645 41.5857 14.6213 39.8734 15.1482L40.4616 17.0597ZM46.098 15.7453C48.2436 15.3739 50.85 15.1839 53.9275 15.1839V13.1839C50.7756 13.1839 48.0487 13.3779 45.7569 13.7746L46.098 15.7453ZM53.9275 15.1839C56.7123 15.1839 59.0288 15.5172 60.9012 16.1546L61.5457 14.2613C59.4075 13.5334 56.86 13.1839 53.9275 13.1839V15.1839ZM60.9072 16.1566C62.7574 16.7733 64.092 17.8094 64.9798 19.252L66.6831 18.2038C65.5229 16.3185 63.7855 15.0079 61.5397 14.2593L60.9072 16.1566ZM64.9896 19.2676C65.9141 20.7099 66.4315 22.7995 66.4315 25.6399H68.4315C68.4315 22.5924 67.8821 20.074 66.6733 18.1883L64.9896 19.2676ZM66.4315 25.6399V48.9999H68.4315V25.6399H66.4315ZM67.4315 47.9999H59.9435V49.9999H67.4315V47.9999ZM60.8651 48.6119L59.3291 44.9639L57.4858 45.74L59.0218 49.388L60.8651 48.6119ZM57.6549 44.6934C57.4632 44.9125 57.0623 45.2315 56.3645 45.642L57.3785 47.3659C58.1314 46.923 58.7544 46.474 59.16 46.0104L57.6549 44.6934ZM56.3645 45.642C55.6828 46.043 54.8241 46.4735 53.7807 46.9326L54.5862 48.7632C55.6761 48.2837 56.6094 47.8182 57.3785 47.3659L56.3645 45.642ZM53.7989 46.9249C52.8382 47.3251 51.7216 47.6718 50.4432 47.9605L50.8837 49.9114C52.2507 49.6027 53.4808 49.2241 54.5681 48.771L53.7989 46.9249ZM50.4362 47.9621C49.2358 48.2422 47.9684 48.3839 46.6315 48.3839V50.3839C48.1106 50.3839 49.5311 50.227 50.8907 49.9098L50.4362 47.9621ZM51.4315 43.7919C51.9235 43.7919 52.4487 43.7429 53.0039 43.6503L52.6751 41.6775C52.2062 41.7557 51.7928 41.7919 51.4315 41.7919V43.7919ZM53.0643 43.6383C53.619 43.5103 54.1737 43.3823 54.7283 43.2543L54.2786 41.3055C53.7239 41.4335 53.1693 41.5615 52.6146 41.6895L53.0643 43.6383ZM54.7782 43.2415C55.3727 43.0716 55.902 42.9234 56.3666 42.7967L55.8404 40.8672C55.3663 40.9965 54.829 41.1469 54.2288 41.3184L54.7782 43.2415ZM56.4197 42.7806C56.9433 42.6061 57.3782 42.4468 57.7134 42.3031L56.9256 40.4648C56.6635 40.5771 56.2876 40.7164 55.7872 40.8833L56.4197 42.7806ZM57.6706 42.3203C57.9951 42.1986 58.2641 42.0936 58.4067 42.0224L57.5123 40.2335C57.5164 40.2314 57.5075 40.236 57.4776 40.2488C57.45 40.2606 57.4127 40.276 57.3641 40.2955C57.2668 40.3344 57.1357 40.3849 56.9683 40.4476L57.6706 42.3203ZM58.9595 41.1279V33.1279H56.9595V41.1279H58.9595ZM57.893 32.1301L52.1329 32.5141L52.266 34.5097L58.026 34.1257L57.893 32.1301ZM52.1228 32.5149C50.3502 32.6512 48.8619 33.1151 47.8207 34.0467L49.1543 35.5372C49.7344 35.0181 50.7207 34.6286 52.2762 34.509L52.1228 32.5149ZM47.8008 34.0649C46.7984 35.0117 46.3355 36.2748 46.3355 37.7359H48.3355C48.3355 36.7224 48.6406 36.0228 49.1741 35.5189L47.8008 34.0649ZM46.3355 37.7359V39.1439H48.3355V37.7359H46.3355ZM46.3355 39.1439C46.3355 40.1262 46.5318 41.0259 46.9958 41.78L48.6991 40.7318C48.4805 40.3766 48.3355 39.8684 48.3355 39.1439H46.3355ZM47.0253 41.8251C47.512 42.5282 48.1486 43.0581 48.9255 43.3911L49.7134 41.5528C49.2957 41.3738 48.9509 41.093 48.6697 40.6867L47.0253 41.8251ZM49.0032 43.4206C49.7582 43.6723 50.5706 43.7919 51.4315 43.7919V41.7919C50.7563 41.7919 50.1607 41.6983 49.6357 41.5233L49.0032 43.4206ZM75.523 48.9999V0.231934H73.523V48.9999H75.523ZM74.523 1.23193H83.995V-0.768066H74.523V1.23193ZM82.995 0.231934V18.1519H84.995V0.231934H82.995ZM84.6325 18.9223C85.7781 17.9743 87.2904 17.0805 89.1937 16.253L88.3962 14.4189C86.3742 15.298 84.6865 16.2816 83.3574 17.3815L84.6325 18.9223ZM89.1865 16.2561C91.0734 15.4532 92.9886 15.0559 94.939 15.0559V13.0559C92.708 13.0559 90.5272 13.512 88.4034 14.4158L89.1865 16.2561ZM94.939 15.0559C97.4219 15.0559 99.2751 15.5459 100.592 16.424L101.702 14.7599C99.9469 13.59 97.6613 13.0559 94.939 13.0559V15.0559ZM100.592 16.424C101.942 17.3239 102.924 18.5787 103.538 20.2287L105.412 19.5312C104.661 17.5118 103.424 15.908 101.702 14.7599L100.592 16.424ZM103.538 20.2287C104.17 21.9284 104.499 23.9392 104.499 26.2799H106.499C106.499 23.7567 106.145 21.5008 105.412 19.5312L103.538 20.2287ZM104.499 26.2799V48.9999H106.499V26.2799H104.499ZM105.499 47.9999H96.027V49.9999H105.499V47.9999ZM97.027 48.9999V27.4959H95.027V48.9999H97.027ZM97.027 27.4959C97.027 26.2635 96.7903 25.1574 96.2489 24.2369L94.525 25.251C94.8369 25.7812 95.027 26.5097 95.027 27.4959H97.027ZM96.2489 24.2369C95.7256 23.3472 95.0015 22.6705 94.0848 22.2391L93.2332 24.0488C93.7671 24.3 94.195 24.69 94.525 25.251L96.2489 24.2369ZM94.1269 22.2601C93.2317 21.7862 92.2116 21.5679 91.099 21.5679V23.5679C91.949 23.5679 92.6356 23.7336 93.1911 24.0277L94.1269 22.2601ZM91.099 21.5679C90.1062 21.5679 89.1347 21.71 88.1876 21.9941L88.7623 23.9098C89.5219 23.6819 90.2997 23.5679 91.099 23.5679V21.5679ZM88.2205 21.9849C87.3416 22.2161 86.4878 22.5395 85.6598 22.9535L86.5542 24.7424C87.2621 24.3884 87.987 24.1144 88.7295 23.919L88.2205 21.9849ZM85.6391 22.9641C84.8794 23.3663 84.1425 23.813 83.4284 24.3039L84.5615 25.952C85.2128 25.5042 85.8839 25.0976 86.5749 24.7317L85.6391 22.9641ZM82.995 25.1279V48.9999H84.995V25.1279H82.995ZM83.995 47.9999H74.523V49.9999H83.995V47.9999ZM175.973 48.3199C173.104 48.3199 170.838 47.7862 169.114 46.7901L168.113 48.5218C170.229 49.7443 172.87 50.3199 175.973 50.3199V48.3199ZM169.136 46.8036C167.426 45.7542 166.077 44.2754 165.088 42.3375L163.307 43.2464C164.451 45.4898 166.046 47.2536 168.09 48.5083L169.136 46.8036ZM165.092 42.3447C164.083 40.3272 163.362 37.8958 162.947 35.0325L160.968 35.3194C161.406 38.3441 162.178 40.99 163.303 43.2391L165.092 42.3447ZM162.947 35.0325C162.529 32.145 162.317 28.9086 162.317 25.3199H160.317C160.317 28.9846 160.533 32.3189 160.968 35.3194L162.947 35.0325ZM162.317 25.3199C162.317 21.5621 162.55 18.2234 163.009 15.2992L161.034 14.9887C160.554 18.0378 160.317 21.4831 160.317 25.3199H162.317ZM163.007 15.3129C163.503 12.4179 164.343 10.0258 165.501 8.10905L163.79 7.07482C162.473 9.25403 161.564 11.8966 161.036 14.975L163.007 15.3129ZM165.498 8.11409C166.674 6.19315 168.295 4.74563 170.384 3.76037L169.531 1.9515C167.097 3.09957 165.177 4.80938 163.793 7.06978L165.498 8.11409ZM170.391 3.75694C172.517 2.73349 175.299 2.19193 178.789 2.19193V0.191933C175.112 0.191933 172.006 0.759705 169.524 1.95493L170.391 3.75694ZM178.789 2.19193C180.94 2.19193 182.892 2.2763 184.647 2.44343L184.836 0.452438C183.007 0.278228 180.991 0.191933 178.789 0.191933V2.19193ZM184.649 2.44363C186.45 2.61115 188.139 2.86185 189.719 3.19448L190.131 1.23739C188.469 0.887353 186.703 0.626055 184.834 0.452232L184.649 2.44363ZM189.744 3.19939C191.341 3.49344 192.937 3.85061 194.535 4.27101L195.044 2.33686C193.399 1.90392 191.753 1.53576 190.107 1.23248L189.744 3.19939ZM193.789 3.30393V10.5999H195.789V3.30393H193.789ZM194.931 9.60998C194.008 9.47817 192.793 9.3483 191.291 9.21959L191.12 11.2123C192.605 11.3396 193.779 11.4657 194.648 11.5899L194.931 9.60998ZM191.291 9.21959C189.782 9.09026 188.105 8.98282 186.26 8.89701L186.167 10.8949C187.991 10.9797 189.642 11.0856 191.12 11.2123L191.291 9.21959ZM186.283 8.89836C184.424 8.76864 182.502 8.70393 180.517 8.70393V10.7039C182.458 10.7039 184.334 10.7672 186.144 10.8935L186.283 8.89836ZM180.517 8.70393C177.732 8.70393 175.448 9.20812 173.802 10.3555L174.945 11.9963C176.115 11.1811 177.927 10.7039 180.517 10.7039V8.70393ZM173.807 10.3519C172.159 11.4848 171.125 13.3767 170.581 15.823L172.534 16.2569C173.014 14.0952 173.857 12.7444 174.94 12L173.807 10.3519ZM170.582 15.8191C170.046 18.1862 169.789 21.3861 169.789 25.3839H171.789C171.789 21.4457 172.045 18.4163 172.533 16.2608L170.582 15.8191ZM169.789 25.3839C169.789 28.4784 169.918 31.0431 170.182 33.0653L172.165 32.8066C171.917 30.9034 171.789 28.4335 171.789 25.3839H169.789ZM170.185 33.0864C170.493 35.1131 170.988 36.7989 171.707 38.0936L173.456 37.1223C172.895 36.113 172.451 34.6841 172.162 32.7855L170.185 33.0864ZM171.715 38.1077C172.444 39.3712 173.423 40.3176 174.661 40.885L175.494 39.0669C174.684 38.6956 173.999 38.0633 173.448 37.1082L171.715 38.1077ZM174.706 40.9044C175.923 41.3913 177.359 41.6159 178.981 41.6159V39.6159C177.532 39.6159 176.365 39.4139 175.449 39.0475L174.706 40.9044ZM178.981 41.6159C180.788 41.6159 182.514 41.4617 184.159 41.1505L183.788 39.1854C182.275 39.4715 180.674 39.6159 178.981 39.6159V41.6159ZM184.155 41.1514C185.794 40.8494 187.136 40.5428 188.169 40.2286L187.586 38.3153C186.656 38.5984 185.396 38.8891 183.792 39.1845L184.155 41.1514ZM188.877 39.2719V30.0559H186.877V39.2719H188.877ZM187.877 29.0559H179.365V31.0559H187.877V29.0559ZM180.365 30.0559V22.5679H178.365V30.0559H180.365ZM179.507 23.5579C180.372 23.4343 181.413 23.3298 182.634 23.2456L182.497 21.2503C181.243 21.3367 180.151 21.4455 179.224 21.578L179.507 23.5579ZM182.634 23.2456C183.859 23.1611 185.126 23.0977 186.438 23.0554L186.373 21.0565C185.039 21.0995 183.747 21.1641 182.497 21.2503L182.634 23.2456ZM186.468 23.054C187.815 22.9698 189.095 22.9279 190.309 22.9279V20.9279C189.049 20.9279 187.727 20.9714 186.343 21.0579L186.468 23.054ZM190.309 22.9279C191.665 22.9279 192.867 22.9491 193.918 22.9911L193.997 20.9927C192.914 20.9494 191.685 20.9279 190.309 20.9279V22.9279ZM193.957 22.9919C195.042 22.9919 196.012 23.0337 196.871 23.1154L197.06 21.1244C196.127 21.0355 195.092 20.9919 193.957 20.9919V22.9919ZM195.965 22.1199V48.9999H197.965V22.1199H195.965ZM196.965 47.9999H189.861V49.9999H196.965V47.9999ZM190.79 48.6285L189.51 45.4285L187.653 46.1713L188.933 49.3713L190.79 48.6285ZM188.076 44.9372C186.916 45.6173 185.232 46.3609 182.996 47.1626L183.671 49.0453C185.957 48.2256 187.773 47.4333 189.087 46.6626L188.076 44.9372ZM182.996 47.1626C180.853 47.9307 178.515 48.3199 175.973 48.3199V50.3199C178.722 50.3199 181.291 49.8985 183.671 49.0453L182.996 47.1626ZM212.006 48.3839C209.614 48.3839 207.763 47.6851 206.358 46.354L204.983 47.8059C206.82 49.5467 209.193 50.3839 212.006 50.3839V48.3839ZM206.358 46.354C204.979 45.0476 204.238 43.2016 204.238 40.6799H202.238C202.238 43.6196 203.119 46.0402 204.983 47.8059L206.358 46.354ZM204.238 40.6799V37.6079H202.238V40.6799H204.238ZM204.238 37.6079C204.238 35.2712 205.048 33.4125 206.662 31.9487L205.319 30.4672C203.263 32.3314 202.238 34.7393 202.238 37.6079H204.238ZM206.672 31.9401C208.242 30.4791 210.803 29.6479 214.566 29.6479V27.6479C210.565 27.6479 207.408 28.5234 205.309 30.4757L206.672 31.9401ZM214.566 29.6479H223.334V27.6479H214.566V29.6479ZM224.334 28.6479V26.2799H222.334V28.6479H224.334ZM224.334 26.2799C224.334 25.101 224.123 24.0425 223.63 23.1657L221.887 24.1462C222.162 24.6347 222.334 25.3255 222.334 26.2799H224.334ZM223.642 23.188C223.09 22.1448 222.087 21.5027 220.852 21.157L220.313 23.0829C221.211 23.3345 221.659 23.7164 221.875 24.1238L223.642 23.188ZM220.899 21.1713C219.716 20.7769 218.004 20.6079 215.846 20.6079V22.6079C217.956 22.6079 219.401 22.7803 220.266 23.0686L220.899 21.1713ZM215.846 20.6079H205.542V22.6079H215.846V20.6079ZM206.542 21.6079V16.1039H204.542V21.6079H206.542ZM205.837 17.0597C207.452 16.5626 209.331 16.1234 211.476 15.7447L211.129 13.7752C208.922 14.1645 206.961 14.6213 205.248 15.1482L205.837 17.0597ZM211.473 15.7453C213.619 15.3739 216.225 15.1839 219.302 15.1839V13.1839C216.151 13.1839 213.424 13.3779 211.132 13.7746L211.473 15.7453ZM219.302 15.1839C222.087 15.1839 224.404 15.5172 226.276 16.1546L226.921 14.2613C224.782 13.5334 222.235 13.1839 219.302 13.1839V15.1839ZM226.282 16.1566C228.132 16.7733 229.467 17.8094 230.355 19.252L232.058 18.2038C230.898 16.3185 229.161 15.0079 226.915 14.2593L226.282 16.1566ZM230.365 19.2676C231.289 20.7099 231.806 22.7995 231.806 25.6399H233.806C233.806 22.5924 233.257 20.074 232.048 18.1883L230.365 19.2676ZM231.806 25.6399V48.9999H233.806V25.6399H231.806ZM232.806 47.9999H225.318V49.9999H232.806V47.9999ZM226.24 48.6119L224.704 44.9639L222.861 45.74L224.397 49.388L226.24 48.6119ZM223.03 44.6934C222.838 44.9125 222.437 45.2315 221.739 45.642L222.753 47.3659C223.506 46.923 224.129 46.474 224.535 46.0104L223.03 44.6934ZM221.739 45.642C221.058 46.043 220.199 46.4735 219.156 46.9326L219.961 48.7632C221.051 48.2837 221.984 47.8182 222.753 47.3659L221.739 45.642ZM219.174 46.9249C218.213 47.3251 217.097 47.6718 215.818 47.9605L216.259 49.9114C217.626 49.6027 218.856 49.2241 219.943 48.771L219.174 46.9249ZM215.811 47.9621C214.611 48.2422 213.343 48.3839 212.006 48.3839V50.3839C213.486 50.3839 214.906 50.227 216.266 49.9098L215.811 47.9621ZM216.806 43.7919C217.299 43.7919 217.824 43.7429 218.379 43.6503L218.05 41.6775C217.581 41.7557 217.168 41.7919 216.806 41.7919V43.7919ZM218.439 43.6383C218.994 43.5103 219.549 43.3823 220.103 43.2543L219.654 41.3055C219.099 41.4335 218.544 41.5615 217.99 41.6895L218.439 43.6383ZM220.153 43.2415C220.748 43.0716 221.277 42.9234 221.742 42.7967L221.215 40.8672C220.741 40.9965 220.204 41.1469 219.604 41.3184L220.153 43.2415ZM221.795 42.7806C222.318 42.6061 222.753 42.4468 223.088 42.3031L222.301 40.4648C222.038 40.5771 221.663 40.7164 221.162 40.8833L221.795 42.7806ZM223.046 42.3203C223.37 42.1986 223.639 42.0936 223.782 42.0224L222.887 40.2335C222.891 40.2314 222.882 40.236 222.853 40.2488C222.825 40.2606 222.788 40.276 222.739 40.2955C222.642 40.3344 222.511 40.3849 222.343 40.4476L223.046 42.3203ZM224.334 41.1279V33.1279H222.334V41.1279H224.334ZM223.268 32.1301L217.508 32.5141L217.641 34.5097L223.401 34.1257L223.268 32.1301ZM217.498 32.5149C215.725 32.6512 214.237 33.1151 213.196 34.0467L214.529 35.5372C215.109 35.0181 216.096 34.6286 217.651 34.509L217.498 32.5149ZM213.176 34.0649C212.173 35.0117 211.71 36.2748 211.71 37.7359H213.71C213.71 36.7224 214.016 36.0228 214.549 35.5189L213.176 34.0649ZM211.71 37.7359V39.1439H213.71V37.7359H211.71ZM211.71 39.1439C211.71 40.1262 211.907 41.0259 212.371 41.78L214.074 40.7318C213.856 40.3766 213.71 39.8684 213.71 39.1439H211.71ZM212.4 41.8251C212.887 42.5282 213.524 43.0581 214.301 43.3911L215.088 41.5528C214.671 41.3738 214.326 41.093 214.045 40.6867L212.4 41.8251ZM214.378 43.4206C215.133 43.6723 215.946 43.7919 216.806 43.7919V41.7919C216.131 41.7919 215.536 41.6983 215.011 41.5233L214.378 43.4206ZM240.898 48.9999V14.6319H238.898V48.9999H240.898ZM239.898 15.6319H247.706V13.6319H239.898V15.6319ZM246.802 15.0593L248.466 18.5793L250.274 17.7246L248.61 14.2046L246.802 15.0593ZM249.966 18.9547C251.403 17.8876 252.965 16.9622 254.654 16.1792L253.814 14.3646C252.004 15.203 250.324 16.1976 248.774 17.3492L249.966 18.9547ZM254.646 16.183C256.274 15.4467 258.322 15.0559 260.826 15.0559V13.0559C258.125 13.0559 255.778 13.4759 253.822 14.3608L254.646 16.183ZM260.826 15.0559C262.869 15.0559 264.46 15.4764 265.665 16.2436L266.739 14.5563C265.128 13.5314 263.135 13.0559 260.826 13.0559V15.0559ZM265.676 16.2507C266.978 17.0543 267.934 18.0914 268.572 19.3671L270.36 18.4727C269.548 16.8472 268.328 15.5375 266.727 14.5491L265.676 16.2507ZM270.082 19.7074C271.018 18.9748 272.107 18.2551 273.351 17.55L272.365 15.8099C271.049 16.5554 269.876 17.329 268.85 18.1324L270.082 19.7074ZM273.339 17.5567C274.609 16.8601 275.965 16.2642 277.406 15.7699L276.758 13.878C275.213 14.4077 273.752 15.0491 272.377 15.8031L273.339 17.5567ZM277.406 15.7699C278.804 15.2905 280.167 15.0559 281.498 15.0559V13.0559C279.928 13.0559 278.346 13.3334 276.758 13.878L277.406 15.7699ZM281.498 15.0559C284.158 15.0559 286.112 15.5697 287.466 16.4845L288.586 14.8273C286.782 13.6088 284.384 13.0559 281.498 13.0559V15.0559ZM287.492 16.5014C288.907 17.395 289.898 18.6741 290.469 20.3882L292.367 19.7557C291.658 17.6298 290.388 15.9649 288.56 14.8104L287.492 16.5014ZM290.471 20.3946C291.067 22.1428 291.378 24.2475 291.378 26.7279H293.378C293.378 24.0884 293.048 21.7557 292.364 19.7493L290.471 20.3946ZM291.378 26.7279V48.9999H293.378V26.7279H291.378ZM292.378 47.9999H282.906V49.9999H292.378V47.9999ZM283.906 48.9999V27.5599H281.906V48.9999H283.906ZM283.906 27.5599C283.906 26.3275 283.669 25.2214 283.128 24.3009L281.404 25.315C281.716 25.8452 281.906 26.5737 281.906 27.5599H283.906ZM283.15 24.34C282.672 23.4375 281.972 22.738 281.07 22.2601L280.134 24.0277C280.682 24.3179 281.092 24.7277 281.382 25.2758L283.15 24.34ZM281.07 22.2601C280.169 21.7832 279.125 21.5679 277.978 21.5679V23.5679C278.879 23.5679 279.584 23.7367 280.134 24.0277L281.07 22.2601ZM277.978 21.5679C276.55 21.5679 275.118 21.8779 273.687 22.4777L274.461 24.3221C275.676 23.8126 276.846 23.5679 277.978 23.5679V21.5679ZM273.703 22.4715C272.357 23.0098 271.134 23.6649 270.04 24.4399L271.196 26.072C272.15 25.3963 273.231 24.814 274.445 24.3284L273.703 22.4715ZM269.637 25.4521C269.716 25.8472 269.776 26.2416 269.815 26.6354L271.805 26.4364C271.759 25.9769 271.69 25.518 271.599 25.0598L269.637 25.4521ZM269.816 26.6464C269.854 26.9901 269.874 27.3584 269.874 27.7519H271.874C271.874 27.2921 271.851 26.8497 271.804 26.4255L269.816 26.6464ZM269.874 27.7519V48.9999H271.874V27.7519H269.874ZM270.874 47.9999H261.402V49.9999H270.874V47.9999ZM262.402 48.9999V27.5599H260.402V48.9999H262.402ZM262.402 27.5599C262.402 26.3275 262.165 25.2214 261.624 24.3009L259.9 25.315C260.212 25.8452 260.402 26.5737 260.402 27.5599H262.402ZM261.646 24.34C261.168 23.4375 260.468 22.738 259.566 22.2601L258.63 24.0277C259.178 24.3179 259.588 24.7277 259.878 25.2758L261.646 24.34ZM259.566 22.2601C258.665 21.7832 257.621 21.5679 256.474 21.5679V23.5679C257.375 23.5679 258.08 23.7367 258.63 24.0277L259.566 22.2601ZM256.474 21.5679C255.498 21.5679 254.542 21.6843 253.607 21.9178L254.093 23.8581C254.865 23.6649 255.658 23.5679 256.474 23.5679V21.5679ZM253.595 21.9209C252.717 22.1521 251.863 22.4755 251.035 22.8895L251.929 24.6784C252.637 24.3244 253.362 24.0504 254.104 23.855L253.595 21.9209ZM251.014 22.9001C250.241 23.3095 249.493 23.7858 248.77 24.3279L249.97 25.9279C250.613 25.446 251.272 25.0263 251.95 24.6677L251.014 22.9001ZM248.37 25.1279V48.9999H250.37V25.1279H248.37ZM249.37 47.9999H239.898V49.9999H249.37V47.9999ZM313.924 48.3199C310.198 48.3199 307.321 47.836 305.235 46.9306L304.438 48.7653C306.875 49.8225 310.057 50.3199 313.924 50.3199V48.3199ZM305.249 46.937C303.25 46.0317 301.777 44.4497 300.837 42.1005L298.98 42.8433C300.088 45.6141 301.901 47.6162 304.424 48.7589L305.249 46.937ZM300.842 42.114C299.924 39.7186 299.436 36.3172 299.436 31.8479H297.436C297.436 36.424 297.93 40.1053 298.975 42.8299L300.842 42.114ZM299.436 31.8479C299.436 27.2439 299.904 23.7748 300.783 21.3762L298.906 20.6877C297.908 23.4091 297.436 27.1506 297.436 31.8479H299.436ZM300.783 21.3762C301.642 19.0341 303.051 17.4632 305 16.5639L304.161 14.748C301.672 15.8967 299.924 17.9098 298.906 20.6877L300.783 21.3762ZM305 16.5639C307.034 15.6248 309.88 15.1199 313.604 15.1199V13.1199C309.734 13.1199 306.564 13.6391 304.161 14.748L305 16.5639ZM313.604 15.1199C316.965 15.1199 319.576 15.4578 321.48 16.0926L322.113 14.1952C319.921 13.4648 317.07 13.1199 313.604 13.1199V15.1199ZM321.48 16.0926C323.315 16.7042 324.566 17.743 325.327 19.1928L327.098 18.2631C326.067 16.2995 324.374 14.949 322.113 14.1952L321.48 16.0926ZM325.336 19.2099C326.159 20.7058 326.62 22.923 326.62 25.9599H328.62C328.62 22.7675 328.143 20.1634 327.089 18.246L325.336 19.2099ZM326.62 25.9599C326.62 28.1382 326.176 29.7523 325.388 30.8974L327.036 32.0305C328.127 30.4449 328.62 28.3897 328.62 25.9599H326.62ZM325.385 30.9031C324.62 32.0315 323.521 32.869 322.035 33.4027L322.71 35.2851C324.552 34.6242 326.013 33.5417 327.04 32.0248L325.385 30.9031ZM322.056 33.3952C320.519 33.9077 318.668 34.1759 316.484 34.1759V36.1759C318.824 36.1759 320.898 35.8895 322.689 35.2926L322.056 33.3952ZM316.484 34.1759H307.844V36.1759H316.484V34.1759ZM306.846 35.2247C306.934 37.0329 307.201 38.5626 307.684 39.7713L309.541 39.0285C309.171 38.1039 308.926 36.8177 308.843 35.1272L306.846 35.2247ZM307.703 39.8166C308.296 41.109 309.344 42.021 310.743 42.5707L311.474 40.7092C310.484 40.3202 309.868 39.7388 309.522 38.9833L307.703 39.8166ZM310.782 42.5853C312.176 43.0657 314.076 43.2799 316.42 43.2799V41.2799C314.156 41.2799 312.516 41.0675 311.434 40.6946L310.782 42.5853ZM316.42 43.2799H326.468V41.2799H316.42V43.2799ZM325.468 42.2799V47.8479H327.468V42.2799H325.468ZM326.268 46.8683C324.616 47.207 322.793 47.5463 320.797 47.8861L321.132 49.8578C323.147 49.5149 324.993 49.1715 326.669 48.8275L326.268 46.8683ZM320.814 47.8833C318.916 48.1722 316.622 48.3199 313.924 48.3199V50.3199C316.688 50.3199 319.088 50.169 321.115 49.8606L320.814 47.8833ZM307.716 30.5439H315.524V28.5439H307.716V30.5439ZM315.524 30.5439C316.903 30.5439 318.129 30.2742 318.991 29.5352L317.69 28.0167C317.357 28.3016 316.706 28.5439 315.524 28.5439V30.5439ZM318.991 29.5352C319.923 28.7364 320.236 27.4466 320.236 26.0239H318.236C318.236 27.2466 317.952 27.7915 317.69 28.0167L318.991 29.5352ZM320.236 26.0239C320.236 24.6994 320.034 23.5363 319.544 22.612L317.777 23.5478C318.055 24.0742 318.236 24.8738 318.236 26.0239H320.236ZM319.555 22.6327C319.056 21.6356 318.262 20.9276 317.214 20.5416L316.523 22.4183C317.096 22.6296 317.497 22.9882 317.766 23.5271L319.555 22.6327ZM317.257 20.5583C316.274 20.1447 315.037 19.9679 313.604 19.9679V21.9679C314.902 21.9679 315.841 22.1325 316.48 22.4016L317.257 20.5583ZM313.604 19.9679C312.05 19.9679 310.698 20.2399 309.634 20.8784L310.663 22.5934C311.305 22.2079 312.257 21.9679 313.604 21.9679V19.9679ZM309.667 20.8597C308.52 21.4906 307.772 22.5989 307.337 23.9995L309.248 24.5923C309.581 23.5183 310.071 22.92 310.63 22.6121L309.667 20.8597ZM307.337 23.9995C306.909 25.3786 306.716 27.2451 306.716 29.5439H308.716C308.716 27.3201 308.908 25.6879 309.248 24.5923L307.337 23.9995ZM346.315 48.3839C345.275 48.3839 344.146 48.3423 342.928 48.2583L342.791 50.2536C344.047 50.3402 345.223 50.3839 346.315 50.3839V48.3839ZM342.894 48.2565C341.68 48.2147 340.465 48.1309 339.25 48.0052L339.045 49.9946C340.305 50.125 341.565 50.2119 342.825 50.2553L342.894 48.2565ZM339.25 48.0052C338.029 47.8789 336.895 47.7318 335.849 47.5645L335.533 49.5394C336.621 49.7134 337.792 49.865 339.045 49.9946L339.25 48.0052ZM335.888 47.5714C334.85 47.3638 334.003 47.1402 333.336 46.9049L332.671 48.7909C333.455 49.0676 334.4 49.3134 335.495 49.5325L335.888 47.5714ZM334.003 47.8479V42.2799H332.003V47.8479H334.003ZM333.003 43.2799H348.235V41.2799H333.003V43.2799ZM348.235 43.2799C349.169 43.2799 349.978 43.2142 350.636 43.0623L350.187 41.1135C349.735 41.2177 349.094 41.2799 348.235 41.2799V43.2799ZM350.686 43.0495C351.432 42.8363 352.096 42.4514 352.524 41.8106L350.859 40.7012C350.775 40.8285 350.585 40.9982 350.137 41.1264L350.686 43.0495ZM352.511 41.8294C352.971 41.1722 353.139 40.3447 353.139 39.4639H351.139C351.139 40.1192 351.009 40.4864 350.872 40.6825L352.511 41.8294ZM353.139 39.4639V38.3759H351.139V39.4639H353.139ZM353.139 38.3759C353.139 37.2853 352.773 36.3218 351.953 35.6285L350.662 37.1553C350.952 37.4008 351.139 37.7599 351.139 38.3759H353.139ZM351.953 35.6285C351.106 34.9111 349.756 34.6879 348.235 34.6879V36.6879C349.701 36.6879 350.4 36.9341 350.662 37.1553L351.953 35.6285ZM348.235 34.6879H342.859V36.6879H348.235V34.6879ZM342.859 34.6879C340.998 34.6879 339.35 34.4048 337.901 33.8566L337.194 35.7272C338.902 36.3737 340.795 36.6879 342.859 36.6879V34.6879ZM337.901 33.8566C336.51 33.33 335.416 32.4755 334.596 31.2814L332.947 32.4145C334.004 33.9511 335.428 35.0592 337.194 35.7272L337.901 33.8566ZM334.608 31.2993C333.854 30.1511 333.427 28.5298 333.427 26.3439H331.427C331.427 28.7661 331.897 30.8141 332.935 32.3966L334.608 31.2993ZM333.427 26.3439V24.3599H331.427V26.3439H333.427ZM333.427 24.3599C333.427 22.3126 333.829 20.6593 334.576 19.3521L332.839 18.3598C331.88 20.0393 331.427 22.0553 331.427 24.3599H333.427ZM334.576 19.3521C335.288 18.105 336.508 17.1043 338.353 16.3978L337.638 14.5301C335.472 15.3596 333.833 16.6202 332.839 18.3598L334.576 19.3521ZM338.353 16.3978C340.195 15.6924 342.808 15.3119 346.251 15.3119V13.3119C342.698 13.3119 339.807 13.6995 337.638 14.5301L338.353 16.3978ZM346.251 15.3119C347.619 15.3119 349.077 15.3949 350.624 15.5621L350.839 13.5737C349.229 13.3997 347.7 13.3119 346.251 13.3119V15.3119ZM350.653 15.5648C352.245 15.6905 353.726 15.8786 355.097 16.1278L355.454 14.1601C354.009 13.8973 352.461 13.7013 350.81 13.571L350.653 15.5648ZM355.13 16.1333C356.551 16.3423 357.633 16.587 358.401 16.8558L359.062 14.9681C358.123 14.6396 356.901 14.3722 355.421 14.1546L355.13 16.1333ZM357.731 15.9119V21.4799H359.731V15.9119H357.731ZM358.731 20.4799H344.331V22.4799H358.731V20.4799ZM344.331 20.4799C343.006 20.4799 341.837 20.7036 340.961 21.2879L342.07 22.952C342.474 22.6829 343.182 22.4799 344.331 22.4799V20.4799ZM341.001 21.2624C339.929 21.9055 339.555 23.0844 339.555 24.3599H341.555C341.555 23.4168 341.822 23.1024 342.03 22.9774L341.001 21.2624ZM339.555 24.3599V25.3839H341.555V24.3599H339.555ZM339.555 25.3839C339.555 26.254 339.72 27.0905 340.214 27.7259L341.793 26.498C341.69 26.3654 341.555 26.0499 341.555 25.3839H339.555ZM340.251 27.7704C340.715 28.301 341.357 28.6368 342.073 28.8415L342.622 26.9184C342.144 26.7817 341.889 26.6055 341.756 26.4534L340.251 27.7704ZM342.151 28.8605C342.877 29.0057 343.737 29.0719 344.715 29.0719V27.0719C343.817 27.0719 343.098 27.0102 342.544 26.8994L342.151 28.8605ZM344.715 29.0719H350.219V27.0719H344.715V29.0719ZM350.219 29.0719C353.593 29.0719 355.81 29.857 357.119 31.2016L358.552 29.8063C356.704 27.9082 353.844 27.0719 350.219 27.0719V29.0719ZM357.138 31.2204C358.521 32.567 359.267 34.4797 359.267 37.0959H361.267C361.267 34.0802 360.393 31.5982 358.533 29.7875L357.138 31.2204ZM359.267 37.0959V40.1679H361.267V37.0959H359.267ZM359.267 40.1679C359.267 42.3141 358.752 43.903 357.827 45.0413L359.38 46.3025C360.673 44.7102 361.267 42.6298 361.267 40.1679H359.267ZM357.825 45.0442C356.92 46.1666 355.541 47.0339 353.593 47.5904L354.142 49.5135C356.376 48.8753 358.154 47.8226 359.382 46.2997L357.825 45.0442ZM353.606 47.5867C351.67 48.111 349.247 48.3839 346.315 48.3839V50.3839C349.358 50.3839 351.969 50.1022 354.129 49.5172L353.606 47.5867ZM119 11.9999C119 13.6568 117.657 14.9999 116 14.9999V16.9999C118.761 16.9999 121 14.7614 121 11.9999H119ZM116 14.9999C114.343 14.9999 113 13.6568 113 11.9999H111C111 14.7614 113.239 16.9999 116 16.9999V14.9999ZM113 11.9999C113 10.3431 114.343 8.99994 116 8.99994V6.99994C113.239 6.99994 111 9.23851 111 11.9999H113ZM116 8.99994C117.657 8.99994 119 10.3431 119 11.9999H121C121 9.23851 118.761 6.99994 116 6.99994V8.99994ZM127 19.9999C127 21.6568 125.657 22.9999 124 22.9999V24.9999C126.761 24.9999 129 22.7614 129 19.9999H127ZM124 22.9999C122.343 22.9999 121 21.6568 121 19.9999H119C119 22.7614 121.239 24.9999 124 24.9999V22.9999ZM121 19.9999C121 18.3431 122.343 16.9999 124 16.9999V14.9999C121.239 14.9999 119 17.2385 119 19.9999H121ZM124 16.9999C125.657 16.9999 127 18.3431 127 19.9999H129C129 17.2385 126.761 14.9999 124 14.9999V16.9999ZM143 35.9999C143 37.6568 141.657 38.9999 140 38.9999V40.9999C142.761 40.9999 145 38.7614 145 35.9999H143ZM140 38.9999C138.343 38.9999 137 37.6568 137 35.9999H135C135 38.7614 137.239 40.9999 140 40.9999V38.9999ZM137 35.9999C137 34.3431 138.343 32.9999 140 32.9999V30.9999C137.239 30.9999 135 33.2385 135 35.9999H137ZM140 32.9999C141.657 32.9999 143 34.3431 143 35.9999H145C145 33.2385 142.761 30.9999 140 30.9999V32.9999ZM151 43.9999C151 45.6568 149.657 46.9999 148 46.9999V48.9999C150.761 48.9999 153 46.7614 153 43.9999H151ZM148 46.9999C146.343 46.9999 145 45.6568 145 43.9999H143C143 46.7614 145.239 48.9999 148 48.9999V46.9999ZM145 43.9999C145 42.3431 146.343 40.9999 148 40.9999V38.9999C145.239 38.9999 143 41.2385 143 43.9999H145ZM148 40.9999C149.657 40.9999 151 42.3431 151 43.9999H153C153 41.2385 150.761 38.9999 148 38.9999V40.9999ZM151 11.9999C151 13.6568 149.657 14.9999 148 14.9999V16.9999C150.761 16.9999 153 14.7614 153 11.9999H151ZM148 14.9999C146.343 14.9999 145 13.6568 145 11.9999H143C143 14.7614 145.239 16.9999 148 16.9999V14.9999ZM145 11.9999C145 10.3431 146.343 8.99994 148 8.99994V6.99994C145.239 6.99994 143 9.23852 143 11.9999H145ZM148 8.99994C149.657 8.99994 151 10.3431 151 11.9999H153C153 9.23852 150.761 6.99994 148 6.99994V8.99994ZM143 19.9999C143 21.6568 141.657 22.9999 140 22.9999V24.9999C142.761 24.9999 145 22.7614 145 19.9999H143ZM140 22.9999C138.343 22.9999 137 21.6568 137 19.9999H135C135 22.7614 137.239 24.9999 140 24.9999V22.9999ZM137 19.9999C137 18.3431 138.343 16.9999 140 16.9999V14.9999C137.239 14.9999 135 17.2385 135 19.9999H137ZM140 16.9999C141.657 16.9999 143 18.3431 143 19.9999H145C145 17.2385 142.761 14.9999 140 14.9999V16.9999ZM127 35.9999C127 37.6568 125.657 38.9999 124 38.9999V40.9999C126.761 40.9999 129 38.7614 129 35.9999H127ZM124 38.9999C122.343 38.9999 121 37.6568 121 35.9999H119C119 38.7614 121.239 40.9999 124 40.9999V38.9999ZM121 35.9999C121 34.3431 122.343 32.9999 124 32.9999V30.9999C121.239 30.9999 119 33.2385 119 35.9999H121ZM124 32.9999C125.657 32.9999 127 34.3431 127 35.9999H129C129 33.2385 126.761 30.9999 124 30.9999V32.9999ZM119 43.9999C119 45.6568 117.657 46.9999 116 46.9999V48.9999C118.761 48.9999 121 46.7614 121 43.9999H119ZM116 46.9999C114.343 46.9999 113 45.6568 113 43.9999H111C111 46.7614 113.239 48.9999 116 48.9999V46.9999ZM113 43.9999C113 42.3431 114.343 40.9999 116 40.9999V38.9999C113.239 38.9999 111 41.2385 111 43.9999H113ZM116 40.9999C117.657 40.9999 119 42.3431 119 43.9999H121C121 41.2385 118.761 38.9999 116 38.9999V40.9999ZM135 27.9999C135 29.6568 133.657 30.9999 132 30.9999V32.9999C134.761 32.9999 137 30.7614 137 27.9999H135ZM132 30.9999C130.343 30.9999 129 29.6568 129 27.9999H127C127 30.7614 129.239 32.9999 132 32.9999V30.9999ZM129 27.9999C129 26.3431 130.343 24.9999 132 24.9999V22.9999C129.239 22.9999 127 25.2385 127 27.9999H129ZM132 24.9999C133.657 24.9999 135 26.3431 135 27.9999H137C137 25.2385 134.761 22.9999 132 22.9999V24.9999Z" fill="#420152" mask="url(#path-1-inside-1_52_154)"/>
</svg>
