<svg width="32" height="32" viewBox="0 0 32 32" fill="none" xmlns="http://www.w3.org/2000/svg">
<circle cx="16" cy="16" r="16" fill="url(#paint0_linear_105_2)"/>
<path d="M16.6429 16C16.6429 16.6308 16.1618 17.1 15.619 17.1C15.0763 17.1 14.5952 16.6308 14.5952 16C14.5952 15.3692 15.0763 14.9 15.619 14.9C16.1618 14.9 16.6429 15.3692 16.6429 16ZM13.5952 19.2C13.5952 19.8308 13.1142 20.3 12.5714 20.3C12.0287 20.3 11.5476 19.8308 11.5476 19.2C11.5476 18.5692 12.0287 18.1 12.5714 18.1C13.1142 18.1 13.5952 18.5692 13.5952 19.2ZM10.5476 22.4C10.5476 23.0308 10.0665 23.5 9.52381 23.5C8.98108 23.5 8.5 23.0308 8.5 22.4C8.5 21.7692 8.98108 21.3 9.52381 21.3C10.0665 21.3 10.5476 21.7692 10.5476 22.4ZM20.0714 12.8C20.0714 13.4308 19.5903 13.9 19.0476 13.9C18.5049 13.9 18.0238 13.4308 18.0238 12.8C18.0238 12.1692 18.5049 11.7 19.0476 11.7C19.5903 11.7 20.0714 12.1692 20.0714 12.8ZM23.5 9.6C23.5 10.2308 23.0189 10.7 22.4762 10.7C21.9335 10.7 21.4524 10.2308 21.4524 9.6C21.4524 8.96922 21.9335 8.5 22.4762 8.5C23.0189 8.5 23.5 8.96922 23.5 9.6ZM13.5952 12.8C13.5952 13.4308 13.1142 13.9 12.5714 13.9C12.0287 13.9 11.5476 13.4308 11.5476 12.8C11.5476 12.1692 12.0287 11.7 12.5714 11.7C13.1142 11.7 13.5952 12.1692 13.5952 12.8ZM10.5476 9.6C10.5476 10.2308 10.0665 10.7 9.52381 10.7C8.98108 10.7 8.5 10.2308 8.5 9.6C8.5 8.96922 8.98108 8.5 9.52381 8.5C10.0665 8.5 10.5476 8.96922 10.5476 9.6ZM19.6905 19.2C19.6905 19.8308 19.2094 20.3 18.6667 20.3C18.1239 20.3 17.6429 19.8308 17.6429 19.2C17.6429 18.5692 18.1239 18.1 18.6667 18.1C19.2094 18.1 19.6905 18.5692 19.6905 19.2ZM23.5 22.4C23.5 23.0308 23.0189 23.5 22.4762 23.5C21.9335 23.5 21.4524 23.0308 21.4524 22.4C21.4524 21.7692 21.9335 21.3 22.4762 21.3C23.0189 21.3 23.5 21.7692 23.5 22.4Z" fill="white" stroke="white"/>
<defs>
<linearGradient id="paint0_linear_105_2" x1="16" y1="0" x2="16" y2="32" gradientUnits="userSpaceOnUse">
<stop stop-color="#8E0AAF"/>
<stop offset="1" stop-color="#500064"/>
</linearGradient>
</defs>
</svg>
