<svg width="170" height="50" viewBox="0 0 170 50" fill="none" xmlns="http://www.w3.org/2000/svg">
<path d="M14.064 49.216C11.6747 49.216 9.22136 48.9387 6.70403 48.384C4.18669 47.8293 2.01069 46.976 0.176025 45.824L0.560025 36.352H6.51203L7.79203 44.224C8.77336 44.608 9.75469 44.9067 10.736 45.12C11.7174 45.2907 12.8054 45.376 14 45.376C16.304 45.376 18.0534 44.8 19.248 43.648C20.4427 42.4533 21.04 41.0027 21.04 39.296C21.04 37.5893 20.592 36.2667 19.696 35.328C18.8427 34.3893 17.456 33.4933 15.536 32.64L12.784 31.424C9.02936 29.6747 6.10669 27.7333 4.01603 25.6C1.96803 23.4667 0.944026 20.6293 0.944026 17.088C0.944026 13.248 2.37336 10.24 5.23203 8.064C8.13336 5.84533 11.9947 4.736 16.816 4.736C19.12 4.736 21.3174 5.03466 23.408 5.632C25.5414 6.18666 27.376 6.976 28.912 8L28.4 16.96H22.512L21.296 9.408C20.6134 9.152 19.9307 8.96 19.248 8.832C18.5654 8.66133 17.8187 8.576 17.008 8.576C15.1734 8.576 13.616 9.10933 12.336 10.176C11.056 11.2427 10.416 12.6507 10.416 14.4C10.416 16.1067 10.9067 17.472 11.888 18.496C12.912 19.4773 14.3627 20.3947 16.24 21.248L19.248 22.592C23.3014 24.4267 26.224 26.368 28.016 28.416C29.8507 30.4213 30.768 33.0453 30.768 36.288C30.768 40.0427 29.3387 43.136 26.48 45.568C23.664 48 19.5254 49.216 14.064 49.216Z" fill="black"/>
<path d="M59.185 48.896C55.473 48.896 53.1264 47.36 52.145 44.288C50.7797 45.7387 49.457 46.8907 48.177 47.744C46.9397 48.5547 45.2117 48.96 42.993 48.96C40.5184 48.96 38.4917 48.256 36.913 46.848C35.377 45.44 34.609 43.4133 34.609 40.768C34.609 39.232 34.9504 37.8453 35.633 36.608C36.3157 35.3707 37.553 34.2187 39.345 33.152C41.137 32.0853 43.6757 31.0827 46.961 30.144C47.601 29.9307 48.3477 29.7173 49.201 29.504C50.0544 29.2907 50.929 29.0773 51.825 28.864V26.752C51.825 23.8933 51.4624 21.952 50.737 20.928C50.0544 19.904 48.689 19.392 46.641 19.392C46.3424 19.392 46.065 19.392 45.809 19.392C45.553 19.392 45.2544 19.4133 44.913 19.456L44.593 22.272C44.5504 24.3627 44.0597 25.8773 43.121 26.816C42.225 27.7547 41.1584 28.224 39.921 28.224C37.5744 28.224 36.145 27.1573 35.633 25.024C35.8037 22.3787 37.1477 20.224 39.665 18.56C42.1824 16.896 45.745 16.064 50.353 16.064C54.449 16.064 57.3717 17.0027 59.121 18.88C60.913 20.7573 61.809 23.8507 61.809 28.16V42.496C61.809 43.7333 62.2784 44.352 63.217 44.352C63.5584 44.352 63.8784 44.2667 64.177 44.096C64.4757 43.8827 64.7957 43.4987 65.137 42.944L66.865 44.096C66.097 45.8027 65.0944 47.04 63.857 47.808C62.6624 48.5333 61.105 48.896 59.185 48.896ZM44.081 39.104C44.081 40.6827 44.4437 41.856 45.169 42.624C45.937 43.392 46.8544 43.776 47.921 43.776C48.3904 43.776 48.881 43.6693 49.393 43.456C49.905 43.2427 50.7157 42.752 51.825 41.984V31.616C51.2704 31.7867 50.7157 31.9787 50.161 32.192C49.649 32.3627 49.201 32.5333 48.817 32.704C47.3664 33.3013 46.2144 34.1547 45.361 35.264C44.5077 36.3307 44.081 37.6107 44.081 39.104Z" fill="black"/>
<path d="M68.545 48V44.992L72.065 44.288C72.1077 42.6667 72.129 41.0453 72.129 39.424C72.1717 37.8027 72.193 36.1813 72.193 34.56V21.44H68.033V17.664L72.321 17.152C72.6624 14.2507 73.3024 11.968 74.241 10.304C75.1797 8.59733 76.3744 7.01867 77.825 5.568C79.2757 4.11733 81.217 2.98667 83.649 2.176C86.1237 1.32266 88.833 0.895996 91.777 0.895996C94.081 0.895996 96.0864 1.32266 97.793 2.176C99.4997 3.02933 100.502 4.416 100.801 6.336C100.758 7.53067 100.374 8.53333 99.649 9.344C98.9237 10.1547 97.8784 10.56 96.513 10.56C95.4037 10.56 94.3797 10.1973 93.441 9.472C92.545 8.704 91.649 7.46667 90.753 5.76L89.409 3.584C88.2144 4.18133 87.1477 4.94933 86.209 5.888C85.441 6.656 84.7797 7.50933 84.225 8.448C83.6704 9.344 83.2437 10.4747 82.945 11.84C82.6464 13.2053 82.4544 14.9547 82.369 17.088H95.041L101.377 16.064L102.465 16.768L102.273 25.856V34.56C102.273 35.8827 102.273 37.4613 102.273 39.296C102.273 41.088 102.294 42.7733 102.337 44.352L105.537 44.992V48H88.513V44.992L91.969 44.224C92.0117 42.688 92.033 41.024 92.033 39.232C92.033 37.44 92.033 35.8827 92.033 34.56V29.952C92.033 28.0747 92.0117 26.5173 91.969 25.28C91.969 24 91.9264 22.72 91.841 21.44H82.369V34.56C82.369 36.1387 82.369 37.7387 82.369 39.36C82.4117 40.9813 82.4544 42.6027 82.497 44.224L86.209 44.992V48H68.545Z" fill="black"/>
<path d="M108.603 48V44.992L112.123 44.288C112.166 42.7093 112.187 41.024 112.187 39.232C112.187 37.44 112.187 35.8827 112.187 34.56V30.784C112.187 29.5893 112.166 28.608 112.123 27.84C112.123 27.072 112.102 26.368 112.059 25.728C112.059 25.0453 112.038 24.2773 111.995 23.424L108.091 22.848V20.352L120.699 16.064L121.851 16.768L122.427 24.32C123.323 21.5893 124.582 19.5413 126.203 18.176C127.824 16.768 129.424 16.064 131.003 16.064C132.411 16.064 133.627 16.4693 134.651 17.28C135.675 18.048 136.315 19.2213 136.571 20.8C136.528 22.464 136.08 23.7653 135.227 24.704C134.374 25.6 133.307 26.048 132.027 26.048C130.235 26.048 128.592 25.0453 127.099 23.04L126.715 22.528C125.776 23.424 124.902 24.5547 124.091 25.92C123.323 27.2853 122.768 28.7147 122.427 30.208V34.56C122.427 35.8827 122.427 37.3973 122.427 39.104C122.427 40.8107 122.448 42.4107 122.491 43.904L127.547 44.992V48H108.603Z" fill="black"/>
<path d="M161.623 48.896C157.911 48.896 155.564 47.36 154.583 44.288C153.217 45.7387 151.895 46.8907 150.615 47.744C149.377 48.5547 147.649 48.96 145.431 48.96C142.956 48.96 140.929 48.256 139.351 46.848C137.815 45.44 137.047 43.4133 137.047 40.768C137.047 39.232 137.388 37.8453 138.071 36.608C138.753 35.3707 139.991 34.2187 141.783 33.152C143.575 32.0853 146.113 31.0827 149.399 30.144C150.039 29.9307 150.785 29.7173 151.639 29.504C152.492 29.2907 153.367 29.0773 154.263 28.864V26.752C154.263 23.8933 153.9 21.952 153.175 20.928C152.492 19.904 151.127 19.392 149.079 19.392C148.78 19.392 148.503 19.392 148.247 19.392C147.991 19.392 147.692 19.4133 147.351 19.456L147.031 22.272C146.988 24.3627 146.497 25.8773 145.559 26.816C144.663 27.7547 143.596 28.224 142.359 28.224C140.012 28.224 138.583 27.1573 138.071 25.024C138.241 22.3787 139.585 20.224 142.103 18.56C144.62 16.896 148.183 16.064 152.791 16.064C156.887 16.064 159.809 17.0027 161.559 18.88C163.351 20.7573 164.247 23.8507 164.247 28.16V42.496C164.247 43.7333 164.716 44.352 165.655 44.352C165.996 44.352 166.316 44.2667 166.615 44.096C166.913 43.8827 167.233 43.4987 167.575 42.944L169.303 44.096C168.535 45.8027 167.532 47.04 166.295 47.808C165.1 48.5333 163.543 48.896 161.623 48.896ZM146.519 39.104C146.519 40.6827 146.881 41.856 147.607 42.624C148.375 43.392 149.292 43.776 150.359 43.776C150.828 43.776 151.319 43.6693 151.831 43.456C152.343 43.2427 153.153 42.752 154.263 41.984V31.616C153.708 31.7867 153.153 31.9787 152.599 32.192C152.087 32.3627 151.639 32.5333 151.255 32.704C149.804 33.3013 148.652 34.1547 147.799 35.264C146.945 36.3307 146.519 37.6107 146.519 39.104Z" fill="black"/>
</svg>
